%TF.GenerationSoftware,KiCad,Pcbnew,9.0.0*%
%TF.CreationDate,2025-03-10T21:28:12+01:00*%
%TF.ProjectId,X68KFDPI2,5836384b-4644-4504-9932-2e6b69636164,rev?*%
%TF.SameCoordinates,Original*%
%TF.FileFunction,Copper,L2,Bot*%
%TF.FilePolarity,Positive*%
%FSLAX46Y46*%
G04 Gerber Fmt 4.6, Leading zero omitted, Abs format (unit mm)*
G04 Created by KiCad (PCBNEW 9.0.0) date 2025-03-10 21:28:12*
%MOMM*%
%LPD*%
G01*
G04 APERTURE LIST*
G04 Aperture macros list*
%AMRoundRect*
0 Rectangle with rounded corners*
0 $1 Rounding radius*
0 $2 $3 $4 $5 $6 $7 $8 $9 X,Y pos of 4 corners*
0 Add a 4 corners polygon primitive as box body*
4,1,4,$2,$3,$4,$5,$6,$7,$8,$9,$2,$3,0*
0 Add four circle primitives for the rounded corners*
1,1,$1+$1,$2,$3*
1,1,$1+$1,$4,$5*
1,1,$1+$1,$6,$7*
1,1,$1+$1,$8,$9*
0 Add four rect primitives between the rounded corners*
20,1,$1+$1,$2,$3,$4,$5,0*
20,1,$1+$1,$4,$5,$6,$7,0*
20,1,$1+$1,$6,$7,$8,$9,0*
20,1,$1+$1,$8,$9,$2,$3,0*%
%AMFreePoly0*
4,1,25,0.335306,0.780194,0.389950,0.741421,0.741421,0.389950,0.788777,0.314585,0.800000,0.248529,0.800000,-0.248529,0.780194,-0.335306,0.741421,-0.389950,0.389950,-0.741421,0.314585,-0.788777,0.248529,-0.800000,-0.248529,-0.800000,-0.335306,-0.780194,-0.389950,-0.741421,-0.741421,-0.389950,-0.788777,-0.314585,-0.800000,-0.248529,-0.800000,0.248529,-0.780194,0.335306,-0.741421,0.389950,
-0.389950,0.741421,-0.314585,0.788777,-0.248529,0.800000,0.248529,0.800000,0.335306,0.780194,0.335306,0.780194,$1*%
G04 Aperture macros list end*
%TA.AperFunction,ComponentPad*%
%ADD10RoundRect,0.250000X0.625000X-0.350000X0.625000X0.350000X-0.625000X0.350000X-0.625000X-0.350000X0*%
%TD*%
%TA.AperFunction,ComponentPad*%
%ADD11O,1.750000X1.200000*%
%TD*%
%TA.AperFunction,ComponentPad*%
%ADD12C,1.600000*%
%TD*%
%TA.AperFunction,ComponentPad*%
%ADD13O,1.600000X1.600000*%
%TD*%
%TA.AperFunction,ComponentPad*%
%ADD14FreePoly0,90.000000*%
%TD*%
%TA.AperFunction,ComponentPad*%
%ADD15RoundRect,0.200000X0.600000X-0.600000X0.600000X0.600000X-0.600000X0.600000X-0.600000X-0.600000X0*%
%TD*%
%TA.AperFunction,ComponentPad*%
%ADD16R,1.574800X1.574800*%
%TD*%
%TA.AperFunction,ComponentPad*%
%ADD17C,1.574800*%
%TD*%
%TA.AperFunction,ComponentPad*%
%ADD18RoundRect,0.250000X-0.625000X0.350000X-0.625000X-0.350000X0.625000X-0.350000X0.625000X0.350000X0*%
%TD*%
%TA.AperFunction,ComponentPad*%
%ADD19R,1.700000X1.700000*%
%TD*%
%TA.AperFunction,ComponentPad*%
%ADD20O,1.700000X1.700000*%
%TD*%
%TA.AperFunction,ComponentPad*%
%ADD21RoundRect,0.250000X0.550000X-0.550000X0.550000X0.550000X-0.550000X0.550000X-0.550000X-0.550000X0*%
%TD*%
%TA.AperFunction,ComponentPad*%
%ADD22RoundRect,0.250000X-0.600000X0.600000X-0.600000X-0.600000X0.600000X-0.600000X0.600000X0.600000X0*%
%TD*%
%TA.AperFunction,ComponentPad*%
%ADD23C,1.700000*%
%TD*%
%TA.AperFunction,ComponentPad*%
%ADD24R,1.800000X1.800000*%
%TD*%
%TA.AperFunction,ComponentPad*%
%ADD25C,1.800000*%
%TD*%
%TA.AperFunction,ComponentPad*%
%ADD26R,2.400000X2.400000*%
%TD*%
%TA.AperFunction,ComponentPad*%
%ADD27O,2.400000X2.400000*%
%TD*%
%TA.AperFunction,ComponentPad*%
%ADD28RoundRect,0.250000X0.600000X-0.600000X0.600000X0.600000X-0.600000X0.600000X-0.600000X-0.600000X0*%
%TD*%
%TA.AperFunction,ComponentPad*%
%ADD29C,2.100000*%
%TD*%
%TA.AperFunction,ComponentPad*%
%ADD30C,1.750000*%
%TD*%
%TA.AperFunction,ComponentPad*%
%ADD31R,2.000000X2.000000*%
%TD*%
%TA.AperFunction,ComponentPad*%
%ADD32C,2.000000*%
%TD*%
%TA.AperFunction,ViaPad*%
%ADD33C,0.800000*%
%TD*%
%TA.AperFunction,Conductor*%
%ADD34C,0.250000*%
%TD*%
G04 APERTURE END LIST*
D10*
%TO.P,J7,1,Pin_1*%
%TO.N,LED0R*%
X72900000Y-94235000D03*
D11*
%TO.P,J7,2,Pin_2*%
%TO.N,Net-(J7-Pin_2)*%
X72900000Y-92235000D03*
%TO.P,J7,3,Pin_3*%
%TO.N,GND*%
X72900000Y-90235000D03*
%TD*%
D12*
%TO.P,R2,1*%
%TO.N,LED_F1_Red*%
X80125000Y-81775000D03*
D13*
%TO.P,R2,2*%
%TO.N,Net-(J8-Pin_2)*%
X80125000Y-71615000D03*
%TD*%
D14*
%TO.P,U1,1,GPIO0*%
%TO.N,unconnected-(U1-GPIO0-Pad1)*%
X89960000Y-78880000D03*
D12*
%TO.P,U1,2,GPIO1*%
%TO.N,unconnected-(U1-GPIO1-Pad2)*%
X92500000Y-78880000D03*
D15*
%TO.P,U1,3,GND*%
%TO.N,GND*%
X95040000Y-78880000D03*
D12*
%TO.P,U1,4,GPIO2*%
%TO.N,~{OPT0}*%
X97580000Y-78880000D03*
%TO.P,U1,5,GPIO3*%
%TO.N,~{OPT1}*%
X100120000Y-78880000D03*
%TO.P,U1,6,GPIO4*%
%TO.N,~{OPT2}*%
X102660000Y-78880000D03*
%TO.P,U1,7,GPIO5*%
%TO.N,~{OPT3}*%
X105200000Y-78880000D03*
D15*
%TO.P,U1,8,GND*%
%TO.N,GND*%
X107740000Y-78880000D03*
D12*
%TO.P,U1,9,GPIO6*%
%TO.N,~{EJECT}*%
X110280000Y-78880000D03*
%TO.P,U1,10,GPIO7*%
%TO.N,~{INSERTED}*%
X112820000Y-78880000D03*
%TO.P,U1,11,GPIO8*%
%TO.N,~{FDDINT}*%
X115360000Y-78880000D03*
%TO.P,U1,12,GPIO9*%
%TO.N,~{ERROR}*%
X117900000Y-78880000D03*
D15*
%TO.P,U1,13,GND*%
%TO.N,GND*%
X120440000Y-78880000D03*
D12*
%TO.P,U1,14,GPIO10*%
%TO.N,~{EjectMSK}*%
X122980000Y-78880000D03*
%TO.P,U1,15,GPIO11*%
%TO.N,~{MOTOR}*%
X125520000Y-78880000D03*
%TO.P,U1,16,GPIO12*%
%TO.N,LEDFD0*%
X128060000Y-78880000D03*
%TO.P,U1,17,GPIO13*%
%TO.N,LEDFD1*%
X130600000Y-78880000D03*
D15*
%TO.P,U1,18,GND*%
%TO.N,GND*%
X133140000Y-78880000D03*
D12*
%TO.P,U1,19,GPIO14*%
%TO.N,LED_F0_Red*%
X135680000Y-78880000D03*
%TO.P,U1,20,GPIO15*%
%TO.N,LED_F1_Red*%
X138220000Y-78880000D03*
%TO.P,U1,21,GPIO16*%
%TO.N,BT_FD0*%
X138220000Y-61100000D03*
%TO.P,U1,22,GPIO17*%
%TO.N,BT_FD1*%
X135680000Y-61100000D03*
D15*
%TO.P,U1,23,GND*%
%TO.N,GND*%
X133140000Y-61100000D03*
D12*
%TO.P,U1,24,GPIO18*%
%TO.N,~{LED_BLINK}*%
X130600000Y-61100000D03*
%TO.P,U1,25,GPIO19*%
%TO.N,BT__LED_FD0*%
X128060000Y-61100000D03*
%TO.P,U1,26,GPIO20*%
%TO.N,BT__LED_FD1*%
X125520000Y-61100000D03*
%TO.P,U1,27,GPIO21*%
%TO.N,FD0_En*%
X122980000Y-61100000D03*
D15*
%TO.P,U1,28,GND*%
%TO.N,GND*%
X120440000Y-61100000D03*
D12*
%TO.P,U1,29,GPIO22*%
%TO.N,FD1_En*%
X117900000Y-61100000D03*
%TO.P,U1,30,RUN*%
%TO.N,unconnected-(U1-RUN-Pad30)*%
X115360000Y-61100000D03*
%TO.P,U1,31,GPIO26_ADC0*%
%TO.N,Int{slash}Ext*%
X112820000Y-61100000D03*
%TO.P,U1,32,GPIO27_ADC1*%
%TO.N,unconnected-(U1-GPIO27_ADC1-Pad32)_1*%
X110280000Y-61100000D03*
D15*
%TO.P,U1,33,AGND*%
%TO.N,GND*%
X107740000Y-61100000D03*
D12*
%TO.P,U1,34,GPIO28_ADC2*%
%TO.N,unconnected-(U1-GPIO28_ADC2-Pad34)_1*%
X105200000Y-61100000D03*
%TO.P,U1,35,ADC_VREF*%
%TO.N,unconnected-(U1-ADC_VREF-Pad35)*%
X102660000Y-61100000D03*
%TO.P,U1,36,3V3*%
%TO.N,+3.3V*%
X100120000Y-61100000D03*
%TO.P,U1,37,3V3_EN*%
%TO.N,unconnected-(U1-3V3_EN-Pad37)*%
X97580000Y-61100000D03*
D15*
%TO.P,U1,38,GND*%
%TO.N,GND*%
X95040000Y-61100000D03*
D12*
%TO.P,U1,39,VSYS*%
%TO.N,5vtoPico*%
X92500000Y-61100000D03*
%TO.P,U1,40,VBUS*%
%TO.N,unconnected-(U1-VBUS-Pad40)_1*%
X89960000Y-61100000D03*
D16*
%TO.P,U1,41,SWCLK*%
%TO.N,unconnected-(U1-SWCLK-Pad41)*%
X119790000Y-69405800D03*
D17*
%TO.P,U1,42,GND*%
%TO.N,GND*%
X119790000Y-66865800D03*
%TO.P,U1,43,SWDIO*%
%TO.N,unconnected-(U1-SWDIO-Pad43)*%
X119790000Y-64325800D03*
%TD*%
D12*
%TO.P,R7,1*%
%TO.N,GND*%
X79400000Y-104765000D03*
D13*
%TO.P,R7,2*%
%TO.N,BT_FD0*%
X79400000Y-112385000D03*
%TD*%
D12*
%TO.P,R5,1*%
%TO.N,BT__LED_FD0*%
X87300000Y-95325000D03*
D13*
%TO.P,R5,2*%
%TO.N,Net-(J3-Pin_3)*%
X87300000Y-85165000D03*
%TD*%
D18*
%TO.P,J4,1,Pin_1*%
%TO.N,5vtoPico*%
X150000000Y-66150000D03*
D11*
%TO.P,J4,2,Pin_2*%
%TO.N,BT_FD1*%
X150000000Y-68150000D03*
%TO.P,J4,3,Pin_3*%
%TO.N,Net-(J4-Pin_3)*%
X150000000Y-70150000D03*
%TO.P,J4,4,Pin_4*%
%TO.N,GND*%
X150000000Y-72150000D03*
%TD*%
D19*
%TO.P,J9,1,Pin_1*%
%TO.N,+5V*%
X144075000Y-79275000D03*
D20*
%TO.P,J9,2,Pin_2*%
%TO.N,GND*%
X144075000Y-81815000D03*
%TO.P,J9,3,Pin_3*%
X144075000Y-84355000D03*
%TO.P,J9,4,Pin_4*%
%TO.N,unconnected-(J9-Pin_4-Pad4)*%
X144075000Y-86895000D03*
%TD*%
D12*
%TO.P,R1,1*%
%TO.N,LEDFD1*%
X80075000Y-68555000D03*
D13*
%TO.P,R1,2*%
%TO.N,LED1R*%
X80075000Y-58395000D03*
%TD*%
D21*
%TO.P,U2,1,A->B*%
%TO.N,LVC245_EN*%
X96650000Y-94825000D03*
D12*
%TO.P,U2,2,A0*%
%TO.N,~{INDEX3v3}*%
X99190000Y-94825000D03*
%TO.P,U2,3,A1*%
%TO.N,~{TRK03v3}*%
X101730000Y-94825000D03*
%TO.P,U2,4,A2*%
%TO.N,~{WPROT3v3}*%
X104270000Y-94825000D03*
%TO.P,U2,5,A3*%
%TO.N,~{RDATA3v3}*%
X106810000Y-94825000D03*
%TO.P,U2,6,A4*%
%TO.N,~{RDY3v3}*%
X109350000Y-94825000D03*
%TO.P,U2,7,A5*%
%TO.N,unconnected-(U2-A5-Pad7)*%
X111890000Y-94825000D03*
%TO.P,U2,8,A6*%
%TO.N,unconnected-(U2-A6-Pad8)*%
X114430000Y-94825000D03*
%TO.P,U2,9,A7*%
%TO.N,unconnected-(U2-A7-Pad9)*%
X116970000Y-94825000D03*
%TO.P,U2,10,GND*%
%TO.N,GND*%
X119510000Y-94825000D03*
%TO.P,U2,11,B7*%
%TO.N,unconnected-(U2-B7-Pad11)*%
X119510000Y-87205000D03*
%TO.P,U2,12,B6*%
%TO.N,unconnected-(U2-B6-Pad12)*%
X116970000Y-87205000D03*
%TO.P,U2,13,B5*%
%TO.N,unconnected-(U2-B5-Pad13)*%
X114430000Y-87205000D03*
%TO.P,U2,14,B4*%
%TO.N,~{RDY}*%
X111890000Y-87205000D03*
%TO.P,U2,15,B3*%
%TO.N,~{RDATA}*%
X109350000Y-87205000D03*
%TO.P,U2,16,B2*%
%TO.N,~{WPROT}*%
X106810000Y-87205000D03*
%TO.P,U2,17,B1*%
%TO.N,~{TRK0}*%
X104270000Y-87205000D03*
%TO.P,U2,18,B0*%
%TO.N,~{INDEX}*%
X101730000Y-87205000D03*
%TO.P,U2,19,CE*%
%TO.N,GND*%
X99190000Y-87205000D03*
%TO.P,U2,20,VCC*%
%TO.N,+3.3V*%
X96650000Y-87205000D03*
%TD*%
%TO.P,R8,1*%
%TO.N,GND*%
X79275000Y-132825000D03*
D13*
%TO.P,R8,2*%
%TO.N,BT_FD1*%
X79275000Y-140445000D03*
%TD*%
D12*
%TO.P,R4,1*%
%TO.N,LEDFD0*%
X83700000Y-95325000D03*
D13*
%TO.P,R4,2*%
%TO.N,LED0R*%
X83700000Y-85165000D03*
%TD*%
D12*
%TO.P,R3,1*%
%TO.N,LED_F0_Red*%
X80200000Y-95325000D03*
D13*
%TO.P,R3,2*%
%TO.N,Net-(J7-Pin_2)*%
X80200000Y-85165000D03*
%TD*%
D12*
%TO.P,R9,1*%
%TO.N,5vtoPico*%
X142425000Y-99360000D03*
D13*
%TO.P,R9,2*%
%TO.N,~{RDATA}*%
X142425000Y-91740000D03*
%TD*%
D22*
%TO.P,J1,1,Pin_1*%
%TO.N,GND*%
X130685000Y-132385000D03*
D23*
%TO.P,J1,2,Pin_2*%
%TO.N,~{DENSITY}*%
X130685000Y-134925000D03*
%TO.P,J1,3,Pin_3*%
%TO.N,unconnected-(J1-Pin_3-Pad3)*%
X128145000Y-132385000D03*
%TO.P,J1,4,Pin_4*%
%TO.N,unconnected-(J1-Pin_4-Pad4)*%
X128145000Y-134925000D03*
%TO.P,J1,5,Pin_5*%
%TO.N,GND*%
X125605000Y-132385000D03*
%TO.P,J1,6,Pin_6*%
%TO.N,~{DS3}*%
X125605000Y-134925000D03*
%TO.P,J1,7,Pin_7*%
%TO.N,GND*%
X123065000Y-132385000D03*
%TO.P,J1,8,Pin_8*%
%TO.N,~{INDEX}*%
X123065000Y-134925000D03*
%TO.P,J1,9,Pin_9*%
%TO.N,GND*%
X120525000Y-132385000D03*
%TO.P,J1,10,Pin_10*%
%TO.N,~{DS0}*%
X120525000Y-134925000D03*
%TO.P,J1,11,Pin_11*%
%TO.N,GND*%
X117985000Y-132385000D03*
%TO.P,J1,12,Pin_12*%
%TO.N,~{DS1}*%
X117985000Y-134925000D03*
%TO.P,J1,13,Pin_13*%
%TO.N,GND*%
X115445000Y-132385000D03*
%TO.P,J1,14,Pin_14*%
%TO.N,~{DS2}*%
X115445000Y-134925000D03*
%TO.P,J1,15,Pin_15*%
%TO.N,GND*%
X112905000Y-132385000D03*
%TO.P,J1,16,Pin_16*%
%TO.N,~{MOTOR}*%
X112905000Y-134925000D03*
%TO.P,J1,17,Pin_17*%
%TO.N,GND*%
X110365000Y-132385000D03*
%TO.P,J1,18,Pin_18*%
%TO.N,~{DIR}*%
X110365000Y-134925000D03*
%TO.P,J1,19,Pin_19*%
%TO.N,GND*%
X107825000Y-132385000D03*
%TO.P,J1,20,Pin_20*%
%TO.N,~{STEP}*%
X107825000Y-134925000D03*
%TO.P,J1,21,Pin_21*%
%TO.N,GND*%
X105285000Y-132385000D03*
%TO.P,J1,22,Pin_22*%
%TO.N,~{WDATA}*%
X105285000Y-134925000D03*
%TO.P,J1,23,Pin_23*%
%TO.N,GND*%
X102745000Y-132385000D03*
%TO.P,J1,24,Pin_24*%
%TO.N,~{WGATE}*%
X102745000Y-134925000D03*
%TO.P,J1,25,Pin_25*%
%TO.N,GND*%
X100205000Y-132385000D03*
%TO.P,J1,26,Pin_26*%
%TO.N,~{TRK0}*%
X100205000Y-134925000D03*
%TO.P,J1,27,Pin_27*%
%TO.N,GND*%
X97665000Y-132385000D03*
%TO.P,J1,28,Pin_28*%
%TO.N,~{WPROT}*%
X97665000Y-134925000D03*
%TO.P,J1,29,Pin_29*%
%TO.N,GND*%
X95125000Y-132385000D03*
%TO.P,J1,30,Pin_30*%
%TO.N,~{RDATA}*%
X95125000Y-134925000D03*
%TO.P,J1,31,Pin_31*%
%TO.N,GND*%
X92585000Y-132385000D03*
%TO.P,J1,32,Pin_32*%
%TO.N,~{SIDE}*%
X92585000Y-134925000D03*
%TO.P,J1,33,Pin_33*%
%TO.N,GND*%
X90045000Y-132385000D03*
%TO.P,J1,34,Pin_34*%
%TO.N,~{RDY}*%
X90045000Y-134925000D03*
%TD*%
D14*
%TO.P,RP1,1,G0*%
%TO.N,~{DENSITY}*%
X89960000Y-122880000D03*
D12*
%TO.P,RP1,2,G1*%
%TO.N,~{DS3}*%
X92500000Y-122880000D03*
D15*
%TO.P,RP1,3,GND*%
%TO.N,GND*%
X95040000Y-122880000D03*
D12*
%TO.P,RP1,4,G2*%
%TO.N,~{INDEX3v3}*%
X97580000Y-122880000D03*
%TO.P,RP1,5,G3*%
%TO.N,~{DS0}*%
X100120000Y-122880000D03*
%TO.P,RP1,6,G4*%
%TO.N,~{DS1}*%
X102660000Y-122880000D03*
%TO.P,RP1,7,G5*%
%TO.N,~{DS2}*%
X105200000Y-122880000D03*
D15*
%TO.P,RP1,8,GND*%
%TO.N,GND*%
X107740000Y-122880000D03*
D12*
%TO.P,RP1,9,G6*%
%TO.N,~{MOTOR}*%
X110280000Y-122880000D03*
%TO.P,RP1,10,G7*%
%TO.N,~{DIR}*%
X112820000Y-122880000D03*
%TO.P,RP1,11,G8*%
%TO.N,~{STEP}*%
X115360000Y-122880000D03*
%TO.P,RP1,12,G9*%
%TO.N,~{WDATA}*%
X117900000Y-122880000D03*
D15*
%TO.P,RP1,13,GND*%
%TO.N,GND*%
X120440000Y-122880000D03*
D12*
%TO.P,RP1,14,G10*%
%TO.N,~{WGATE}*%
X122980000Y-122880000D03*
%TO.P,RP1,15,G11*%
%TO.N,~{TRK03v3}*%
X125520000Y-122880000D03*
%TO.P,RP1,16,G12*%
%TO.N,~{WPROT3v3}*%
X128060000Y-122880000D03*
%TO.P,RP1,17,G13*%
%TO.N,~{RDATA3v3}*%
X130600000Y-122880000D03*
D15*
%TO.P,RP1,18,GND*%
%TO.N,GND*%
X133140000Y-122880000D03*
D12*
%TO.P,RP1,19,G14*%
%TO.N,~{SIDE}*%
X135680000Y-122880000D03*
%TO.P,RP1,20,G15*%
%TO.N,~{RDY3v3}*%
X138220000Y-122880000D03*
%TO.P,RP1,21,G16*%
%TO.N,MISO*%
X138220000Y-105100000D03*
%TO.P,RP1,22,G17*%
%TO.N,CS*%
X135680000Y-105100000D03*
D15*
%TO.P,RP1,23,GND*%
%TO.N,GND*%
X133140000Y-105100000D03*
D12*
%TO.P,RP1,24,G18*%
%TO.N,SCK*%
X130600000Y-105100000D03*
%TO.P,RP1,25,G19*%
%TO.N,MOSI*%
X128060000Y-105100000D03*
%TO.P,RP1,26,G20*%
%TO.N,Buzzer*%
X125520000Y-105100000D03*
%TO.P,RP1,27,G21*%
%TO.N,FD0_En*%
X122980000Y-105100000D03*
D15*
%TO.P,RP1,28,GND*%
%TO.N,GND*%
X120440000Y-105100000D03*
D12*
%TO.P,RP1,29,G22*%
%TO.N,FD1_En*%
X117900000Y-105100000D03*
%TO.P,RP1,30,RUN*%
%TO.N,unconnected-(RP1-RUN-Pad30)_1*%
X115360000Y-105100000D03*
%TO.P,RP1,31,G26*%
%TO.N,Int{slash}Ext*%
X112820000Y-105100000D03*
%TO.P,RP1,32,G27*%
%TO.N,LVC245_EN*%
X110280000Y-105100000D03*
D15*
%TO.P,RP1,33,A_GND*%
%TO.N,GND*%
X107740000Y-105100000D03*
D12*
%TO.P,RP1,34,G28*%
%TO.N,unconnected-(RP1-G28-Pad34)*%
X105200000Y-105100000D03*
%TO.P,RP1,35,ADC_VREF*%
%TO.N,unconnected-(RP1-ADC_VREF-Pad35)*%
X102660000Y-105100000D03*
%TO.P,RP1,36,3v3*%
%TO.N,+3.3V*%
X100120000Y-105100000D03*
%TO.P,RP1,37,3v3_EN*%
%TO.N,unconnected-(RP1-3v3_EN-Pad37)_1*%
X97580000Y-105100000D03*
D15*
%TO.P,RP1,38,GND*%
%TO.N,GND*%
X95040000Y-105100000D03*
D12*
%TO.P,RP1,39,VSYS*%
%TO.N,5vtoPico*%
X92500000Y-105100000D03*
%TO.P,RP1,40,VBUS_5V*%
%TO.N,unconnected-(RP1-VBUS_5V-Pad40)_1*%
X89960000Y-105100000D03*
D16*
%TO.P,RP1,41*%
%TO.N,N/C*%
X119790000Y-113405800D03*
D17*
%TO.P,RP1,42*%
X119790000Y-110865800D03*
%TO.P,RP1,43*%
X119790000Y-108325800D03*
%TD*%
D12*
%TO.P,R10,1*%
%TO.N,5vtoPico*%
X147050000Y-99185000D03*
D13*
%TO.P,R10,2*%
%TO.N,~{WDATA}*%
X147050000Y-91565000D03*
%TD*%
D12*
%TO.P,R11,1*%
%TO.N,5vtoPico*%
X151500000Y-99360000D03*
D13*
%TO.P,R11,2*%
%TO.N,~{INDEX}*%
X151500000Y-91740000D03*
%TD*%
D19*
%TO.P,J13,1,Pin_1*%
%TO.N,GND*%
X80375000Y-46770000D03*
D20*
%TO.P,J13,2,Pin_2*%
%TO.N,Int{slash}Ext*%
X80375000Y-49310000D03*
%TO.P,J13,3,Pin_3*%
%TO.N,+3.3V*%
X80375000Y-51850000D03*
%TD*%
D24*
%TO.P,D3,1,K*%
%TO.N,GND*%
X77785000Y-128750000D03*
D25*
%TO.P,D3,2,A*%
%TO.N,LED1R*%
X80325000Y-128750000D03*
%TD*%
D26*
%TO.P,D1,1,K*%
%TO.N,5vtoPico*%
X147300000Y-118200000D03*
D27*
%TO.P,D1,2,A*%
%TO.N,+5V*%
X147300000Y-105500000D03*
%TD*%
D28*
%TO.P,J2,1,Pin_1*%
%TO.N,~{OPT0}*%
X92220000Y-53715000D03*
D23*
%TO.P,J2,2,Pin_2*%
%TO.N,~{DENSITY}*%
X92220000Y-51175000D03*
%TO.P,J2,3,Pin_3*%
%TO.N,~{OPT1}*%
X94760000Y-53715000D03*
%TO.P,J2,4,Pin_4*%
%TO.N,unconnected-(J2-Pin_4-Pad4)*%
X94760000Y-51175000D03*
%TO.P,J2,5,Pin_5*%
%TO.N,~{OPT2}*%
X97300000Y-53715000D03*
%TO.P,J2,6,Pin_6*%
%TO.N,~{DS3}*%
X97300000Y-51175000D03*
%TO.P,J2,7,Pin_7*%
%TO.N,~{OPT3}*%
X99840000Y-53715000D03*
%TO.P,J2,8,Pin_8*%
%TO.N,~{INDEX}*%
X99840000Y-51175000D03*
%TO.P,J2,9,Pin_9*%
%TO.N,~{EJECT}*%
X102380000Y-53715000D03*
%TO.P,J2,10,Pin_10*%
%TO.N,~{DS0}*%
X102380000Y-51175000D03*
%TO.P,J2,11,Pin_11*%
%TO.N,~{EjectMSK}*%
X104920000Y-53715000D03*
%TO.P,J2,12,Pin_12*%
%TO.N,~{DS1}*%
X104920000Y-51175000D03*
%TO.P,J2,13,Pin_13*%
%TO.N,~{LED_BLINK}*%
X107460000Y-53715000D03*
%TO.P,J2,14,Pin_14*%
%TO.N,~{DS2}*%
X107460000Y-51175000D03*
%TO.P,J2,15,Pin_15*%
%TO.N,~{INSERTED}*%
X110000000Y-53715000D03*
%TO.P,J2,16,Pin_16*%
%TO.N,~{MOTOR}*%
X110000000Y-51175000D03*
%TO.P,J2,17,Pin_17*%
%TO.N,~{ERROR}*%
X112540000Y-53715000D03*
%TO.P,J2,18,Pin_18*%
%TO.N,~{DIR}*%
X112540000Y-51175000D03*
%TO.P,J2,19,Pin_19*%
%TO.N,~{FDDINT}*%
X115080000Y-53715000D03*
%TO.P,J2,20,Pin_20*%
%TO.N,~{STEP}*%
X115080000Y-51175000D03*
%TO.P,J2,21,Pin_21*%
%TO.N,GND*%
X117620000Y-53715000D03*
%TO.P,J2,22,Pin_22*%
%TO.N,~{WDATA}*%
X117620000Y-51175000D03*
%TO.P,J2,23,Pin_23*%
%TO.N,GND*%
X120160000Y-53715000D03*
%TO.P,J2,24,Pin_24*%
%TO.N,~{WGATE}*%
X120160000Y-51175000D03*
%TO.P,J2,25,Pin_25*%
%TO.N,GND*%
X122700000Y-53715000D03*
%TO.P,J2,26,Pin_26*%
%TO.N,~{TRK0}*%
X122700000Y-51175000D03*
%TO.P,J2,27,Pin_27*%
%TO.N,GND*%
X125240000Y-53715000D03*
%TO.P,J2,28,Pin_28*%
%TO.N,~{WPROT}*%
X125240000Y-51175000D03*
%TO.P,J2,29,Pin_29*%
%TO.N,GND*%
X127780000Y-53715000D03*
%TO.P,J2,30,Pin_30*%
%TO.N,~{RDATA}*%
X127780000Y-51175000D03*
%TO.P,J2,31,Pin_31*%
%TO.N,GND*%
X130320000Y-53715000D03*
%TO.P,J2,32,Pin_32*%
%TO.N,~{SIDE}*%
X130320000Y-51175000D03*
%TO.P,J2,33,Pin_33*%
%TO.N,GND*%
X132860000Y-53715000D03*
%TO.P,J2,34,Pin_34*%
%TO.N,~{RDY}*%
X132860000Y-51175000D03*
%TD*%
D29*
%TO.P,SW1,*%
%TO.N,*%
X74175000Y-121250000D03*
X74175000Y-114240000D03*
D30*
%TO.P,SW1,1,1*%
%TO.N,+3.3V*%
X71685000Y-120000000D03*
%TO.P,SW1,2,2*%
%TO.N,BT_FD0*%
X71685000Y-115500000D03*
%TD*%
D10*
%TO.P,J8,1,Pin_1*%
%TO.N,LED1R*%
X72900000Y-105110000D03*
D11*
%TO.P,J8,2,Pin_2*%
%TO.N,Net-(J8-Pin_2)*%
X72900000Y-103110000D03*
%TO.P,J8,3,Pin_3*%
%TO.N,GND*%
X72900000Y-101110000D03*
%TD*%
D31*
%TO.P,BZ1,1,+*%
%TO.N,Buzzer*%
X126275000Y-93975000D03*
D32*
%TO.P,BZ1,2,-*%
%TO.N,GND*%
X133875000Y-93975000D03*
%TD*%
D29*
%TO.P,SW2,*%
%TO.N,*%
X74175000Y-133135000D03*
X74175000Y-126125000D03*
D30*
%TO.P,SW2,1,1*%
%TO.N,+3.3V*%
X71685000Y-131885000D03*
%TO.P,SW2,2,2*%
%TO.N,BT_FD1*%
X71685000Y-127385000D03*
%TD*%
D18*
%TO.P,J3,1,Pin_1*%
%TO.N,5vtoPico*%
X150000000Y-52875000D03*
D11*
%TO.P,J3,2,Pin_2*%
%TO.N,BT_FD0*%
X150000000Y-54875000D03*
%TO.P,J3,3,Pin_3*%
%TO.N,Net-(J3-Pin_3)*%
X150000000Y-56875000D03*
%TO.P,J3,4,Pin_4*%
%TO.N,GND*%
X150000000Y-58875000D03*
%TD*%
D24*
%TO.P,D2,1,K*%
%TO.N,GND*%
X77860000Y-118150000D03*
D25*
%TO.P,D2,2,A*%
%TO.N,LED0R*%
X80400000Y-118150000D03*
%TD*%
D12*
%TO.P,R6,1*%
%TO.N,BT__LED_FD1*%
X90875000Y-95325000D03*
D13*
%TO.P,R6,2*%
%TO.N,Net-(J4-Pin_3)*%
X90875000Y-85165000D03*
%TD*%
D33*
%TO.N,~{RDATA3v3}*%
X130600000Y-110878800D03*
%TO.N,~{TRK03v3}*%
X125310100Y-109942300D03*
%TO.N,~{RDY3v3}*%
X138220000Y-113103500D03*
%TO.N,~{WPROT3v3}*%
X126790000Y-100449100D03*
%TO.N,+3.3V*%
X142238500Y-114994200D03*
%TO.N,BT__LED_FD1*%
X126649400Y-89703700D03*
%TO.N,BT__LED_FD0*%
X90757700Y-54645600D03*
%TO.N,Net-(J3-Pin_3)*%
X88886600Y-58221600D03*
%TO.N,LEDFD1*%
X130155600Y-71992200D03*
%TO.N,BT_FD1*%
X84844700Y-71353600D03*
%TO.N,BT_FD0*%
X136950000Y-90143700D03*
%TO.N,~{ERROR}*%
X117612300Y-72718900D03*
X127118500Y-72840800D03*
X126075400Y-55815200D03*
%TO.N,~{EjectMSK}*%
X106383000Y-73481600D03*
%TO.N,~{OPT0}*%
X86721400Y-77392700D03*
%TO.N,~{RDY}*%
X131783000Y-86078300D03*
X109150000Y-136134100D03*
%TO.N,~{WPROT}*%
X134325200Y-52538300D03*
X134325200Y-89417000D03*
X106658800Y-89960000D03*
%TO.N,~{TRK0}*%
X98001700Y-90586400D03*
X84232400Y-49497600D03*
X81380400Y-89405700D03*
%TO.N,~{WGATE}*%
X104466700Y-127226100D03*
%TO.N,~{WDATA}*%
X119169700Y-98293000D03*
X106337200Y-125381400D03*
X147050000Y-49954200D03*
%TO.N,~{STEP}*%
X114736600Y-76088300D03*
X116606600Y-81754100D03*
%TO.N,~{DIR}*%
X113120600Y-120004100D03*
X140852900Y-109694800D03*
X139540800Y-56705600D03*
X112210000Y-57099000D03*
%TO.N,~{MOTOR}*%
X124337800Y-55075400D03*
X121670500Y-136668600D03*
X124366200Y-125326900D03*
%TO.N,~{DS2}*%
X85813100Y-52527900D03*
X85493700Y-116859700D03*
X105200000Y-116859700D03*
X85493700Y-136599000D03*
X113624900Y-136836100D03*
%TO.N,~{DS1}*%
X116737100Y-126133800D03*
X137340000Y-56280400D03*
X139387900Y-99711800D03*
X116737100Y-99711800D03*
%TO.N,~{DS0}*%
X83475200Y-50185200D03*
X81326700Y-115534300D03*
X100120000Y-120955900D03*
%TO.N,~{INDEX}*%
X149972600Y-121612700D03*
X110475200Y-86254100D03*
%TO.N,~{DS3}*%
X93855100Y-133655000D03*
%TO.N,~{DENSITY}*%
X91263000Y-137562800D03*
%TO.N,GND*%
X139834500Y-132606800D03*
X77805600Y-132742200D03*
X94962600Y-57955300D03*
X95040000Y-84028400D03*
X150000000Y-81815000D03*
X79400000Y-101110000D03*
X130685000Y-126184100D03*
X133140000Y-126184100D03*
X122750000Y-66017500D03*
X107740000Y-57955300D03*
X153079000Y-73446000D03*
X107740000Y-83916700D03*
X81837200Y-46770000D03*
X82292900Y-51651600D03*
%TD*%
D34*
%TO.N,~{RDATA3v3}*%
X114016300Y-102031300D02*
X106810000Y-94825000D01*
X119319600Y-102031300D02*
X114016300Y-102031300D01*
X121797000Y-104508700D02*
X119319600Y-102031300D01*
X121797000Y-105526100D02*
X121797000Y-104508700D01*
X125486500Y-109215600D02*
X121797000Y-105526100D01*
X128936800Y-109215600D02*
X125486500Y-109215600D01*
X130600000Y-110878800D02*
X128936800Y-109215600D01*
%TO.N,~{TRK03v3}*%
X123300900Y-109942300D02*
X125310100Y-109942300D01*
X119263700Y-105905100D02*
X123300900Y-109942300D01*
X119263700Y-104847000D02*
X119263700Y-105905100D01*
X118080300Y-103663600D02*
X119263700Y-104847000D01*
X110568600Y-103663600D02*
X118080300Y-103663600D01*
X101730000Y-94825000D02*
X110568600Y-103663600D01*
%TO.N,~{RDY3v3}*%
X134394600Y-113103500D02*
X138220000Y-113103500D01*
X126790100Y-105499000D02*
X134394600Y-113103500D01*
X126790100Y-104772000D02*
X126790100Y-105499000D01*
X123468300Y-101450200D02*
X126790100Y-104772000D01*
X115975200Y-101450200D02*
X123468300Y-101450200D01*
X109350000Y-94825000D02*
X115975200Y-101450200D01*
%TO.N,~{WPROT3v3}*%
X115872600Y-100449100D02*
X126790000Y-100449100D01*
X110763300Y-95339800D02*
X115872600Y-100449100D01*
X110763300Y-94600200D02*
X110763300Y-95339800D01*
X109830000Y-93666900D02*
X110763300Y-94600200D01*
X105428100Y-93666900D02*
X109830000Y-93666900D01*
X104270000Y-94825000D02*
X105428100Y-93666900D01*
%TO.N,LVC245_EN*%
X109006400Y-103826400D02*
X110280000Y-105100000D01*
X105651400Y-103826400D02*
X109006400Y-103826400D01*
X96650000Y-94825000D02*
X105651400Y-103826400D01*
%TO.N,Int{slash}Ext*%
X80375000Y-49310000D02*
X81551700Y-49310000D01*
X112181200Y-61100000D02*
X112820000Y-61100000D01*
X106510600Y-55429400D02*
X112181200Y-61100000D01*
X87671100Y-55429400D02*
X106510600Y-55429400D01*
X81551700Y-49310000D02*
X87671100Y-55429400D01*
%TO.N,5vtoPico*%
X147050000Y-99272500D02*
X147050000Y-99185000D01*
X147137500Y-99360000D02*
X147050000Y-99272500D01*
X151500000Y-99360000D02*
X147137500Y-99360000D01*
X142512500Y-99272500D02*
X142425000Y-99360000D01*
X147050000Y-99272500D02*
X142512500Y-99272500D01*
X99421000Y-68021000D02*
X92500000Y-61100000D01*
X148129000Y-68021000D02*
X99421000Y-68021000D01*
X150000000Y-66150000D02*
X148129000Y-68021000D01*
%TO.N,+3.3V*%
X91230000Y-113990000D02*
X100120000Y-105100000D01*
X77695000Y-113990000D02*
X91230000Y-113990000D01*
X71685000Y-120000000D02*
X77695000Y-113990000D01*
X80375000Y-51850000D02*
X81551700Y-51850000D01*
X110014200Y-114994200D02*
X100120000Y-105100000D01*
X142238500Y-114994200D02*
X110014200Y-114994200D01*
X98768400Y-59748400D02*
X100120000Y-61100000D01*
X89362100Y-59748400D02*
X98768400Y-59748400D01*
X81551700Y-51938000D02*
X89362100Y-59748400D01*
X81551700Y-51850000D02*
X81551700Y-51938000D01*
%TO.N,Net-(J7-Pin_2)*%
X73490400Y-91308300D02*
X72900000Y-91308300D01*
X79073300Y-85725400D02*
X73490400Y-91308300D01*
X79073300Y-85165000D02*
X79073300Y-85725400D01*
X80200000Y-85165000D02*
X79073300Y-85165000D01*
X72900000Y-92235000D02*
X72900000Y-91308300D01*
%TO.N,LED0R*%
X73503300Y-94235000D02*
X72900000Y-94235000D01*
X82573300Y-85165000D02*
X73503300Y-94235000D01*
X83700000Y-85165000D02*
X82573300Y-85165000D01*
%TO.N,BT__LED_FD1*%
X124136500Y-92216600D02*
X126649400Y-89703700D01*
X93983400Y-92216600D02*
X124136500Y-92216600D01*
X90875000Y-95325000D02*
X93983400Y-92216600D01*
%TO.N,Net-(J4-Pin_3)*%
X90875000Y-85165000D02*
X92001700Y-85165000D01*
X150000000Y-70150000D02*
X150000000Y-71076700D01*
X149073300Y-71076700D02*
X150000000Y-71076700D01*
X147391900Y-72758100D02*
X149073300Y-71076700D01*
X129978200Y-72758100D02*
X147391900Y-72758100D01*
X124250100Y-78486200D02*
X129978200Y-72758100D01*
X124250100Y-79271000D02*
X124250100Y-78486200D01*
X121018800Y-82502300D02*
X124250100Y-79271000D01*
X94664400Y-82502300D02*
X121018800Y-82502300D01*
X92001700Y-85165000D02*
X94664400Y-82502300D01*
%TO.N,BT__LED_FD0*%
X91089800Y-54977700D02*
X90757700Y-54645600D01*
X106697800Y-54977700D02*
X91089800Y-54977700D01*
X111692600Y-59972500D02*
X106697800Y-54977700D01*
X126932500Y-59972500D02*
X111692600Y-59972500D01*
X128060000Y-61100000D02*
X126932500Y-59972500D01*
%TO.N,Net-(J3-Pin_3)*%
X150000000Y-56875000D02*
X148798300Y-56875000D01*
X148214500Y-57458800D02*
X148798300Y-56875000D01*
X134833000Y-57458800D02*
X148214500Y-57458800D01*
X131783000Y-60508800D02*
X134833000Y-57458800D01*
X131783000Y-61530400D02*
X131783000Y-60508800D01*
X130555900Y-62757500D02*
X131783000Y-61530400D01*
X105191400Y-62757500D02*
X130555900Y-62757500D01*
X103930000Y-61496100D02*
X105191400Y-62757500D01*
X103930000Y-60735500D02*
X103930000Y-61496100D01*
X102197600Y-59003100D02*
X103930000Y-60735500D01*
X89668100Y-59003100D02*
X102197600Y-59003100D01*
X88886600Y-58221600D02*
X89668100Y-59003100D01*
%TO.N,LED_F1_Red*%
X85634900Y-81775000D02*
X80125000Y-81775000D01*
X90197300Y-86337400D02*
X85634900Y-81775000D01*
X91502600Y-86337400D02*
X90197300Y-86337400D01*
X94688100Y-83151900D02*
X91502600Y-86337400D01*
X122889600Y-83151900D02*
X94688100Y-83151900D01*
X126646700Y-79394800D02*
X122889600Y-83151900D01*
X126646700Y-78654000D02*
X126646700Y-79394800D01*
X128040100Y-77260600D02*
X126646700Y-78654000D01*
X136600600Y-77260600D02*
X128040100Y-77260600D01*
X138220000Y-78880000D02*
X136600600Y-77260600D01*
%TO.N,LED_F0_Red*%
X81351000Y-96476000D02*
X80200000Y-95325000D01*
X88127800Y-96476000D02*
X81351000Y-96476000D01*
X92838900Y-91764900D02*
X88127800Y-96476000D01*
X103826300Y-91764900D02*
X92838900Y-91764900D01*
X106357900Y-89233300D02*
X103826300Y-91764900D01*
X106377900Y-89233300D02*
X106357900Y-89233300D01*
X108080000Y-87531200D02*
X106377900Y-89233300D01*
X108080000Y-86805500D02*
X108080000Y-87531200D01*
X109358100Y-85527400D02*
X108080000Y-86805500D01*
X123066400Y-85527400D02*
X109358100Y-85527400D01*
X129330100Y-79263700D02*
X123066400Y-85527400D01*
X129330100Y-78481000D02*
X129330100Y-79263700D01*
X130085200Y-77725900D02*
X129330100Y-78481000D01*
X134525900Y-77725900D02*
X130085200Y-77725900D01*
X135680000Y-78880000D02*
X134525900Y-77725900D01*
%TO.N,~{LED_BLINK}*%
X127819800Y-58319800D02*
X130600000Y-61100000D01*
X112064800Y-58319800D02*
X127819800Y-58319800D01*
X107460000Y-53715000D02*
X112064800Y-58319800D01*
%TO.N,LEDFD1*%
X117311400Y-71992200D02*
X130155600Y-71992200D01*
X117220800Y-72082800D02*
X117311400Y-71992200D01*
X83602800Y-72082800D02*
X117220800Y-72082800D01*
X80075000Y-68555000D02*
X83602800Y-72082800D01*
%TO.N,LEDFD0*%
X87711800Y-91313200D02*
X83700000Y-95325000D01*
X101794700Y-91313200D02*
X87711800Y-91313200D01*
X105540000Y-87567900D02*
X101794700Y-91313200D01*
X105540000Y-86805700D02*
X105540000Y-87567900D01*
X107339400Y-85006300D02*
X105540000Y-86805700D01*
X121933700Y-85006300D02*
X107339400Y-85006300D01*
X128060000Y-78880000D02*
X121933700Y-85006300D01*
%TO.N,BT_FD1*%
X136820700Y-62240700D02*
X135680000Y-61100000D01*
X147932300Y-62240700D02*
X136820700Y-62240700D01*
X151246500Y-65554900D02*
X147932300Y-62240700D01*
X151246500Y-66787700D02*
X151246500Y-65554900D01*
X150810900Y-67223300D02*
X151246500Y-66787700D01*
X150000000Y-67223300D02*
X150810900Y-67223300D01*
X150000000Y-68150000D02*
X150000000Y-67223300D01*
X150000000Y-68150000D02*
X150000000Y-69076700D01*
X120855200Y-71353600D02*
X84844700Y-71353600D01*
X123132100Y-69076700D02*
X120855200Y-71353600D01*
X150000000Y-69076700D02*
X123132100Y-69076700D01*
%TO.N,BT_FD0*%
X74980200Y-115678100D02*
X78273300Y-112385000D01*
X71863100Y-115678100D02*
X74980200Y-115678100D01*
X71685000Y-115500000D02*
X71863100Y-115678100D01*
X150000000Y-54875000D02*
X150000000Y-55801700D01*
X149429100Y-61100000D02*
X138220000Y-61100000D01*
X151252200Y-59276900D02*
X149429100Y-61100000D01*
X151252200Y-56474700D02*
X151252200Y-59276900D01*
X150579200Y-55801700D02*
X151252200Y-56474700D01*
X150000000Y-55801700D02*
X150579200Y-55801700D01*
X79400000Y-112385000D02*
X78836700Y-112385000D01*
X78836700Y-112385000D02*
X78273300Y-112385000D01*
X127644200Y-90143700D02*
X136950000Y-90143700D01*
X125083600Y-92704300D02*
X127644200Y-90143700D01*
X95271100Y-92704300D02*
X125083600Y-92704300D01*
X90152400Y-97823000D02*
X95271100Y-92704300D01*
X84709000Y-97823000D02*
X90152400Y-97823000D01*
X78270600Y-104261400D02*
X84709000Y-97823000D01*
X78270600Y-111818900D02*
X78270600Y-104261400D01*
X78836700Y-112385000D02*
X78270600Y-111818900D01*
%TO.N,~{ERROR}*%
X114640200Y-55815200D02*
X126075400Y-55815200D01*
X112540000Y-53715000D02*
X114640200Y-55815200D01*
X126996600Y-72718900D02*
X127118500Y-72840800D01*
X117612300Y-72718900D02*
X126996600Y-72718900D01*
%TO.N,~{EjectMSK}*%
X117741300Y-73481600D02*
X106383000Y-73481600D01*
X122980000Y-78720300D02*
X117741300Y-73481600D01*
X122980000Y-78880000D02*
X122980000Y-78720300D01*
%TO.N,~{OPT0}*%
X96092700Y-77392700D02*
X97580000Y-78880000D01*
X86721400Y-77392700D02*
X96092700Y-77392700D01*
%TO.N,~{RDY}*%
X113016700Y-86078300D02*
X131783000Y-86078300D01*
X111890000Y-87205000D02*
X113016700Y-86078300D01*
X91254100Y-136134100D02*
X90045000Y-134925000D01*
X109150000Y-136134100D02*
X91254100Y-136134100D01*
%TO.N,~{SIDE}*%
X91389200Y-133729200D02*
X92585000Y-134925000D01*
X84545300Y-133729200D02*
X91389200Y-133729200D01*
X84322800Y-133951700D02*
X84545300Y-133729200D01*
X77986200Y-133951700D02*
X84322800Y-133951700D01*
X77058400Y-133023900D02*
X77986200Y-133951700D01*
X77058400Y-132448300D02*
X77058400Y-133023900D01*
X77923500Y-131583200D02*
X77058400Y-132448300D01*
X81317500Y-131583200D02*
X77923500Y-131583200D01*
X82925500Y-129975200D02*
X81317500Y-131583200D01*
X92120200Y-129975200D02*
X82925500Y-129975200D01*
X98850000Y-123245400D02*
X92120200Y-129975200D01*
X98850000Y-122484900D02*
X98850000Y-123245400D01*
X99583100Y-121751800D02*
X98850000Y-122484900D01*
X110769400Y-121751800D02*
X99583100Y-121751800D01*
X111221100Y-121300100D02*
X110769400Y-121751800D01*
X134100100Y-121300100D02*
X111221100Y-121300100D01*
X135680000Y-122880000D02*
X134100100Y-121300100D01*
%TO.N,~{RDATA}*%
X142425000Y-91740000D02*
X141298300Y-91740000D01*
X110930400Y-88785400D02*
X109350000Y-87205000D01*
X125510400Y-88785400D02*
X110930400Y-88785400D01*
X125962100Y-88333700D02*
X125510400Y-88785400D01*
X133910500Y-88333700D02*
X125962100Y-88333700D01*
X134267100Y-88690300D02*
X133910500Y-88333700D01*
X138248600Y-88690300D02*
X134267100Y-88690300D01*
X141298300Y-91740000D02*
X138248600Y-88690300D01*
%TO.N,~{WPROT}*%
X126603300Y-52538300D02*
X125240000Y-51175000D01*
X134325200Y-52538300D02*
X126603300Y-52538300D01*
X133862400Y-88954200D02*
X134325200Y-89417000D01*
X126205600Y-88954200D02*
X133862400Y-88954200D01*
X125199800Y-89960000D02*
X126205600Y-88954200D01*
X106658800Y-89960000D02*
X125199800Y-89960000D01*
%TO.N,~{TRK0}*%
X100888600Y-90586400D02*
X98001700Y-90586400D01*
X104270000Y-87205000D02*
X100888600Y-90586400D01*
X96821000Y-89405700D02*
X81380400Y-89405700D01*
X98001700Y-90586400D02*
X96821000Y-89405700D01*
X121022600Y-49497600D02*
X84232400Y-49497600D01*
X122700000Y-51175000D02*
X121022600Y-49497600D01*
%TO.N,~{WGATE}*%
X118633900Y-127226100D02*
X122980000Y-122880000D01*
X104466700Y-127226100D02*
X118633900Y-127226100D01*
%TO.N,~{WDATA}*%
X147050000Y-91565000D02*
X145923300Y-91565000D01*
X115398600Y-125381400D02*
X117900000Y-122880000D01*
X106337200Y-125381400D02*
X115398600Y-125381400D01*
X124786100Y-49954200D02*
X147050000Y-49954200D01*
X123970000Y-50770300D02*
X124786100Y-49954200D01*
X123970000Y-51659000D02*
X123970000Y-50770300D01*
X123184000Y-52445000D02*
X123970000Y-51659000D01*
X118890000Y-52445000D02*
X123184000Y-52445000D01*
X117620000Y-51175000D02*
X118890000Y-52445000D01*
X139195300Y-98293000D02*
X119169700Y-98293000D01*
X145923300Y-91565000D02*
X139195300Y-98293000D01*
%TO.N,~{STEP}*%
X119699900Y-76088300D02*
X114736600Y-76088300D01*
X121575700Y-77964100D02*
X119699900Y-76088300D01*
X121575700Y-79698800D02*
X121575700Y-77964100D01*
X119520400Y-81754100D02*
X121575700Y-79698800D01*
X116606600Y-81754100D02*
X119520400Y-81754100D01*
%TO.N,~{DIR}*%
X142972500Y-111814400D02*
X140852900Y-109694800D01*
X142972500Y-115306800D02*
X142972500Y-111814400D01*
X138275200Y-120004100D02*
X142972500Y-115306800D01*
X113120600Y-120004100D02*
X138275200Y-120004100D01*
X126503900Y-57099000D02*
X112210000Y-57099000D01*
X126595800Y-57007100D02*
X126503900Y-57099000D01*
X139239300Y-57007100D02*
X126595800Y-57007100D01*
X139540800Y-56705600D02*
X139239300Y-57007100D01*
%TO.N,~{MOTOR}*%
X114648600Y-136668600D02*
X112905000Y-134925000D01*
X121670500Y-136668600D02*
X114648600Y-136668600D01*
X124366200Y-122650600D02*
X124366200Y-125326900D01*
X123467400Y-121751800D02*
X124366200Y-122650600D01*
X112145000Y-121751800D02*
X123467400Y-121751800D01*
X111016800Y-122880000D02*
X112145000Y-121751800D01*
X110280000Y-122880000D02*
X111016800Y-122880000D01*
X117228200Y-55075400D02*
X124337800Y-55075400D01*
X116350000Y-54197200D02*
X117228200Y-55075400D01*
X116350000Y-53306100D02*
X116350000Y-54197200D01*
X115395600Y-52351700D02*
X116350000Y-53306100D01*
X111176700Y-52351700D02*
X115395600Y-52351700D01*
X110000000Y-51175000D02*
X111176700Y-52351700D01*
%TO.N,~{DS2}*%
X106107100Y-52527900D02*
X85813100Y-52527900D01*
X107460000Y-51175000D02*
X106107100Y-52527900D01*
X105200000Y-116859700D02*
X85493700Y-116859700D01*
X106522100Y-136599000D02*
X85493700Y-136599000D01*
X106813700Y-136890600D02*
X106522100Y-136599000D01*
X113570400Y-136890600D02*
X106813700Y-136890600D01*
X113624900Y-136836100D02*
X113570400Y-136890600D01*
%TO.N,~{DS1}*%
X105913800Y-126133800D02*
X116737100Y-126133800D01*
X102660000Y-122880000D02*
X105913800Y-126133800D01*
X116737100Y-99711800D02*
X139387900Y-99711800D01*
X126683700Y-56280400D02*
X137340000Y-56280400D01*
X126316800Y-56647300D02*
X126683700Y-56280400D01*
X113720100Y-56647300D02*
X126316800Y-56647300D01*
X111270000Y-54197200D02*
X113720100Y-56647300D01*
X111270000Y-53306100D02*
X111270000Y-54197200D01*
X110315600Y-52351700D02*
X111270000Y-53306100D01*
X109451800Y-52351700D02*
X110315600Y-52351700D01*
X108730000Y-51629900D02*
X109451800Y-52351700D01*
X108730000Y-50703700D02*
X108730000Y-51629900D01*
X108024600Y-49998300D02*
X108730000Y-50703700D01*
X106096700Y-49998300D02*
X108024600Y-49998300D01*
X104920000Y-51175000D02*
X106096700Y-49998300D01*
%TO.N,~{DS0}*%
X119301400Y-133701400D02*
X120525000Y-134925000D01*
X119301400Y-131962900D02*
X119301400Y-133701400D01*
X115982800Y-128644300D02*
X119301400Y-131962900D01*
X104826900Y-128644300D02*
X115982800Y-128644300D01*
X100120000Y-123937400D02*
X104826900Y-128644300D01*
X100120000Y-122880000D02*
X100120000Y-123937400D01*
X83524400Y-50234400D02*
X83475200Y-50185200D01*
X85021000Y-50234400D02*
X83524400Y-50234400D01*
X85257100Y-49998300D02*
X85021000Y-50234400D01*
X101203300Y-49998300D02*
X85257100Y-49998300D01*
X102380000Y-51175000D02*
X101203300Y-49998300D01*
X86748300Y-120955900D02*
X100120000Y-120955900D01*
X81326700Y-115534300D02*
X86748300Y-120955900D01*
%TO.N,~{INDEX}*%
X146225200Y-125360100D02*
X149972600Y-121612700D01*
X146225200Y-127246300D02*
X146225200Y-125360100D01*
X139815900Y-133655600D02*
X146225200Y-127246300D01*
X124334400Y-133655600D02*
X139815900Y-133655600D01*
X123065000Y-134925000D02*
X124334400Y-133655600D01*
X151500000Y-91740000D02*
X150373300Y-91740000D01*
X110620300Y-86399200D02*
X110475200Y-86254100D01*
X110620300Y-87532700D02*
X110620300Y-86399200D01*
X111419800Y-88332200D02*
X110620300Y-87532700D01*
X125324800Y-88332200D02*
X111419800Y-88332200D01*
X125775000Y-87882000D02*
X125324800Y-88332200D01*
X134097700Y-87882000D02*
X125775000Y-87882000D01*
X134454300Y-88238600D02*
X134097700Y-87882000D01*
X146871900Y-88238600D02*
X134454300Y-88238600D01*
X150373300Y-91740000D02*
X146871900Y-88238600D01*
%TO.N,~{DS3}*%
X113328000Y-133655000D02*
X93855100Y-133655000D01*
X114101600Y-134428600D02*
X113328000Y-133655000D01*
X114101600Y-135275800D02*
X114101600Y-134428600D01*
X114979400Y-136153600D02*
X114101600Y-135275800D01*
X121157900Y-136153600D02*
X114979400Y-136153600D01*
X121369600Y-135941900D02*
X121157900Y-136153600D01*
X121971500Y-135941900D02*
X121369600Y-135941900D01*
X122183200Y-136153600D02*
X121971500Y-135941900D01*
X124376400Y-136153600D02*
X122183200Y-136153600D01*
X125605000Y-134925000D02*
X124376400Y-136153600D01*
%TO.N,~{DENSITY}*%
X128047200Y-137562800D02*
X91263000Y-137562800D01*
X130685000Y-134925000D02*
X128047200Y-137562800D01*
%TO.N,GND*%
X139612700Y-132385000D02*
X139834500Y-132606800D01*
X130685000Y-132385000D02*
X139612700Y-132385000D01*
X125240000Y-53715000D02*
X127780000Y-53715000D01*
X122700000Y-53715000D02*
X125240000Y-53715000D01*
X120160000Y-53715000D02*
X117620000Y-53715000D01*
X77888400Y-132825000D02*
X77805600Y-132742200D01*
X79275000Y-132825000D02*
X77888400Y-132825000D01*
X95125000Y-132385000D02*
X92585000Y-132385000D01*
X97665000Y-132385000D02*
X95125000Y-132385000D01*
X100205000Y-132385000D02*
X97665000Y-132385000D01*
X102745000Y-132385000D02*
X100205000Y-132385000D01*
X105285000Y-132385000D02*
X102745000Y-132385000D01*
X107825000Y-132385000D02*
X105285000Y-132385000D01*
X110365000Y-132385000D02*
X107825000Y-132385000D01*
X112905000Y-132385000D02*
X110365000Y-132385000D01*
X115445000Y-132385000D02*
X112905000Y-132385000D01*
X115445000Y-132385000D02*
X117985000Y-132385000D01*
X123065000Y-132385000D02*
X120525000Y-132385000D01*
X123065000Y-132385000D02*
X125605000Y-132385000D01*
X129460400Y-131160400D02*
X130685000Y-132385000D01*
X126829600Y-131160400D02*
X129460400Y-131160400D01*
X125605000Y-132385000D02*
X126829600Y-131160400D01*
X136075000Y-81815000D02*
X144075000Y-81815000D01*
X133140000Y-78880000D02*
X136075000Y-81815000D01*
X144075000Y-81815000D02*
X150000000Y-81815000D01*
X72900000Y-101110000D02*
X79400000Y-101110000D01*
X132860000Y-53715000D02*
X130320000Y-53715000D01*
X130320000Y-53715000D02*
X127780000Y-53715000D01*
X135365000Y-58875000D02*
X133140000Y-61100000D01*
X150000000Y-58875000D02*
X135365000Y-58875000D01*
X150369300Y-73446000D02*
X150000000Y-73076700D01*
X153079000Y-73446000D02*
X150369300Y-73446000D01*
X150000000Y-72150000D02*
X150000000Y-73076700D01*
X99190000Y-84956500D02*
X99190000Y-87205000D01*
X80191700Y-103973300D02*
X79400000Y-104765000D01*
X93913300Y-103973300D02*
X80191700Y-103973300D01*
X95040000Y-105100000D02*
X93913300Y-103973300D01*
X108889900Y-62249900D02*
X107740000Y-61100000D01*
X119290100Y-62249900D02*
X108889900Y-62249900D01*
X120440000Y-61100000D02*
X119290100Y-62249900D01*
X108866700Y-77753300D02*
X107740000Y-78880000D01*
X118366800Y-77753300D02*
X108866700Y-77753300D01*
X119493400Y-78879900D02*
X118366800Y-77753300D01*
X119493400Y-78880000D02*
X119493400Y-78879900D01*
X120440000Y-78880000D02*
X119493400Y-78880000D01*
X89605000Y-132825000D02*
X90045000Y-132385000D01*
X79275000Y-132825000D02*
X89605000Y-132825000D01*
X90045000Y-132385000D02*
X92585000Y-132385000D01*
X106700200Y-84956500D02*
X107740000Y-83916700D01*
X99190000Y-84956500D02*
X106700200Y-84956500D01*
X98261900Y-84028400D02*
X95040000Y-84028400D01*
X99190000Y-84956500D02*
X98261900Y-84028400D01*
X80375000Y-46770000D02*
X81837200Y-46770000D01*
X107740000Y-57955300D02*
X94962600Y-57955300D01*
X120638300Y-66017500D02*
X122750000Y-66017500D01*
X119790000Y-66865800D02*
X120638300Y-66017500D01*
X87969600Y-57328300D02*
X82292900Y-51651600D01*
X94335600Y-57328300D02*
X87969600Y-57328300D01*
X94962600Y-57955300D02*
X94335600Y-57328300D01*
X133140000Y-126184100D02*
X130685000Y-126184100D01*
%TD*%
M02*
