%TF.GenerationSoftware,KiCad,Pcbnew,9.0.0*%
%TF.CreationDate,2025-03-03T15:33:34+01:00*%
%TF.ProjectId,X68KFDPI2,5836384b-4644-4504-9932-2e6b69636164,rev?*%
%TF.SameCoordinates,Original*%
%TF.FileFunction,Copper,L2,Bot*%
%TF.FilePolarity,Positive*%
%FSLAX46Y46*%
G04 Gerber Fmt 4.6, Leading zero omitted, Abs format (unit mm)*
G04 Created by KiCad (PCBNEW 9.0.0) date 2025-03-03 15:33:34*
%MOMM*%
%LPD*%
G01*
G04 APERTURE LIST*
G04 Aperture macros list*
%AMRoundRect*
0 Rectangle with rounded corners*
0 $1 Rounding radius*
0 $2 $3 $4 $5 $6 $7 $8 $9 X,Y pos of 4 corners*
0 Add a 4 corners polygon primitive as box body*
4,1,4,$2,$3,$4,$5,$6,$7,$8,$9,$2,$3,0*
0 Add four circle primitives for the rounded corners*
1,1,$1+$1,$2,$3*
1,1,$1+$1,$4,$5*
1,1,$1+$1,$6,$7*
1,1,$1+$1,$8,$9*
0 Add four rect primitives between the rounded corners*
20,1,$1+$1,$2,$3,$4,$5,0*
20,1,$1+$1,$4,$5,$6,$7,0*
20,1,$1+$1,$6,$7,$8,$9,0*
20,1,$1+$1,$8,$9,$2,$3,0*%
%AMFreePoly0*
4,1,25,0.335306,0.780194,0.389950,0.741421,0.741421,0.389950,0.788777,0.314585,0.800000,0.248529,0.800000,-0.248529,0.780194,-0.335306,0.741421,-0.389950,0.389950,-0.741421,0.314585,-0.788777,0.248529,-0.800000,-0.248529,-0.800000,-0.335306,-0.780194,-0.389950,-0.741421,-0.741421,-0.389950,-0.788777,-0.314585,-0.800000,-0.248529,-0.800000,0.248529,-0.780194,0.335306,-0.741421,0.389950,
-0.389950,0.741421,-0.314585,0.788777,-0.248529,0.800000,0.248529,0.800000,0.335306,0.780194,0.335306,0.780194,$1*%
G04 Aperture macros list end*
%TA.AperFunction,ComponentPad*%
%ADD10RoundRect,0.250000X0.625000X-0.350000X0.625000X0.350000X-0.625000X0.350000X-0.625000X-0.350000X0*%
%TD*%
%TA.AperFunction,ComponentPad*%
%ADD11O,1.750000X1.200000*%
%TD*%
%TA.AperFunction,ComponentPad*%
%ADD12C,1.600000*%
%TD*%
%TA.AperFunction,ComponentPad*%
%ADD13O,1.600000X1.600000*%
%TD*%
%TA.AperFunction,ComponentPad*%
%ADD14FreePoly0,90.000000*%
%TD*%
%TA.AperFunction,ComponentPad*%
%ADD15RoundRect,0.200000X0.600000X-0.600000X0.600000X0.600000X-0.600000X0.600000X-0.600000X-0.600000X0*%
%TD*%
%TA.AperFunction,ComponentPad*%
%ADD16R,1.574800X1.574800*%
%TD*%
%TA.AperFunction,ComponentPad*%
%ADD17C,1.574800*%
%TD*%
%TA.AperFunction,ComponentPad*%
%ADD18R,1.700000X1.700000*%
%TD*%
%TA.AperFunction,ComponentPad*%
%ADD19O,1.700000X1.700000*%
%TD*%
%TA.AperFunction,ComponentPad*%
%ADD20RoundRect,0.250000X0.550000X-0.550000X0.550000X0.550000X-0.550000X0.550000X-0.550000X-0.550000X0*%
%TD*%
%TA.AperFunction,ComponentPad*%
%ADD21RoundRect,0.250000X-0.600000X0.600000X-0.600000X-0.600000X0.600000X-0.600000X0.600000X0.600000X0*%
%TD*%
%TA.AperFunction,ComponentPad*%
%ADD22C,1.700000*%
%TD*%
%TA.AperFunction,ComponentPad*%
%ADD23R,1.800000X1.800000*%
%TD*%
%TA.AperFunction,ComponentPad*%
%ADD24C,1.800000*%
%TD*%
%TA.AperFunction,ComponentPad*%
%ADD25R,2.400000X2.400000*%
%TD*%
%TA.AperFunction,ComponentPad*%
%ADD26O,2.400000X2.400000*%
%TD*%
%TA.AperFunction,ComponentPad*%
%ADD27RoundRect,0.250000X0.600000X-0.600000X0.600000X0.600000X-0.600000X0.600000X-0.600000X-0.600000X0*%
%TD*%
%TA.AperFunction,ComponentPad*%
%ADD28C,2.100000*%
%TD*%
%TA.AperFunction,ComponentPad*%
%ADD29C,1.750000*%
%TD*%
%TA.AperFunction,ComponentPad*%
%ADD30R,2.000000X2.000000*%
%TD*%
%TA.AperFunction,ComponentPad*%
%ADD31C,2.000000*%
%TD*%
%TA.AperFunction,ViaPad*%
%ADD32C,0.800000*%
%TD*%
%TA.AperFunction,Conductor*%
%ADD33C,0.250000*%
%TD*%
G04 APERTURE END LIST*
D10*
%TO.P,J7,1,Pin_1*%
%TO.N,LED0R*%
X72900000Y-94235000D03*
D11*
%TO.P,J7,2,Pin_2*%
%TO.N,Net-(J7-Pin_2)*%
X72900000Y-92235000D03*
%TO.P,J7,3,Pin_3*%
%TO.N,GND*%
X72900000Y-90235000D03*
%TD*%
D12*
%TO.P,R2,1*%
%TO.N,LED_F1_Red*%
X80125000Y-81775000D03*
D13*
%TO.P,R2,2*%
%TO.N,Net-(J8-Pin_2)*%
X80125000Y-71615000D03*
%TD*%
D14*
%TO.P,U1,1,GPIO0*%
%TO.N,unconnected-(U1-GPIO0-Pad1)*%
X89960000Y-78880000D03*
D12*
%TO.P,U1,2,GPIO1*%
%TO.N,unconnected-(U1-GPIO1-Pad2)*%
X92500000Y-78880000D03*
D15*
%TO.P,U1,3,GND*%
%TO.N,GND*%
X95040000Y-78880000D03*
D12*
%TO.P,U1,4,GPIO2*%
%TO.N,~{OPT0}*%
X97580000Y-78880000D03*
%TO.P,U1,5,GPIO3*%
%TO.N,~{OPT1}*%
X100120000Y-78880000D03*
%TO.P,U1,6,GPIO4*%
%TO.N,~{OPT2}*%
X102660000Y-78880000D03*
%TO.P,U1,7,GPIO5*%
%TO.N,~{OPT3}*%
X105200000Y-78880000D03*
D15*
%TO.P,U1,8,GND*%
%TO.N,GND*%
X107740000Y-78880000D03*
D12*
%TO.P,U1,9,GPIO6*%
%TO.N,~{EJECT}*%
X110280000Y-78880000D03*
%TO.P,U1,10,GPIO7*%
%TO.N,~{INSERTED}*%
X112820000Y-78880000D03*
%TO.P,U1,11,GPIO8*%
%TO.N,~{FDDINT}*%
X115360000Y-78880000D03*
%TO.P,U1,12,GPIO9*%
%TO.N,~{ERROR}*%
X117900000Y-78880000D03*
D15*
%TO.P,U1,13,GND*%
%TO.N,GND*%
X120440000Y-78880000D03*
D12*
%TO.P,U1,14,GPIO10*%
%TO.N,~{EjectMSK}*%
X122980000Y-78880000D03*
%TO.P,U1,15,GPIO11*%
%TO.N,~{MOTOR}*%
X125520000Y-78880000D03*
%TO.P,U1,16,GPIO12*%
%TO.N,LEDFD0*%
X128060000Y-78880000D03*
%TO.P,U1,17,GPIO13*%
%TO.N,LEDFD1*%
X130600000Y-78880000D03*
D15*
%TO.P,U1,18,GND*%
%TO.N,GND*%
X133140000Y-78880000D03*
D12*
%TO.P,U1,19,GPIO14*%
%TO.N,LED_F0_Red*%
X135680000Y-78880000D03*
%TO.P,U1,20,GPIO15*%
%TO.N,LED_F1_Red*%
X138220000Y-78880000D03*
%TO.P,U1,21,GPIO16*%
%TO.N,BT_FD0*%
X138220000Y-61100000D03*
%TO.P,U1,22,GPIO17*%
%TO.N,BT_FD1*%
X135680000Y-61100000D03*
D15*
%TO.P,U1,23,GND*%
%TO.N,GND*%
X133140000Y-61100000D03*
D12*
%TO.P,U1,24,GPIO18*%
%TO.N,~{LED_BLINK}*%
X130600000Y-61100000D03*
%TO.P,U1,25,GPIO19*%
%TO.N,BT__LED_FD0*%
X128060000Y-61100000D03*
%TO.P,U1,26,GPIO20*%
%TO.N,BT__LED_FD1*%
X125520000Y-61100000D03*
%TO.P,U1,27,GPIO21*%
%TO.N,FD0_En*%
X122980000Y-61100000D03*
D15*
%TO.P,U1,28,GND*%
%TO.N,GND*%
X120440000Y-61100000D03*
D12*
%TO.P,U1,29,GPIO22*%
%TO.N,FD1_En*%
X117900000Y-61100000D03*
%TO.P,U1,30,RUN*%
%TO.N,unconnected-(U1-RUN-Pad30)*%
X115360000Y-61100000D03*
%TO.P,U1,31,GPIO26_ADC0*%
%TO.N,Int{slash}Ext*%
X112820000Y-61100000D03*
%TO.P,U1,32,GPIO27_ADC1*%
%TO.N,unconnected-(U1-GPIO27_ADC1-Pad32)_1*%
X110280000Y-61100000D03*
D15*
%TO.P,U1,33,AGND*%
%TO.N,GND*%
X107740000Y-61100000D03*
D12*
%TO.P,U1,34,GPIO28_ADC2*%
%TO.N,unconnected-(U1-GPIO28_ADC2-Pad34)_1*%
X105200000Y-61100000D03*
%TO.P,U1,35,ADC_VREF*%
%TO.N,unconnected-(U1-ADC_VREF-Pad35)*%
X102660000Y-61100000D03*
%TO.P,U1,36,3V3*%
%TO.N,unconnected-(U1-3V3-Pad36)*%
X100120000Y-61100000D03*
%TO.P,U1,37,3V3_EN*%
%TO.N,unconnected-(U1-3V3_EN-Pad37)*%
X97580000Y-61100000D03*
D15*
%TO.P,U1,38,GND*%
%TO.N,GND*%
X95040000Y-61100000D03*
D12*
%TO.P,U1,39,VSYS*%
%TO.N,5vtoPico*%
X92500000Y-61100000D03*
%TO.P,U1,40,VBUS*%
%TO.N,unconnected-(U1-VBUS-Pad40)_1*%
X89960000Y-61100000D03*
D16*
%TO.P,U1,41,SWCLK*%
%TO.N,unconnected-(U1-SWCLK-Pad41)*%
X119790000Y-69405800D03*
D17*
%TO.P,U1,42,GND*%
%TO.N,GND*%
X119790000Y-66865800D03*
%TO.P,U1,43,SWDIO*%
%TO.N,unconnected-(U1-SWDIO-Pad43)*%
X119790000Y-64325800D03*
%TD*%
D12*
%TO.P,R7,1*%
%TO.N,GND*%
X79400000Y-104765000D03*
D13*
%TO.P,R7,2*%
%TO.N,BT_FD0*%
X79400000Y-112385000D03*
%TD*%
D12*
%TO.P,R5,1*%
%TO.N,BT__LED_FD0*%
X87300000Y-95325000D03*
D13*
%TO.P,R5,2*%
%TO.N,Net-(J3-Pin_3)*%
X87300000Y-85165000D03*
%TD*%
D10*
%TO.P,J4,1,Pin_1*%
%TO.N,5vtoPico*%
X72900000Y-80385000D03*
D11*
%TO.P,J4,2,Pin_2*%
%TO.N,BT_FD1*%
X72900000Y-78385000D03*
%TO.P,J4,3,Pin_3*%
%TO.N,Net-(J4-Pin_3)*%
X72900000Y-76385000D03*
%TO.P,J4,4,Pin_4*%
%TO.N,GND*%
X72900000Y-74385000D03*
%TD*%
D18*
%TO.P,J9,1,Pin_1*%
%TO.N,+5V*%
X143650000Y-58250000D03*
D19*
%TO.P,J9,2,Pin_2*%
%TO.N,GND*%
X143650000Y-60790000D03*
%TO.P,J9,3,Pin_3*%
X143650000Y-63330000D03*
%TO.P,J9,4,Pin_4*%
%TO.N,unconnected-(J9-Pin_4-Pad4)*%
X143650000Y-65870000D03*
%TD*%
D12*
%TO.P,R1,1*%
%TO.N,LEDFD1*%
X80075000Y-68555000D03*
D13*
%TO.P,R1,2*%
%TO.N,LED1R*%
X80075000Y-58395000D03*
%TD*%
D20*
%TO.P,U2,1,A->B*%
%TO.N,LVC245_EN*%
X96650000Y-94825000D03*
D12*
%TO.P,U2,2,A0*%
%TO.N,~{INDEX3v3}*%
X99190000Y-94825000D03*
%TO.P,U2,3,A1*%
%TO.N,~{TRK03v3}*%
X101730000Y-94825000D03*
%TO.P,U2,4,A2*%
%TO.N,~{WPROT3v3}*%
X104270000Y-94825000D03*
%TO.P,U2,5,A3*%
%TO.N,~{RDATA3v3}*%
X106810000Y-94825000D03*
%TO.P,U2,6,A4*%
%TO.N,~{RDY3v3}*%
X109350000Y-94825000D03*
%TO.P,U2,7,A5*%
%TO.N,unconnected-(U2-A5-Pad7)*%
X111890000Y-94825000D03*
%TO.P,U2,8,A6*%
%TO.N,unconnected-(U2-A6-Pad8)*%
X114430000Y-94825000D03*
%TO.P,U2,9,A7*%
%TO.N,unconnected-(U2-A7-Pad9)*%
X116970000Y-94825000D03*
%TO.P,U2,10,GND*%
%TO.N,GND*%
X119510000Y-94825000D03*
%TO.P,U2,11,B7*%
%TO.N,unconnected-(U2-B7-Pad11)*%
X119510000Y-87205000D03*
%TO.P,U2,12,B6*%
%TO.N,unconnected-(U2-B6-Pad12)*%
X116970000Y-87205000D03*
%TO.P,U2,13,B5*%
%TO.N,unconnected-(U2-B5-Pad13)*%
X114430000Y-87205000D03*
%TO.P,U2,14,B4*%
%TO.N,~{RDY}*%
X111890000Y-87205000D03*
%TO.P,U2,15,B3*%
%TO.N,~{RDATA}*%
X109350000Y-87205000D03*
%TO.P,U2,16,B2*%
%TO.N,~{WPROT}*%
X106810000Y-87205000D03*
%TO.P,U2,17,B1*%
%TO.N,~{TRK0}*%
X104270000Y-87205000D03*
%TO.P,U2,18,B0*%
%TO.N,~{INDEX}*%
X101730000Y-87205000D03*
%TO.P,U2,19,CE*%
%TO.N,GND*%
X99190000Y-87205000D03*
%TO.P,U2,20,VCC*%
%TO.N,+3.3V*%
X96650000Y-87205000D03*
%TD*%
%TO.P,R8,1*%
%TO.N,GND*%
X79275000Y-132825000D03*
D13*
%TO.P,R8,2*%
%TO.N,BT_FD1*%
X79275000Y-140445000D03*
%TD*%
D12*
%TO.P,R4,1*%
%TO.N,LEDFD0*%
X83700000Y-95325000D03*
D13*
%TO.P,R4,2*%
%TO.N,LED0R*%
X83700000Y-85165000D03*
%TD*%
D12*
%TO.P,R3,1*%
%TO.N,LED_F0_Red*%
X80200000Y-95325000D03*
D13*
%TO.P,R3,2*%
%TO.N,Net-(J7-Pin_2)*%
X80200000Y-85165000D03*
%TD*%
D12*
%TO.P,R9,1*%
%TO.N,5vtoPico*%
X141825000Y-94495000D03*
D13*
%TO.P,R9,2*%
%TO.N,~{RDATA}*%
X141825000Y-86875000D03*
%TD*%
D21*
%TO.P,J1,1,Pin_1*%
%TO.N,GND*%
X130685000Y-132385000D03*
D22*
%TO.P,J1,2,Pin_2*%
%TO.N,~{DENSITY}*%
X130685000Y-134925000D03*
%TO.P,J1,3,Pin_3*%
%TO.N,unconnected-(J1-Pin_3-Pad3)*%
X128145000Y-132385000D03*
%TO.P,J1,4,Pin_4*%
%TO.N,unconnected-(J1-Pin_4-Pad4)*%
X128145000Y-134925000D03*
%TO.P,J1,5,Pin_5*%
%TO.N,GND*%
X125605000Y-132385000D03*
%TO.P,J1,6,Pin_6*%
%TO.N,~{DS3}*%
X125605000Y-134925000D03*
%TO.P,J1,7,Pin_7*%
%TO.N,GND*%
X123065000Y-132385000D03*
%TO.P,J1,8,Pin_8*%
%TO.N,~{INDEX}*%
X123065000Y-134925000D03*
%TO.P,J1,9,Pin_9*%
%TO.N,GND*%
X120525000Y-132385000D03*
%TO.P,J1,10,Pin_10*%
%TO.N,~{DS0}*%
X120525000Y-134925000D03*
%TO.P,J1,11,Pin_11*%
%TO.N,GND*%
X117985000Y-132385000D03*
%TO.P,J1,12,Pin_12*%
%TO.N,~{DS1}*%
X117985000Y-134925000D03*
%TO.P,J1,13,Pin_13*%
%TO.N,GND*%
X115445000Y-132385000D03*
%TO.P,J1,14,Pin_14*%
%TO.N,~{DS2}*%
X115445000Y-134925000D03*
%TO.P,J1,15,Pin_15*%
%TO.N,GND*%
X112905000Y-132385000D03*
%TO.P,J1,16,Pin_16*%
%TO.N,~{MOTOR}*%
X112905000Y-134925000D03*
%TO.P,J1,17,Pin_17*%
%TO.N,GND*%
X110365000Y-132385000D03*
%TO.P,J1,18,Pin_18*%
%TO.N,~{DIR}*%
X110365000Y-134925000D03*
%TO.P,J1,19,Pin_19*%
%TO.N,GND*%
X107825000Y-132385000D03*
%TO.P,J1,20,Pin_20*%
%TO.N,~{STEP}*%
X107825000Y-134925000D03*
%TO.P,J1,21,Pin_21*%
%TO.N,GND*%
X105285000Y-132385000D03*
%TO.P,J1,22,Pin_22*%
%TO.N,~{WDATA}*%
X105285000Y-134925000D03*
%TO.P,J1,23,Pin_23*%
%TO.N,GND*%
X102745000Y-132385000D03*
%TO.P,J1,24,Pin_24*%
%TO.N,~{WGATE}*%
X102745000Y-134925000D03*
%TO.P,J1,25,Pin_25*%
%TO.N,GND*%
X100205000Y-132385000D03*
%TO.P,J1,26,Pin_26*%
%TO.N,~{TRK0}*%
X100205000Y-134925000D03*
%TO.P,J1,27,Pin_27*%
%TO.N,GND*%
X97665000Y-132385000D03*
%TO.P,J1,28,Pin_28*%
%TO.N,~{WPROT}*%
X97665000Y-134925000D03*
%TO.P,J1,29,Pin_29*%
%TO.N,GND*%
X95125000Y-132385000D03*
%TO.P,J1,30,Pin_30*%
%TO.N,~{RDATA}*%
X95125000Y-134925000D03*
%TO.P,J1,31,Pin_31*%
%TO.N,GND*%
X92585000Y-132385000D03*
%TO.P,J1,32,Pin_32*%
%TO.N,~{SIDE}*%
X92585000Y-134925000D03*
%TO.P,J1,33,Pin_33*%
%TO.N,GND*%
X90045000Y-132385000D03*
%TO.P,J1,34,Pin_34*%
%TO.N,~{RDY}*%
X90045000Y-134925000D03*
%TD*%
D14*
%TO.P,RP1,1,G0*%
%TO.N,~{DENSITY}*%
X89960000Y-122880000D03*
D12*
%TO.P,RP1,2,G1*%
%TO.N,~{DS3}*%
X92500000Y-122880000D03*
D15*
%TO.P,RP1,3,GND*%
%TO.N,GND*%
X95040000Y-122880000D03*
D12*
%TO.P,RP1,4,G2*%
%TO.N,~{INDEX3v3}*%
X97580000Y-122880000D03*
%TO.P,RP1,5,G3*%
%TO.N,~{DS0}*%
X100120000Y-122880000D03*
%TO.P,RP1,6,G4*%
%TO.N,~{DS1}*%
X102660000Y-122880000D03*
%TO.P,RP1,7,G5*%
%TO.N,~{DS2}*%
X105200000Y-122880000D03*
D15*
%TO.P,RP1,8,GND*%
%TO.N,GND*%
X107740000Y-122880000D03*
D12*
%TO.P,RP1,9,G6*%
%TO.N,~{MOTOR}*%
X110280000Y-122880000D03*
%TO.P,RP1,10,G7*%
%TO.N,~{DIR}*%
X112820000Y-122880000D03*
%TO.P,RP1,11,G8*%
%TO.N,~{STEP}*%
X115360000Y-122880000D03*
%TO.P,RP1,12,G9*%
%TO.N,~{WDATA}*%
X117900000Y-122880000D03*
D15*
%TO.P,RP1,13,GND*%
%TO.N,GND*%
X120440000Y-122880000D03*
D12*
%TO.P,RP1,14,G10*%
%TO.N,~{WGATE}*%
X122980000Y-122880000D03*
%TO.P,RP1,15,G11*%
%TO.N,~{TRK03v3}*%
X125520000Y-122880000D03*
%TO.P,RP1,16,G12*%
%TO.N,~{WPROT3v3}*%
X128060000Y-122880000D03*
%TO.P,RP1,17,G13*%
%TO.N,~{RDATA3v3}*%
X130600000Y-122880000D03*
D15*
%TO.P,RP1,18,GND*%
%TO.N,GND*%
X133140000Y-122880000D03*
D12*
%TO.P,RP1,19,G14*%
%TO.N,~{SIDE}*%
X135680000Y-122880000D03*
%TO.P,RP1,20,G15*%
%TO.N,~{RDY3v3}*%
X138220000Y-122880000D03*
%TO.P,RP1,21,G16*%
%TO.N,MISO*%
X138220000Y-105100000D03*
%TO.P,RP1,22,G17*%
%TO.N,CS*%
X135680000Y-105100000D03*
D15*
%TO.P,RP1,23,GND*%
%TO.N,GND*%
X133140000Y-105100000D03*
D12*
%TO.P,RP1,24,G18*%
%TO.N,SCK*%
X130600000Y-105100000D03*
%TO.P,RP1,25,G19*%
%TO.N,MOSI*%
X128060000Y-105100000D03*
%TO.P,RP1,26,G20*%
%TO.N,Buzzer*%
X125520000Y-105100000D03*
%TO.P,RP1,27,G21*%
%TO.N,FD0_En*%
X122980000Y-105100000D03*
D15*
%TO.P,RP1,28,GND*%
%TO.N,GND*%
X120440000Y-105100000D03*
D12*
%TO.P,RP1,29,G22*%
%TO.N,FD1_En*%
X117900000Y-105100000D03*
%TO.P,RP1,30,RUN*%
%TO.N,unconnected-(RP1-RUN-Pad30)_1*%
X115360000Y-105100000D03*
%TO.P,RP1,31,G26*%
%TO.N,Int{slash}Ext*%
X112820000Y-105100000D03*
%TO.P,RP1,32,G27*%
%TO.N,LVC245_EN*%
X110280000Y-105100000D03*
D15*
%TO.P,RP1,33,A_GND*%
%TO.N,GND*%
X107740000Y-105100000D03*
D12*
%TO.P,RP1,34,G28*%
%TO.N,unconnected-(RP1-G28-Pad34)*%
X105200000Y-105100000D03*
%TO.P,RP1,35,ADC_VREF*%
%TO.N,unconnected-(RP1-ADC_VREF-Pad35)*%
X102660000Y-105100000D03*
%TO.P,RP1,36,3v3*%
%TO.N,+3.3V*%
X100120000Y-105100000D03*
%TO.P,RP1,37,3v3_EN*%
%TO.N,unconnected-(RP1-3v3_EN-Pad37)_1*%
X97580000Y-105100000D03*
D15*
%TO.P,RP1,38,GND*%
%TO.N,GND*%
X95040000Y-105100000D03*
D12*
%TO.P,RP1,39,VSYS*%
%TO.N,5vtoPico*%
X92500000Y-105100000D03*
%TO.P,RP1,40,VBUS_5V*%
%TO.N,unconnected-(RP1-VBUS_5V-Pad40)_1*%
X89960000Y-105100000D03*
D16*
%TO.P,RP1,41*%
%TO.N,N/C*%
X119790000Y-113405800D03*
D17*
%TO.P,RP1,42*%
X119790000Y-110865800D03*
%TO.P,RP1,43*%
X119790000Y-108325800D03*
%TD*%
D12*
%TO.P,R10,1*%
%TO.N,5vtoPico*%
X146450000Y-94320000D03*
D13*
%TO.P,R10,2*%
%TO.N,~{WDATA}*%
X146450000Y-86700000D03*
%TD*%
D12*
%TO.P,R11,1*%
%TO.N,5vtoPico*%
X150900000Y-94495000D03*
D13*
%TO.P,R11,2*%
%TO.N,~{INDEX}*%
X150900000Y-86875000D03*
%TD*%
D18*
%TO.P,J13,1,Pin_1*%
%TO.N,GND*%
X80375000Y-46770000D03*
D19*
%TO.P,J13,2,Pin_2*%
%TO.N,Int{slash}Ext*%
X80375000Y-49310000D03*
%TO.P,J13,3,Pin_3*%
%TO.N,5vtoPico*%
X80375000Y-51850000D03*
%TD*%
D23*
%TO.P,D3,1,K*%
%TO.N,GND*%
X77785000Y-128750000D03*
D24*
%TO.P,D3,2,A*%
%TO.N,LED1R*%
X80325000Y-128750000D03*
%TD*%
D25*
%TO.P,D1,1,K*%
%TO.N,5vtoPico*%
X147300000Y-118200000D03*
D26*
%TO.P,D1,2,A*%
%TO.N,+5V*%
X147300000Y-105500000D03*
%TD*%
D27*
%TO.P,J2,1,Pin_1*%
%TO.N,~{OPT0}*%
X92220000Y-53715000D03*
D22*
%TO.P,J2,2,Pin_2*%
%TO.N,~{DENSITY}*%
X92220000Y-51175000D03*
%TO.P,J2,3,Pin_3*%
%TO.N,~{OPT1}*%
X94760000Y-53715000D03*
%TO.P,J2,4,Pin_4*%
%TO.N,unconnected-(J2-Pin_4-Pad4)*%
X94760000Y-51175000D03*
%TO.P,J2,5,Pin_5*%
%TO.N,~{OPT2}*%
X97300000Y-53715000D03*
%TO.P,J2,6,Pin_6*%
%TO.N,~{DS3}*%
X97300000Y-51175000D03*
%TO.P,J2,7,Pin_7*%
%TO.N,~{OPT3}*%
X99840000Y-53715000D03*
%TO.P,J2,8,Pin_8*%
%TO.N,~{INDEX}*%
X99840000Y-51175000D03*
%TO.P,J2,9,Pin_9*%
%TO.N,~{EJECT}*%
X102380000Y-53715000D03*
%TO.P,J2,10,Pin_10*%
%TO.N,~{DS0}*%
X102380000Y-51175000D03*
%TO.P,J2,11,Pin_11*%
%TO.N,~{EjectMSK}*%
X104920000Y-53715000D03*
%TO.P,J2,12,Pin_12*%
%TO.N,~{DS1}*%
X104920000Y-51175000D03*
%TO.P,J2,13,Pin_13*%
%TO.N,~{LED_BLINK}*%
X107460000Y-53715000D03*
%TO.P,J2,14,Pin_14*%
%TO.N,~{DS2}*%
X107460000Y-51175000D03*
%TO.P,J2,15,Pin_15*%
%TO.N,~{INSERTED}*%
X110000000Y-53715000D03*
%TO.P,J2,16,Pin_16*%
%TO.N,~{MOTOR}*%
X110000000Y-51175000D03*
%TO.P,J2,17,Pin_17*%
%TO.N,~{ERROR}*%
X112540000Y-53715000D03*
%TO.P,J2,18,Pin_18*%
%TO.N,~{DIR}*%
X112540000Y-51175000D03*
%TO.P,J2,19,Pin_19*%
%TO.N,~{FDDINT}*%
X115080000Y-53715000D03*
%TO.P,J2,20,Pin_20*%
%TO.N,~{STEP}*%
X115080000Y-51175000D03*
%TO.P,J2,21,Pin_21*%
%TO.N,GND*%
X117620000Y-53715000D03*
%TO.P,J2,22,Pin_22*%
%TO.N,~{WDATA}*%
X117620000Y-51175000D03*
%TO.P,J2,23,Pin_23*%
%TO.N,GND*%
X120160000Y-53715000D03*
%TO.P,J2,24,Pin_24*%
%TO.N,~{WGATE}*%
X120160000Y-51175000D03*
%TO.P,J2,25,Pin_25*%
%TO.N,GND*%
X122700000Y-53715000D03*
%TO.P,J2,26,Pin_26*%
%TO.N,~{TRK0}*%
X122700000Y-51175000D03*
%TO.P,J2,27,Pin_27*%
%TO.N,GND*%
X125240000Y-53715000D03*
%TO.P,J2,28,Pin_28*%
%TO.N,~{WPROT}*%
X125240000Y-51175000D03*
%TO.P,J2,29,Pin_29*%
%TO.N,GND*%
X127780000Y-53715000D03*
%TO.P,J2,30,Pin_30*%
%TO.N,~{RDATA}*%
X127780000Y-51175000D03*
%TO.P,J2,31,Pin_31*%
%TO.N,GND*%
X130320000Y-53715000D03*
%TO.P,J2,32,Pin_32*%
%TO.N,~{SIDE}*%
X130320000Y-51175000D03*
%TO.P,J2,33,Pin_33*%
%TO.N,GND*%
X132860000Y-53715000D03*
%TO.P,J2,34,Pin_34*%
%TO.N,~{RDY}*%
X132860000Y-51175000D03*
%TD*%
D28*
%TO.P,SW1,*%
%TO.N,*%
X74175000Y-121250000D03*
X74175000Y-114240000D03*
D29*
%TO.P,SW1,1,1*%
%TO.N,+3.3V*%
X71685000Y-120000000D03*
%TO.P,SW1,2,2*%
%TO.N,BT_FD0*%
X71685000Y-115500000D03*
%TD*%
D10*
%TO.P,J8,1,Pin_1*%
%TO.N,LED1R*%
X72900000Y-105110000D03*
D11*
%TO.P,J8,2,Pin_2*%
%TO.N,Net-(J8-Pin_2)*%
X72900000Y-103110000D03*
%TO.P,J8,3,Pin_3*%
%TO.N,GND*%
X72900000Y-101110000D03*
%TD*%
D30*
%TO.P,BZ1,1,+*%
%TO.N,Buzzer*%
X126275000Y-93975000D03*
D31*
%TO.P,BZ1,2,-*%
%TO.N,GND*%
X133875000Y-93975000D03*
%TD*%
D28*
%TO.P,SW2,*%
%TO.N,*%
X74175000Y-133135000D03*
X74175000Y-126125000D03*
D29*
%TO.P,SW2,1,1*%
%TO.N,+3.3V*%
X71685000Y-131885000D03*
%TO.P,SW2,2,2*%
%TO.N,BT_FD1*%
X71685000Y-127385000D03*
%TD*%
D10*
%TO.P,J3,1,Pin_1*%
%TO.N,5vtoPico*%
X72900000Y-67110000D03*
D11*
%TO.P,J3,2,Pin_2*%
%TO.N,BT_FD0*%
X72900000Y-65110000D03*
%TO.P,J3,3,Pin_3*%
%TO.N,Net-(J3-Pin_3)*%
X72900000Y-63110000D03*
%TO.P,J3,4,Pin_4*%
%TO.N,GND*%
X72900000Y-61110000D03*
%TD*%
D23*
%TO.P,D2,1,K*%
%TO.N,GND*%
X77860000Y-118150000D03*
D24*
%TO.P,D2,2,A*%
%TO.N,LED0R*%
X80400000Y-118150000D03*
%TD*%
D12*
%TO.P,R6,1*%
%TO.N,BT__LED_FD1*%
X90875000Y-95325000D03*
D13*
%TO.P,R6,2*%
%TO.N,Net-(J4-Pin_3)*%
X90875000Y-85165000D03*
%TD*%
D32*
%TO.N,~{RDATA3v3}*%
X129473300Y-97202600D03*
%TO.N,~{TRK03v3}*%
X106419800Y-97977000D03*
X106419800Y-115156800D03*
%TO.N,~{INDEX3v3}*%
X97011300Y-97003700D03*
%TO.N,~{RDY3v3}*%
X109097100Y-116085300D03*
%TO.N,~{WPROT3v3}*%
X126730500Y-100124700D03*
%TO.N,5vtoPico*%
X94036500Y-112097400D03*
%TO.N,+3.3V*%
X144348400Y-106927700D03*
%TO.N,BT__LED_FD1*%
X88450300Y-62774300D03*
%TO.N,BT__LED_FD0*%
X126790000Y-89847100D03*
%TO.N,Net-(J3-Pin_3)*%
X87300000Y-63110000D03*
%TO.N,LEDFD0*%
X128060000Y-82064300D03*
%TO.N,BT_FD1*%
X69896500Y-77392700D03*
%TO.N,~{ERROR}*%
X119124900Y-54798700D03*
%TO.N,~{EjectMSK}*%
X105089000Y-73446000D03*
%TO.N,~{EJECT}*%
X109097000Y-58072900D03*
%TO.N,~{RDY}*%
X134937200Y-86564500D03*
X88739000Y-93890200D03*
%TO.N,~{RDATA}*%
X95505300Y-88668700D03*
%TO.N,~{WPROT}*%
X129186700Y-83936700D03*
%TO.N,~{WGATE}*%
X121856300Y-134070400D03*
%TO.N,~{WDATA}*%
X146178300Y-53247800D03*
X119169700Y-96472100D03*
%TO.N,~{STEP}*%
X135261400Y-52504100D03*
X137088400Y-89091100D03*
X115700000Y-89091100D03*
%TO.N,~{DIR}*%
X89872400Y-53906200D03*
X86488400Y-115230900D03*
%TO.N,~{MOTOR}*%
X124250000Y-118768600D03*
%TO.N,~{DS2}*%
X88131900Y-55406000D03*
X85979300Y-117064000D03*
%TO.N,~{DS1}*%
X119165800Y-130208700D03*
X81914900Y-115233200D03*
X102660000Y-118912000D03*
%TO.N,~{DS0}*%
X98570100Y-51989700D03*
X83783700Y-49936300D03*
X81078300Y-116700600D03*
%TO.N,~{INDEX}*%
X146905000Y-53957500D03*
X98935100Y-133655100D03*
%TD*%
D33*
%TO.N,~{RDATA3v3}*%
X109187600Y-97202600D02*
X129473300Y-97202600D01*
X106810000Y-94825000D02*
X109187600Y-97202600D01*
%TO.N,~{TRK03v3}*%
X104882000Y-97977000D02*
X106419800Y-97977000D01*
X101730000Y-94825000D02*
X104882000Y-97977000D01*
X108337700Y-117074700D02*
X106419800Y-115156800D01*
X123624700Y-117074700D02*
X108337700Y-117074700D01*
X125520000Y-118970000D02*
X123624700Y-117074700D01*
X125520000Y-122880000D02*
X125520000Y-118970000D01*
%TO.N,~{INDEX3v3}*%
X99190000Y-94825000D02*
X97011300Y-97003700D01*
%TO.N,~{RDY3v3}*%
X131425300Y-116085300D02*
X138220000Y-122880000D01*
X109097100Y-116085300D02*
X131425300Y-116085300D01*
%TO.N,~{WPROT3v3}*%
X104295500Y-94825000D02*
X104270000Y-94825000D01*
X109595200Y-100124700D02*
X104295500Y-94825000D01*
X126730500Y-100124700D02*
X109595200Y-100124700D01*
%TO.N,LVC245_EN*%
X100534100Y-95354100D02*
X110280000Y-105100000D01*
X100534100Y-94526100D02*
X100534100Y-95354100D01*
X99679800Y-93671800D02*
X100534100Y-94526100D01*
X97803200Y-93671800D02*
X99679800Y-93671800D01*
X96650000Y-94825000D02*
X97803200Y-93671800D01*
%TO.N,Int{slash}Ext*%
X80375000Y-49310000D02*
X81551700Y-49310000D01*
X111075300Y-59355300D02*
X112820000Y-61100000D01*
X91597000Y-59355300D02*
X111075300Y-59355300D01*
X88374400Y-56132700D02*
X91597000Y-59355300D01*
X87831000Y-56132700D02*
X88374400Y-56132700D01*
X87405200Y-55706900D02*
X87831000Y-56132700D01*
X87405200Y-55163500D02*
X87405200Y-55706900D01*
X81551700Y-49310000D02*
X87405200Y-55163500D01*
%TO.N,5vtoPico*%
X146450000Y-94407500D02*
X146450000Y-94320000D01*
X146537500Y-94495000D02*
X146450000Y-94407500D01*
X150900000Y-94495000D02*
X146537500Y-94495000D01*
X141912500Y-94407500D02*
X141825000Y-94495000D01*
X146450000Y-94407500D02*
X141912500Y-94407500D01*
X139670700Y-112097400D02*
X94036500Y-112097400D01*
X145773300Y-118200000D02*
X139670700Y-112097400D01*
X147300000Y-118200000D02*
X145773300Y-118200000D01*
X92159500Y-61100000D02*
X92500000Y-61100000D01*
X82909500Y-51850000D02*
X92159500Y-61100000D01*
X80375000Y-51850000D02*
X82909500Y-51850000D01*
%TO.N,+3.3V*%
X101947700Y-106927700D02*
X144348400Y-106927700D01*
X100120000Y-105100000D02*
X101947700Y-106927700D01*
X77183600Y-114501400D02*
X71685000Y-120000000D01*
X90604900Y-114501400D02*
X77183600Y-114501400D01*
X100006300Y-105100000D02*
X90604900Y-114501400D01*
X100120000Y-105100000D02*
X100006300Y-105100000D01*
%TO.N,Net-(J7-Pin_2)*%
X73490400Y-91308300D02*
X72900000Y-91308300D01*
X79073300Y-85725400D02*
X73490400Y-91308300D01*
X79073300Y-85165000D02*
X79073300Y-85725400D01*
X80200000Y-85165000D02*
X79073300Y-85165000D01*
X72900000Y-92235000D02*
X72900000Y-91308300D01*
%TO.N,LED0R*%
X73503300Y-94235000D02*
X72900000Y-94235000D01*
X82573300Y-85165000D02*
X73503300Y-94235000D01*
X83700000Y-85165000D02*
X82573300Y-85165000D01*
%TO.N,BT__LED_FD1*%
X88503100Y-62721500D02*
X88450300Y-62774300D01*
X123898500Y-62721500D02*
X88503100Y-62721500D01*
X125520000Y-61100000D02*
X123898500Y-62721500D01*
%TO.N,Net-(J4-Pin_3)*%
X90875000Y-85165000D02*
X89748300Y-85165000D01*
X80968300Y-76385000D02*
X72900000Y-76385000D01*
X89748300Y-85165000D02*
X80968300Y-76385000D01*
%TO.N,BT__LED_FD0*%
X93913000Y-89847100D02*
X126790000Y-89847100D01*
X88435100Y-95325000D02*
X93913000Y-89847100D01*
X87300000Y-95325000D02*
X88435100Y-95325000D01*
%TO.N,Net-(J3-Pin_3)*%
X72900000Y-63110000D02*
X87300000Y-63110000D01*
%TO.N,LED_F1_Red*%
X81906300Y-81775000D02*
X80125000Y-81775000D01*
X86438600Y-86307300D02*
X81906300Y-81775000D01*
X91326200Y-86307300D02*
X86438600Y-86307300D01*
X97626000Y-80007500D02*
X91326200Y-86307300D01*
X131094200Y-80007500D02*
X97626000Y-80007500D01*
X131783000Y-79318700D02*
X131094200Y-80007500D01*
X131783000Y-78234300D02*
X131783000Y-79318700D01*
X132318900Y-77698400D02*
X131783000Y-78234300D01*
X137038400Y-77698400D02*
X132318900Y-77698400D01*
X138220000Y-78880000D02*
X137038400Y-77698400D01*
%TO.N,LED_F0_Red*%
X133228300Y-81331700D02*
X135680000Y-78880000D01*
X133228300Y-81331800D02*
X133228300Y-81331700D01*
X97058400Y-81331800D02*
X133228300Y-81331800D01*
X85455900Y-92934300D02*
X97058400Y-81331800D01*
X82590700Y-92934300D02*
X85455900Y-92934300D01*
X80200000Y-95325000D02*
X82590700Y-92934300D01*
%TO.N,~{LED_BLINK}*%
X125032300Y-55532300D02*
X130600000Y-61100000D01*
X109277300Y-55532300D02*
X125032300Y-55532300D01*
X107460000Y-53715000D02*
X109277300Y-55532300D01*
%TO.N,LEDFD1*%
X82076900Y-70556900D02*
X80075000Y-68555000D01*
X122276900Y-70556900D02*
X82076900Y-70556900D01*
X130600000Y-78880000D02*
X122276900Y-70556900D01*
%TO.N,LEDFD0*%
X97495000Y-82064300D02*
X128060000Y-82064300D01*
X84234300Y-95325000D02*
X97495000Y-82064300D01*
X83700000Y-95325000D02*
X84234300Y-95325000D01*
%TO.N,BT_FD1*%
X72900000Y-78385000D02*
X72900000Y-77458300D01*
X71667000Y-73975000D02*
X71667000Y-77392700D01*
X80046200Y-65595800D02*
X71667000Y-73975000D01*
X135317700Y-65595800D02*
X80046200Y-65595800D01*
X139359800Y-61553700D02*
X135317700Y-65595800D01*
X139359800Y-60646200D02*
X139359800Y-61553700D01*
X138675000Y-59961400D02*
X139359800Y-60646200D01*
X136818600Y-59961400D02*
X138675000Y-59961400D01*
X135680000Y-61100000D02*
X136818600Y-59961400D01*
X69896500Y-77392700D02*
X71667000Y-77392700D01*
X72834400Y-77392700D02*
X72900000Y-77458300D01*
X71667000Y-77392700D02*
X72834400Y-77392700D01*
%TO.N,BT_FD0*%
X79400000Y-112385000D02*
X78273300Y-112385000D01*
X71863100Y-115678100D02*
X71685000Y-115500000D01*
X74978100Y-115678100D02*
X71863100Y-115678100D01*
X76411100Y-114245100D02*
X74978100Y-115678100D01*
X76413200Y-114245100D02*
X76411100Y-114245100D01*
X78273300Y-112385000D02*
X76413200Y-114245100D01*
X72900000Y-65110000D02*
X72900000Y-64183300D01*
X92595100Y-64183300D02*
X72900000Y-64183300D01*
X93578800Y-63199600D02*
X92595100Y-64183300D01*
X136120400Y-63199600D02*
X93578800Y-63199600D01*
X138220000Y-61100000D02*
X136120400Y-63199600D01*
%TO.N,~{ERROR}*%
X119031600Y-54892000D02*
X119124900Y-54798700D01*
X113717000Y-54892000D02*
X119031600Y-54892000D01*
X112540000Y-53715000D02*
X113717000Y-54892000D01*
%TO.N,~{EjectMSK}*%
X117546000Y-73446000D02*
X122980000Y-78880000D01*
X105089000Y-73446000D02*
X117546000Y-73446000D01*
%TO.N,~{EJECT}*%
X106737900Y-58072900D02*
X109097000Y-58072900D01*
X102380000Y-53715000D02*
X106737900Y-58072900D01*
%TO.N,~{RDY}*%
X93233800Y-89395400D02*
X88739000Y-93890200D01*
X109699600Y-89395400D02*
X93233800Y-89395400D01*
X111890000Y-87205000D02*
X109699600Y-89395400D01*
X113020100Y-88335100D02*
X111890000Y-87205000D01*
X133166600Y-88335100D02*
X113020100Y-88335100D01*
X134937200Y-86564500D02*
X133166600Y-88335100D01*
%TO.N,~{SIDE}*%
X135680000Y-131597500D02*
X135680000Y-122880000D01*
X130204500Y-137073000D02*
X135680000Y-131597500D01*
X94733000Y-137073000D02*
X130204500Y-137073000D01*
X92585000Y-134925000D02*
X94733000Y-137073000D01*
%TO.N,~{RDATA}*%
X141825000Y-86875000D02*
X140698300Y-86875000D01*
X95692300Y-88855700D02*
X95505300Y-88668700D01*
X107699300Y-88855700D02*
X95692300Y-88855700D01*
X109350000Y-87205000D02*
X107699300Y-88855700D01*
X110717200Y-85837800D02*
X109350000Y-87205000D01*
X139661100Y-85837800D02*
X110717200Y-85837800D01*
X140698300Y-86875000D02*
X139661100Y-85837800D01*
%TO.N,~{WPROT}*%
X103328800Y-83936700D02*
X129186700Y-83936700D01*
X100552200Y-86713300D02*
X103328800Y-83936700D01*
X100552200Y-87620600D02*
X100552200Y-86713300D01*
X101265200Y-88333600D02*
X100552200Y-87620600D01*
X105681400Y-88333600D02*
X101265200Y-88333600D01*
X106810000Y-87205000D02*
X105681400Y-88333600D01*
%TO.N,~{WGATE}*%
X103960800Y-136140800D02*
X102745000Y-134925000D01*
X120981000Y-136140800D02*
X103960800Y-136140800D01*
X121856300Y-135265500D02*
X120981000Y-136140800D01*
X121856300Y-134070400D02*
X121856300Y-135265500D01*
%TO.N,~{WDATA}*%
X135551200Y-96472100D02*
X119169700Y-96472100D01*
X145323300Y-86700000D02*
X135551200Y-96472100D01*
X146450000Y-86700000D02*
X145323300Y-86700000D01*
X134977500Y-53247800D02*
X146178300Y-53247800D01*
X134174700Y-52445000D02*
X134977500Y-53247800D01*
X118890000Y-52445000D02*
X134174700Y-52445000D01*
X117620000Y-51175000D02*
X118890000Y-52445000D01*
%TO.N,~{STEP}*%
X115700000Y-89091100D02*
X137088400Y-89091100D01*
X135261400Y-51883300D02*
X135261400Y-52504100D01*
X133376400Y-49998300D02*
X135261400Y-51883300D01*
X116256700Y-49998300D02*
X133376400Y-49998300D01*
X115080000Y-51175000D02*
X116256700Y-49998300D01*
%TO.N,~{DIR}*%
X105170900Y-115230900D02*
X86488400Y-115230900D01*
X112820000Y-122880000D02*
X105170900Y-115230900D01*
X111322600Y-49957600D02*
X112540000Y-51175000D01*
X101920300Y-49957600D02*
X111322600Y-49957600D01*
X101092200Y-50785700D02*
X101920300Y-49957600D01*
X101092200Y-51665700D02*
X101092200Y-50785700D01*
X100313500Y-52444400D02*
X101092200Y-51665700D01*
X99182700Y-52444400D02*
X100313500Y-52444400D01*
X98871100Y-52756000D02*
X99182700Y-52444400D01*
X98269200Y-52756000D02*
X98871100Y-52756000D01*
X98035500Y-52522300D02*
X98269200Y-52756000D01*
X91256300Y-52522300D02*
X98035500Y-52522300D01*
X89872400Y-53906200D02*
X91256300Y-52522300D01*
%TO.N,~{MOTOR}*%
X120414000Y-118768600D02*
X124250000Y-118768600D01*
X116630100Y-122552500D02*
X120414000Y-118768600D01*
X116630100Y-123279200D02*
X116630100Y-122552500D01*
X115841100Y-124068200D02*
X116630100Y-123279200D01*
X111468200Y-124068200D02*
X115841100Y-124068200D01*
X110280000Y-122880000D02*
X111468200Y-124068200D01*
%TO.N,~{DS2}*%
X99841400Y-55406000D02*
X88131900Y-55406000D01*
X101110100Y-54137300D02*
X99841400Y-55406000D01*
X101110100Y-53284000D02*
X101110100Y-54137300D01*
X101949100Y-52445000D02*
X101110100Y-53284000D01*
X106190000Y-52445000D02*
X101949100Y-52445000D01*
X107460000Y-51175000D02*
X106190000Y-52445000D01*
X99384000Y-117064000D02*
X105200000Y-122880000D01*
X85979300Y-117064000D02*
X99384000Y-117064000D01*
%TO.N,~{DS1}*%
X109988700Y-130208700D02*
X119165800Y-130208700D01*
X102660000Y-122880000D02*
X109988700Y-130208700D01*
X82927600Y-116245900D02*
X81914900Y-115233200D01*
X99993900Y-116245900D02*
X82927600Y-116245900D01*
X102660000Y-118912000D02*
X99993900Y-116245900D01*
%TO.N,~{DS0}*%
X106555100Y-129315100D02*
X100120000Y-122880000D01*
X106555100Y-132813100D02*
X106555100Y-129315100D01*
X107397000Y-133655000D02*
X106555100Y-132813100D01*
X119255000Y-133655000D02*
X107397000Y-133655000D01*
X120525000Y-134925000D02*
X119255000Y-133655000D01*
X98981500Y-124018500D02*
X100120000Y-122880000D01*
X88396200Y-124018500D02*
X98981500Y-124018500D01*
X81078300Y-116700600D02*
X88396200Y-124018500D01*
X97745500Y-49936300D02*
X83783700Y-49936300D01*
X98570100Y-50760900D02*
X97745500Y-49936300D01*
X98570100Y-51989700D02*
X98570100Y-50760900D01*
%TO.N,~{INDEX}*%
X150900000Y-86875000D02*
X149773300Y-86875000D01*
X103551200Y-85383800D02*
X101730000Y-87205000D01*
X148282100Y-85383800D02*
X103551200Y-85383800D01*
X149773300Y-86875000D02*
X148282100Y-85383800D01*
X146905000Y-52871500D02*
X146905000Y-53957500D01*
X143489900Y-49456400D02*
X146905000Y-52871500D01*
X101558600Y-49456400D02*
X143489900Y-49456400D01*
X99840000Y-51175000D02*
X101558600Y-49456400D01*
X100661100Y-133655100D02*
X98935100Y-133655100D01*
X101475000Y-134469000D02*
X100661100Y-133655100D01*
X101475000Y-135393700D02*
X101475000Y-134469000D01*
X102694000Y-136612700D02*
X101475000Y-135393700D01*
X121377300Y-136612700D02*
X102694000Y-136612700D01*
X123065000Y-134925000D02*
X121377300Y-136612700D01*
%TO.N,~{DS3}*%
X126798100Y-133731900D02*
X125605000Y-134925000D01*
X126798100Y-131883300D02*
X126798100Y-133731900D01*
X125850200Y-130935400D02*
X126798100Y-131883300D01*
X109075100Y-130935400D02*
X125850200Y-130935400D01*
X101533300Y-123393600D02*
X109075100Y-130935400D01*
X101533300Y-122628200D02*
X101533300Y-123393600D01*
X100630500Y-121725400D02*
X101533300Y-122628200D01*
X93654600Y-121725400D02*
X100630500Y-121725400D01*
X92500000Y-122880000D02*
X93654600Y-121725400D01*
%TO.N,~{DENSITY}*%
X129361700Y-133601700D02*
X130685000Y-134925000D01*
X129361700Y-131855800D02*
X129361700Y-133601700D01*
X122213200Y-124707300D02*
X129361700Y-131855800D01*
X105381800Y-124707300D02*
X122213200Y-124707300D01*
X103930100Y-123255600D02*
X105381800Y-124707300D01*
X103930100Y-122509300D02*
X103930100Y-123255600D01*
X102667400Y-121246600D02*
X103930100Y-122509300D01*
X91593400Y-121246600D02*
X102667400Y-121246600D01*
X89960000Y-122880000D02*
X91593400Y-121246600D01*
%TO.N,GND*%
X132860000Y-53715000D02*
X130320000Y-53715000D01*
X127780000Y-53715000D02*
X125240000Y-53715000D01*
X125240000Y-53715000D02*
X122700000Y-53715000D01*
X92585000Y-132385000D02*
X95125000Y-132385000D01*
X97665000Y-132385000D02*
X95125000Y-132385000D01*
X100205000Y-132385000D02*
X97665000Y-132385000D01*
X105285000Y-132385000D02*
X102745000Y-132385000D01*
X102745000Y-132385000D02*
X100205000Y-132385000D01*
X92585000Y-132385000D02*
X90045000Y-132385000D01*
X110365000Y-132385000D02*
X112905000Y-132385000D01*
X112905000Y-132385000D02*
X115445000Y-132385000D01*
X115445000Y-132385000D02*
X117985000Y-132385000D01*
X110365000Y-132385000D02*
X107825000Y-132385000D01*
X123065000Y-132385000D02*
X125605000Y-132385000D01*
X123065000Y-132385000D02*
X120525000Y-132385000D01*
X120525000Y-132385000D02*
X117985000Y-132385000D01*
X143650000Y-60790000D02*
X142473300Y-60790000D01*
X89605000Y-132825000D02*
X90045000Y-132385000D01*
X79275000Y-132825000D02*
X89605000Y-132825000D01*
X75745000Y-101110000D02*
X72900000Y-101110000D01*
X79400000Y-104765000D02*
X75745000Y-101110000D01*
X119266900Y-106273100D02*
X120440000Y-105100000D01*
X108913100Y-106273100D02*
X119266900Y-106273100D01*
X107740000Y-105100000D02*
X108913100Y-106273100D01*
X131996100Y-106243900D02*
X133140000Y-105100000D01*
X121583900Y-106243900D02*
X131996100Y-106243900D01*
X120440000Y-105100000D02*
X121583900Y-106243900D01*
X106606400Y-59966400D02*
X107740000Y-61100000D01*
X96173600Y-59966400D02*
X106606400Y-59966400D01*
X95040000Y-61100000D02*
X96173600Y-59966400D01*
X72900000Y-61110000D02*
X72900000Y-62036700D01*
X120160000Y-53715000D02*
X122700000Y-53715000D01*
X95040000Y-105100000D02*
X95040000Y-103937200D01*
X106577200Y-103937200D02*
X95040000Y-103937200D01*
X107740000Y-105100000D02*
X106577200Y-103937200D01*
X80227800Y-103937200D02*
X79400000Y-104765000D01*
X95040000Y-103937200D02*
X80227800Y-103937200D01*
X107740000Y-78880000D02*
X107740000Y-77735400D01*
X119295400Y-77735400D02*
X120440000Y-78880000D01*
X107740000Y-77735400D02*
X119295400Y-77735400D01*
X108887500Y-62247500D02*
X107740000Y-61100000D01*
X119292500Y-62247500D02*
X108887500Y-62247500D01*
X120440000Y-61100000D02*
X119292500Y-62247500D01*
X88740400Y-62036700D02*
X72900000Y-62036700D01*
X88945600Y-62241900D02*
X88740400Y-62036700D01*
X93898100Y-62241900D02*
X88945600Y-62241900D01*
X95040000Y-61100000D02*
X93898100Y-62241900D01*
X96184600Y-77735400D02*
X95040000Y-78880000D01*
X107740000Y-77735400D02*
X96184600Y-77735400D01*
X72900000Y-74385000D02*
X72900000Y-75311700D01*
X91471700Y-75311700D02*
X72900000Y-75311700D01*
X95040000Y-78880000D02*
X91471700Y-75311700D01*
X134730300Y-59509700D02*
X133140000Y-61100000D01*
X141193000Y-59509700D02*
X134730300Y-59509700D01*
X142473300Y-60790000D02*
X141193000Y-59509700D01*
%TD*%
M02*
