M48
; DRILL file {KiCad 9.0.0} date 2025-03-03T15:33:34+0100
; FORMAT={-:-/ absolute / inch / decimal}
; #@! TF.CreationDate,2025-03-03T15:33:34+01:00
; #@! TF.GenerationSoftware,Kicad,Pcbnew,9.0.0
; #@! TF.FileFunction,Plated,1,2,PTH
FMAT,2
INCH
; #@! TA.AperFunction,Plated,PTH,ViaDrill
T1C0.0157
; #@! TA.AperFunction,Plated,PTH,ComponentDrill
T2C0.0295
; #@! TA.AperFunction,Plated,PTH,ComponentDrill
T3C0.0315
; #@! TA.AperFunction,Plated,PTH,ComponentDrill
T4C0.0354
; #@! TA.AperFunction,Plated,PTH,ComponentDrill
T5C0.0390
; #@! TA.AperFunction,Plated,PTH,ComponentDrill
T6C0.0394
; #@! TA.AperFunction,Plated,PTH,ComponentDrill
T7C0.0472
; #@! TA.AperFunction,Plated,PTH,ComponentDrill
T8C0.0512
%
G90
G05
T1
X2.7518Y-3.047
X3.1921Y-4.5945
X3.225Y-4.5367
X3.2986Y-1.966
X3.385Y-4.6088
X3.4051Y-4.5366
X3.437Y-2.4846
X3.4698Y-2.1813
X3.4823Y-2.4714
X3.4937Y-3.6965
X3.5383Y-2.1223
X3.7022Y-4.4133
X3.7601Y-3.4909
X3.8193Y-3.819
X3.8807Y-2.0468
X3.8951Y-5.262
X4.0417Y-4.6816
X4.1374Y-2.8916
X4.1898Y-3.8574
X4.1898Y-4.5337
X4.2952Y-2.2863
X4.2952Y-4.5703
X4.5551Y-3.5075
X4.69Y-2.1574
X4.6916Y-5.1263
X4.6917Y-3.7981
X4.7975Y-5.2784
X4.8917Y-4.6759
X4.9894Y-3.9419
X4.9917Y-3.5373
X5.0417Y-3.2309
X5.0861Y-3.3046
X5.0974Y-3.8269
X5.3125Y-3.4081
X5.3253Y-2.0671
X5.3972Y-3.5075
X5.683Y-4.2098
X5.7551Y-2.0964
X5.7837Y-2.1243
T2
X2.8701Y-2.4059
X2.8701Y-2.4846
X2.8701Y-2.5634
X2.8701Y-2.6421
X2.8701Y-2.9285
X2.8701Y-3.0073
X2.8701Y-3.086
X2.8701Y-3.1648
X2.8701Y-3.5526
X2.8701Y-3.6313
X2.8701Y-3.71
X2.8701Y-3.9807
X2.8701Y-4.0594
X2.8701Y-4.1382
T3
X3.1211Y-5.2293
X3.1211Y-5.5293
X3.126Y-4.1246
X3.126Y-4.4246
X3.1526Y-2.299
X3.1526Y-2.699
X3.1545Y-2.8195
X3.1545Y-3.2195
X3.1575Y-3.353
X3.1575Y-3.753
X3.2953Y-3.353
X3.2953Y-3.753
X3.437Y-3.353
X3.437Y-3.753
X3.5778Y-3.353
X3.5778Y-3.753
X3.8051Y-3.4333
X3.8051Y-3.7333
X3.9051Y-3.4333
X3.9051Y-3.7333
X4.0051Y-3.4333
X4.0051Y-3.7333
X4.1051Y-3.4333
X4.1051Y-3.7333
X4.2051Y-3.4333
X4.2051Y-3.7333
X4.3051Y-3.4333
X4.3051Y-3.7333
X4.4051Y-3.4333
X4.4051Y-3.7333
X4.5051Y-3.4333
X4.5051Y-3.7333
X4.6051Y-3.4333
X4.6051Y-3.7333
X4.7051Y-3.4333
X4.7051Y-3.7333
X5.5837Y-3.4203
X5.5837Y-3.7203
X5.7657Y-3.4134
X5.7657Y-3.7134
X5.9409Y-3.4203
X5.9409Y-3.7203
T4
X3.0624Y-5.0689
X3.0654Y-4.6516
X3.1624Y-5.0689
X3.1654Y-4.6516
T5
X2.8222Y-4.5472
X2.8222Y-4.7244
X2.8222Y-5.0152
X2.8222Y-5.1923
T6
X3.1644Y-1.8413
X3.1644Y-1.9413
X3.1644Y-2.0413
X3.5417Y-2.4055
X3.5417Y-3.1055
X3.5417Y-4.1378
X3.5417Y-4.8378
X3.5451Y-5.212
X3.5451Y-5.312
X3.6307Y-2.0148
X3.6307Y-2.1148
X3.6417Y-2.4055
X3.6417Y-3.1055
X3.6417Y-4.1378
X3.6417Y-4.8378
X3.6451Y-5.212
X3.6451Y-5.312
X3.7307Y-2.0148
X3.7307Y-2.1148
X3.7417Y-2.4055
X3.7417Y-3.1055
X3.7417Y-4.1378
X3.7417Y-4.8378
X3.7451Y-5.212
X3.7451Y-5.312
X3.8307Y-2.0148
X3.8307Y-2.1148
X3.8417Y-2.4055
X3.8417Y-3.1055
X3.8417Y-4.1378
X3.8417Y-4.8378
X3.8451Y-5.212
X3.8451Y-5.312
X3.9307Y-2.0148
X3.9307Y-2.1148
X3.9417Y-2.4055
X3.9417Y-3.1055
X3.9417Y-4.1378
X3.9417Y-4.8378
X3.9451Y-5.212
X3.9451Y-5.312
X4.0307Y-2.0148
X4.0307Y-2.1148
X4.0417Y-2.4055
X4.0417Y-3.1055
X4.0417Y-4.1378
X4.0417Y-4.8378
X4.0451Y-5.212
X4.0451Y-5.312
X4.1307Y-2.0148
X4.1307Y-2.1148
X4.1417Y-2.4055
X4.1417Y-3.1055
X4.1417Y-4.1378
X4.1417Y-4.8378
X4.1451Y-5.212
X4.1451Y-5.312
X4.2307Y-2.0148
X4.2307Y-2.1148
X4.2417Y-2.4055
X4.2417Y-3.1055
X4.2417Y-4.1378
X4.2417Y-4.8378
X4.2451Y-5.212
X4.2451Y-5.312
X4.3307Y-2.0148
X4.3307Y-2.1148
X4.3417Y-2.4055
X4.3417Y-3.1055
X4.3417Y-4.1378
X4.3417Y-4.8378
X4.3451Y-5.212
X4.3451Y-5.312
X4.4307Y-2.0148
X4.4307Y-2.1148
X4.4417Y-2.4055
X4.4417Y-3.1055
X4.4417Y-4.1378
X4.4417Y-4.8378
X4.4451Y-5.212
X4.4451Y-5.312
X4.5307Y-2.0148
X4.5307Y-2.1148
X4.5417Y-2.4055
X4.5417Y-3.1055
X4.5417Y-4.1378
X4.5417Y-4.8378
X4.5451Y-5.212
X4.5451Y-5.312
X4.6307Y-2.0148
X4.6307Y-2.1148
X4.6417Y-2.4055
X4.6417Y-3.1055
X4.6417Y-4.1378
X4.6417Y-4.8378
X4.6451Y-5.212
X4.6451Y-5.312
X4.7161Y-2.5325
X4.7161Y-2.6325
X4.7161Y-2.7325
X4.7161Y-4.2648
X4.7161Y-4.3648
X4.7161Y-4.4648
X4.7307Y-2.0148
X4.7307Y-2.1148
X4.7417Y-2.4055
X4.7417Y-3.1055
X4.7417Y-4.1378
X4.7417Y-4.8378
X4.7451Y-5.212
X4.7451Y-5.312
X4.8307Y-2.0148
X4.8307Y-2.1148
X4.8417Y-2.4055
X4.8417Y-3.1055
X4.8417Y-4.1378
X4.8417Y-4.8378
X4.8451Y-5.212
X4.8451Y-5.312
X4.9307Y-2.0148
X4.9307Y-2.1148
X4.9417Y-2.4055
X4.9417Y-3.1055
X4.9417Y-4.1378
X4.9417Y-4.8378
X4.9451Y-5.212
X4.9451Y-5.312
X4.9715Y-3.6998
X5.0307Y-2.0148
X5.0307Y-2.1148
X5.0417Y-2.4055
X5.0417Y-3.1055
X5.0417Y-4.1378
X5.0417Y-4.8378
X5.0451Y-5.212
X5.0451Y-5.312
X5.1307Y-2.0148
X5.1307Y-2.1148
X5.1417Y-2.4055
X5.1417Y-3.1055
X5.1417Y-4.1378
X5.1417Y-4.8378
X5.1451Y-5.212
X5.1451Y-5.312
X5.2307Y-2.0148
X5.2307Y-2.1148
X5.2417Y-2.4055
X5.2417Y-3.1055
X5.2417Y-4.1378
X5.2417Y-4.8378
X5.2707Y-3.6998
X5.3417Y-2.4055
X5.3417Y-3.1055
X5.3417Y-4.1378
X5.3417Y-4.8378
X5.4417Y-2.4055
X5.4417Y-3.1055
X5.4417Y-4.1378
X5.4417Y-4.8378
X5.6555Y-2.2933
X5.6555Y-2.3933
X5.6555Y-2.4933
X5.6555Y-2.5933
T7
X5.7992Y-4.1535
X5.7992Y-4.6535
T8
X2.9203Y-4.4976
X2.9203Y-4.7736
X2.9203Y-4.9656
X2.9203Y-5.2415
M30
