%TF.GenerationSoftware,KiCad,Pcbnew,9.0.0*%
%TF.CreationDate,2025-03-03T15:33:34+01:00*%
%TF.ProjectId,X68KFDPI2,5836384b-4644-4504-9932-2e6b69636164,rev?*%
%TF.SameCoordinates,Original*%
%TF.FileFunction,Legend,Top*%
%TF.FilePolarity,Positive*%
%FSLAX46Y46*%
G04 Gerber Fmt 4.6, Leading zero omitted, Abs format (unit mm)*
G04 Created by KiCad (PCBNEW 9.0.0) date 2025-03-03 15:33:34*
%MOMM*%
%LPD*%
G01*
G04 APERTURE LIST*
G04 Aperture macros list*
%AMRoundRect*
0 Rectangle with rounded corners*
0 $1 Rounding radius*
0 $2 $3 $4 $5 $6 $7 $8 $9 X,Y pos of 4 corners*
0 Add a 4 corners polygon primitive as box body*
4,1,4,$2,$3,$4,$5,$6,$7,$8,$9,$2,$3,0*
0 Add four circle primitives for the rounded corners*
1,1,$1+$1,$2,$3*
1,1,$1+$1,$4,$5*
1,1,$1+$1,$6,$7*
1,1,$1+$1,$8,$9*
0 Add four rect primitives between the rounded corners*
20,1,$1+$1,$2,$3,$4,$5,0*
20,1,$1+$1,$4,$5,$6,$7,0*
20,1,$1+$1,$6,$7,$8,$9,0*
20,1,$1+$1,$8,$9,$2,$3,0*%
%AMFreePoly0*
4,1,25,1.935306,0.780194,1.989950,0.741421,2.341421,0.389950,2.388777,0.314585,2.400000,0.248529,2.400000,-0.248529,2.380194,-0.335306,2.341421,-0.389950,1.989950,-0.741421,1.914585,-0.788777,1.848529,-0.800000,-0.248529,-0.800000,-0.335306,-0.780194,-0.389950,-0.741421,-0.741421,-0.389950,-0.788777,-0.314585,-0.800000,-0.248529,-0.800000,0.248529,-0.780194,0.335306,-0.741421,0.389950,
-0.389950,0.741421,-0.314585,0.788777,-0.248529,0.800000,1.848529,0.800000,1.935306,0.780194,1.935306,0.780194,$1*%
%AMFreePoly1*
4,1,25,0.335306,0.780194,0.389950,0.741421,0.741421,0.389950,0.788777,0.314585,0.800000,0.248529,0.800000,-0.248529,0.780194,-0.335306,0.741421,-0.389950,0.389950,-0.741421,0.314585,-0.788777,0.248529,-0.800000,-0.248529,-0.800000,-0.335306,-0.780194,-0.389950,-0.741421,-0.741421,-0.389950,-0.788777,-0.314585,-0.800000,-0.248529,-0.800000,0.248529,-0.780194,0.335306,-0.741421,0.389950,
-0.389950,0.741421,-0.314585,0.788777,-0.248529,0.800000,0.248529,0.800000,0.335306,0.780194,0.335306,0.780194,$1*%
G04 Aperture macros list end*
%ADD10C,0.250000*%
%ADD11C,0.150000*%
%ADD12C,0.200000*%
%ADD13C,0.300000*%
%ADD14C,0.120000*%
%ADD15C,0.000000*%
%ADD16RoundRect,0.250000X0.625000X-0.350000X0.625000X0.350000X-0.625000X0.350000X-0.625000X-0.350000X0*%
%ADD17O,1.750000X1.200000*%
%ADD18C,1.600000*%
%ADD19O,1.600000X1.600000*%
%ADD20FreePoly0,90.000000*%
%ADD21FreePoly1,90.000000*%
%ADD22O,1.600000X3.200000*%
%ADD23RoundRect,0.200000X0.600000X-1.400000X0.600000X1.400000X-0.600000X1.400000X-0.600000X-1.400000X0*%
%ADD24RoundRect,0.200000X0.600000X-0.600000X0.600000X0.600000X-0.600000X0.600000X-0.600000X-0.600000X0*%
%ADD25R,1.574800X1.574800*%
%ADD26C,1.574800*%
%ADD27RoundRect,0.300000X0.450000X-0.450000X0.450000X0.450000X-0.450000X0.450000X-0.450000X-0.450000X0*%
%ADD28R,1.700000X1.700000*%
%ADD29O,1.700000X1.700000*%
%ADD30RoundRect,0.250000X0.550000X-0.550000X0.550000X0.550000X-0.550000X0.550000X-0.550000X-0.550000X0*%
%ADD31RoundRect,0.250000X-0.600000X0.600000X-0.600000X-0.600000X0.600000X-0.600000X0.600000X0.600000X0*%
%ADD32C,1.700000*%
%ADD33R,1.800000X1.800000*%
%ADD34C,1.800000*%
%ADD35R,2.400000X2.400000*%
%ADD36O,2.400000X2.400000*%
%ADD37RoundRect,0.250000X0.600000X-0.600000X0.600000X0.600000X-0.600000X0.600000X-0.600000X-0.600000X0*%
%ADD38C,2.100000*%
%ADD39C,1.750000*%
%ADD40R,2.000000X2.000000*%
%ADD41C,2.000000*%
%ADD42C,0.900000*%
%ADD43R,0.700000X1.600000*%
%ADD44R,1.200000X2.200000*%
%ADD45R,1.600000X1.400000*%
%ADD46R,1.200000X1.400000*%
G04 APERTURE END LIST*
D10*
X85840474Y-126187238D02*
X87173807Y-128187238D01*
X87173807Y-126187238D02*
X85840474Y-128187238D01*
X88792855Y-126187238D02*
X88411902Y-126187238D01*
X88411902Y-126187238D02*
X88221426Y-126282476D01*
X88221426Y-126282476D02*
X88126188Y-126377714D01*
X88126188Y-126377714D02*
X87935712Y-126663428D01*
X87935712Y-126663428D02*
X87840474Y-127044380D01*
X87840474Y-127044380D02*
X87840474Y-127806285D01*
X87840474Y-127806285D02*
X87935712Y-127996761D01*
X87935712Y-127996761D02*
X88030950Y-128092000D01*
X88030950Y-128092000D02*
X88221426Y-128187238D01*
X88221426Y-128187238D02*
X88602379Y-128187238D01*
X88602379Y-128187238D02*
X88792855Y-128092000D01*
X88792855Y-128092000D02*
X88888093Y-127996761D01*
X88888093Y-127996761D02*
X88983331Y-127806285D01*
X88983331Y-127806285D02*
X88983331Y-127330095D01*
X88983331Y-127330095D02*
X88888093Y-127139619D01*
X88888093Y-127139619D02*
X88792855Y-127044380D01*
X88792855Y-127044380D02*
X88602379Y-126949142D01*
X88602379Y-126949142D02*
X88221426Y-126949142D01*
X88221426Y-126949142D02*
X88030950Y-127044380D01*
X88030950Y-127044380D02*
X87935712Y-127139619D01*
X87935712Y-127139619D02*
X87840474Y-127330095D01*
X90126188Y-127044380D02*
X89935712Y-126949142D01*
X89935712Y-126949142D02*
X89840474Y-126853904D01*
X89840474Y-126853904D02*
X89745236Y-126663428D01*
X89745236Y-126663428D02*
X89745236Y-126568190D01*
X89745236Y-126568190D02*
X89840474Y-126377714D01*
X89840474Y-126377714D02*
X89935712Y-126282476D01*
X89935712Y-126282476D02*
X90126188Y-126187238D01*
X90126188Y-126187238D02*
X90507141Y-126187238D01*
X90507141Y-126187238D02*
X90697617Y-126282476D01*
X90697617Y-126282476D02*
X90792855Y-126377714D01*
X90792855Y-126377714D02*
X90888093Y-126568190D01*
X90888093Y-126568190D02*
X90888093Y-126663428D01*
X90888093Y-126663428D02*
X90792855Y-126853904D01*
X90792855Y-126853904D02*
X90697617Y-126949142D01*
X90697617Y-126949142D02*
X90507141Y-127044380D01*
X90507141Y-127044380D02*
X90126188Y-127044380D01*
X90126188Y-127044380D02*
X89935712Y-127139619D01*
X89935712Y-127139619D02*
X89840474Y-127234857D01*
X89840474Y-127234857D02*
X89745236Y-127425333D01*
X89745236Y-127425333D02*
X89745236Y-127806285D01*
X89745236Y-127806285D02*
X89840474Y-127996761D01*
X89840474Y-127996761D02*
X89935712Y-128092000D01*
X89935712Y-128092000D02*
X90126188Y-128187238D01*
X90126188Y-128187238D02*
X90507141Y-128187238D01*
X90507141Y-128187238D02*
X90697617Y-128092000D01*
X90697617Y-128092000D02*
X90792855Y-127996761D01*
X90792855Y-127996761D02*
X90888093Y-127806285D01*
X90888093Y-127806285D02*
X90888093Y-127425333D01*
X90888093Y-127425333D02*
X90792855Y-127234857D01*
X90792855Y-127234857D02*
X90697617Y-127139619D01*
X90697617Y-127139619D02*
X90507141Y-127044380D01*
X91745236Y-128187238D02*
X91745236Y-126187238D01*
X92888093Y-128187238D02*
X92030950Y-127044380D01*
X92888093Y-126187238D02*
X91745236Y-127330095D01*
X94411903Y-127139619D02*
X93745236Y-127139619D01*
X93745236Y-128187238D02*
X93745236Y-126187238D01*
X93745236Y-126187238D02*
X94697617Y-126187238D01*
X95459522Y-128187238D02*
X95459522Y-126187238D01*
X95459522Y-126187238D02*
X95935712Y-126187238D01*
X95935712Y-126187238D02*
X96221427Y-126282476D01*
X96221427Y-126282476D02*
X96411903Y-126472952D01*
X96411903Y-126472952D02*
X96507141Y-126663428D01*
X96507141Y-126663428D02*
X96602379Y-127044380D01*
X96602379Y-127044380D02*
X96602379Y-127330095D01*
X96602379Y-127330095D02*
X96507141Y-127711047D01*
X96507141Y-127711047D02*
X96411903Y-127901523D01*
X96411903Y-127901523D02*
X96221427Y-128092000D01*
X96221427Y-128092000D02*
X95935712Y-128187238D01*
X95935712Y-128187238D02*
X95459522Y-128187238D01*
X97459522Y-128187238D02*
X97459522Y-126187238D01*
X97459522Y-126187238D02*
X98221427Y-126187238D01*
X98221427Y-126187238D02*
X98411903Y-126282476D01*
X98411903Y-126282476D02*
X98507141Y-126377714D01*
X98507141Y-126377714D02*
X98602379Y-126568190D01*
X98602379Y-126568190D02*
X98602379Y-126853904D01*
X98602379Y-126853904D02*
X98507141Y-127044380D01*
X98507141Y-127044380D02*
X98411903Y-127139619D01*
X98411903Y-127139619D02*
X98221427Y-127234857D01*
X98221427Y-127234857D02*
X97459522Y-127234857D01*
X99459522Y-128187238D02*
X99459522Y-126187238D01*
X100316665Y-126377714D02*
X100411903Y-126282476D01*
X100411903Y-126282476D02*
X100602379Y-126187238D01*
X100602379Y-126187238D02*
X101078570Y-126187238D01*
X101078570Y-126187238D02*
X101269046Y-126282476D01*
X101269046Y-126282476D02*
X101364284Y-126377714D01*
X101364284Y-126377714D02*
X101459522Y-126568190D01*
X101459522Y-126568190D02*
X101459522Y-126758666D01*
X101459522Y-126758666D02*
X101364284Y-127044380D01*
X101364284Y-127044380D02*
X100221427Y-128187238D01*
X100221427Y-128187238D02*
X101459522Y-128187238D01*
X102126189Y-126187238D02*
X102602379Y-128187238D01*
X102602379Y-128187238D02*
X102983332Y-126758666D01*
X102983332Y-126758666D02*
X103364284Y-128187238D01*
X103364284Y-128187238D02*
X103840475Y-126187238D01*
X106126189Y-128187238D02*
X106126189Y-126187238D01*
X106126189Y-126949142D02*
X106316665Y-126853904D01*
X106316665Y-126853904D02*
X106697618Y-126853904D01*
X106697618Y-126853904D02*
X106888094Y-126949142D01*
X106888094Y-126949142D02*
X106983332Y-127044380D01*
X106983332Y-127044380D02*
X107078570Y-127234857D01*
X107078570Y-127234857D02*
X107078570Y-127806285D01*
X107078570Y-127806285D02*
X106983332Y-127996761D01*
X106983332Y-127996761D02*
X106888094Y-128092000D01*
X106888094Y-128092000D02*
X106697618Y-128187238D01*
X106697618Y-128187238D02*
X106316665Y-128187238D01*
X106316665Y-128187238D02*
X106126189Y-128092000D01*
X107745237Y-126853904D02*
X108221427Y-128187238D01*
X108697618Y-126853904D02*
X108221427Y-128187238D01*
X108221427Y-128187238D02*
X108030951Y-128663428D01*
X108030951Y-128663428D02*
X107935713Y-128758666D01*
X107935713Y-128758666D02*
X107745237Y-128853904D01*
X110888095Y-127615809D02*
X111840476Y-127615809D01*
X110697619Y-128187238D02*
X111364285Y-126187238D01*
X111364285Y-126187238D02*
X112030952Y-128187238D01*
X112697619Y-127996761D02*
X112792857Y-128092000D01*
X112792857Y-128092000D02*
X112697619Y-128187238D01*
X112697619Y-128187238D02*
X112602381Y-128092000D01*
X112602381Y-128092000D02*
X112697619Y-127996761D01*
X112697619Y-127996761D02*
X112697619Y-128187238D01*
X115554762Y-126187238D02*
X115935715Y-126187238D01*
X115935715Y-126187238D02*
X116126191Y-126282476D01*
X116126191Y-126282476D02*
X116316667Y-126472952D01*
X116316667Y-126472952D02*
X116411905Y-126853904D01*
X116411905Y-126853904D02*
X116411905Y-127520571D01*
X116411905Y-127520571D02*
X116316667Y-127901523D01*
X116316667Y-127901523D02*
X116126191Y-128092000D01*
X116126191Y-128092000D02*
X115935715Y-128187238D01*
X115935715Y-128187238D02*
X115554762Y-128187238D01*
X115554762Y-128187238D02*
X115364286Y-128092000D01*
X115364286Y-128092000D02*
X115173810Y-127901523D01*
X115173810Y-127901523D02*
X115078572Y-127520571D01*
X115078572Y-127520571D02*
X115078572Y-126853904D01*
X115078572Y-126853904D02*
X115173810Y-126472952D01*
X115173810Y-126472952D02*
X115364286Y-126282476D01*
X115364286Y-126282476D02*
X115554762Y-126187238D01*
X116983334Y-126853904D02*
X117745238Y-126853904D01*
X117269048Y-126187238D02*
X117269048Y-127901523D01*
X117269048Y-127901523D02*
X117364286Y-128092000D01*
X117364286Y-128092000D02*
X117554762Y-128187238D01*
X117554762Y-128187238D02*
X117745238Y-128187238D01*
X118126191Y-126853904D02*
X118888095Y-126853904D01*
X118411905Y-126187238D02*
X118411905Y-127901523D01*
X118411905Y-127901523D02*
X118507143Y-128092000D01*
X118507143Y-128092000D02*
X118697619Y-128187238D01*
X118697619Y-128187238D02*
X118888095Y-128187238D01*
X120411905Y-128187238D02*
X120411905Y-127139619D01*
X120411905Y-127139619D02*
X120316667Y-126949142D01*
X120316667Y-126949142D02*
X120126191Y-126853904D01*
X120126191Y-126853904D02*
X119745238Y-126853904D01*
X119745238Y-126853904D02*
X119554762Y-126949142D01*
X120411905Y-128092000D02*
X120221429Y-128187238D01*
X120221429Y-128187238D02*
X119745238Y-128187238D01*
X119745238Y-128187238D02*
X119554762Y-128092000D01*
X119554762Y-128092000D02*
X119459524Y-127901523D01*
X119459524Y-127901523D02*
X119459524Y-127711047D01*
X119459524Y-127711047D02*
X119554762Y-127520571D01*
X119554762Y-127520571D02*
X119745238Y-127425333D01*
X119745238Y-127425333D02*
X120221429Y-127425333D01*
X120221429Y-127425333D02*
X120411905Y-127330095D01*
X121173810Y-126853904D02*
X121650000Y-128187238D01*
X121650000Y-128187238D02*
X122126191Y-126853904D01*
X122888096Y-128187238D02*
X122888096Y-126853904D01*
X122888096Y-126187238D02*
X122792858Y-126282476D01*
X122792858Y-126282476D02*
X122888096Y-126377714D01*
X122888096Y-126377714D02*
X122983334Y-126282476D01*
X122983334Y-126282476D02*
X122888096Y-126187238D01*
X122888096Y-126187238D02*
X122888096Y-126377714D01*
X124697620Y-128187238D02*
X124697620Y-127139619D01*
X124697620Y-127139619D02*
X124602382Y-126949142D01*
X124602382Y-126949142D02*
X124411906Y-126853904D01*
X124411906Y-126853904D02*
X124030953Y-126853904D01*
X124030953Y-126853904D02*
X123840477Y-126949142D01*
X124697620Y-128092000D02*
X124507144Y-128187238D01*
X124507144Y-128187238D02*
X124030953Y-128187238D01*
X124030953Y-128187238D02*
X123840477Y-128092000D01*
X123840477Y-128092000D02*
X123745239Y-127901523D01*
X123745239Y-127901523D02*
X123745239Y-127711047D01*
X123745239Y-127711047D02*
X123840477Y-127520571D01*
X123840477Y-127520571D02*
X124030953Y-127425333D01*
X124030953Y-127425333D02*
X124507144Y-127425333D01*
X124507144Y-127425333D02*
X124697620Y-127330095D01*
X125650001Y-126853904D02*
X125650001Y-128187238D01*
X125650001Y-127044380D02*
X125745239Y-126949142D01*
X125745239Y-126949142D02*
X125935715Y-126853904D01*
X125935715Y-126853904D02*
X126221430Y-126853904D01*
X126221430Y-126853904D02*
X126411906Y-126949142D01*
X126411906Y-126949142D02*
X126507144Y-127139619D01*
X126507144Y-127139619D02*
X126507144Y-128187238D01*
X127459525Y-128187238D02*
X127459525Y-126853904D01*
X127459525Y-126187238D02*
X127364287Y-126282476D01*
X127364287Y-126282476D02*
X127459525Y-126377714D01*
X127459525Y-126377714D02*
X127554763Y-126282476D01*
X127554763Y-126282476D02*
X127459525Y-126187238D01*
X127459525Y-126187238D02*
X127459525Y-126377714D01*
X130507145Y-128949142D02*
X130411906Y-128853904D01*
X130411906Y-128853904D02*
X130221430Y-128568190D01*
X130221430Y-128568190D02*
X130126192Y-128377714D01*
X130126192Y-128377714D02*
X130030954Y-128092000D01*
X130030954Y-128092000D02*
X129935716Y-127615809D01*
X129935716Y-127615809D02*
X129935716Y-127234857D01*
X129935716Y-127234857D02*
X130030954Y-126758666D01*
X130030954Y-126758666D02*
X130126192Y-126472952D01*
X130126192Y-126472952D02*
X130221430Y-126282476D01*
X130221430Y-126282476D02*
X130411906Y-125996761D01*
X130411906Y-125996761D02*
X130507145Y-125901523D01*
X131173811Y-126377714D02*
X131269049Y-126282476D01*
X131269049Y-126282476D02*
X131459525Y-126187238D01*
X131459525Y-126187238D02*
X131935716Y-126187238D01*
X131935716Y-126187238D02*
X132126192Y-126282476D01*
X132126192Y-126282476D02*
X132221430Y-126377714D01*
X132221430Y-126377714D02*
X132316668Y-126568190D01*
X132316668Y-126568190D02*
X132316668Y-126758666D01*
X132316668Y-126758666D02*
X132221430Y-127044380D01*
X132221430Y-127044380D02*
X131078573Y-128187238D01*
X131078573Y-128187238D02*
X132316668Y-128187238D01*
X133554763Y-126187238D02*
X133745240Y-126187238D01*
X133745240Y-126187238D02*
X133935716Y-126282476D01*
X133935716Y-126282476D02*
X134030954Y-126377714D01*
X134030954Y-126377714D02*
X134126192Y-126568190D01*
X134126192Y-126568190D02*
X134221430Y-126949142D01*
X134221430Y-126949142D02*
X134221430Y-127425333D01*
X134221430Y-127425333D02*
X134126192Y-127806285D01*
X134126192Y-127806285D02*
X134030954Y-127996761D01*
X134030954Y-127996761D02*
X133935716Y-128092000D01*
X133935716Y-128092000D02*
X133745240Y-128187238D01*
X133745240Y-128187238D02*
X133554763Y-128187238D01*
X133554763Y-128187238D02*
X133364287Y-128092000D01*
X133364287Y-128092000D02*
X133269049Y-127996761D01*
X133269049Y-127996761D02*
X133173811Y-127806285D01*
X133173811Y-127806285D02*
X133078573Y-127425333D01*
X133078573Y-127425333D02*
X133078573Y-126949142D01*
X133078573Y-126949142D02*
X133173811Y-126568190D01*
X133173811Y-126568190D02*
X133269049Y-126377714D01*
X133269049Y-126377714D02*
X133364287Y-126282476D01*
X133364287Y-126282476D02*
X133554763Y-126187238D01*
X134983335Y-126377714D02*
X135078573Y-126282476D01*
X135078573Y-126282476D02*
X135269049Y-126187238D01*
X135269049Y-126187238D02*
X135745240Y-126187238D01*
X135745240Y-126187238D02*
X135935716Y-126282476D01*
X135935716Y-126282476D02*
X136030954Y-126377714D01*
X136030954Y-126377714D02*
X136126192Y-126568190D01*
X136126192Y-126568190D02*
X136126192Y-126758666D01*
X136126192Y-126758666D02*
X136030954Y-127044380D01*
X136030954Y-127044380D02*
X134888097Y-128187238D01*
X134888097Y-128187238D02*
X136126192Y-128187238D01*
X137935716Y-126187238D02*
X136983335Y-126187238D01*
X136983335Y-126187238D02*
X136888097Y-127139619D01*
X136888097Y-127139619D02*
X136983335Y-127044380D01*
X136983335Y-127044380D02*
X137173811Y-126949142D01*
X137173811Y-126949142D02*
X137650002Y-126949142D01*
X137650002Y-126949142D02*
X137840478Y-127044380D01*
X137840478Y-127044380D02*
X137935716Y-127139619D01*
X137935716Y-127139619D02*
X138030954Y-127330095D01*
X138030954Y-127330095D02*
X138030954Y-127806285D01*
X138030954Y-127806285D02*
X137935716Y-127996761D01*
X137935716Y-127996761D02*
X137840478Y-128092000D01*
X137840478Y-128092000D02*
X137650002Y-128187238D01*
X137650002Y-128187238D02*
X137173811Y-128187238D01*
X137173811Y-128187238D02*
X136983335Y-128092000D01*
X136983335Y-128092000D02*
X136888097Y-127996761D01*
X138697621Y-128949142D02*
X138792859Y-128853904D01*
X138792859Y-128853904D02*
X138983335Y-128568190D01*
X138983335Y-128568190D02*
X139078573Y-128377714D01*
X139078573Y-128377714D02*
X139173811Y-128092000D01*
X139173811Y-128092000D02*
X139269049Y-127615809D01*
X139269049Y-127615809D02*
X139269049Y-127234857D01*
X139269049Y-127234857D02*
X139173811Y-126758666D01*
X139173811Y-126758666D02*
X139078573Y-126472952D01*
X139078573Y-126472952D02*
X138983335Y-126282476D01*
X138983335Y-126282476D02*
X138792859Y-125996761D01*
X138792859Y-125996761D02*
X138697621Y-125901523D01*
D11*
X77421009Y-53629887D02*
X77421009Y-53963220D01*
X77944819Y-53963220D02*
X76944819Y-53963220D01*
X76944819Y-53963220D02*
X76944819Y-53487030D01*
X77944819Y-53106077D02*
X76944819Y-53106077D01*
X76944819Y-53106077D02*
X76944819Y-52867982D01*
X76944819Y-52867982D02*
X76992438Y-52725125D01*
X76992438Y-52725125D02*
X77087676Y-52629887D01*
X77087676Y-52629887D02*
X77182914Y-52582268D01*
X77182914Y-52582268D02*
X77373390Y-52534649D01*
X77373390Y-52534649D02*
X77516247Y-52534649D01*
X77516247Y-52534649D02*
X77706723Y-52582268D01*
X77706723Y-52582268D02*
X77801961Y-52629887D01*
X77801961Y-52629887D02*
X77897200Y-52725125D01*
X77897200Y-52725125D02*
X77944819Y-52867982D01*
X77944819Y-52867982D02*
X77944819Y-53106077D01*
X77944819Y-52106077D02*
X76944819Y-52106077D01*
X76944819Y-52106077D02*
X76944819Y-51867982D01*
X76944819Y-51867982D02*
X76992438Y-51725125D01*
X76992438Y-51725125D02*
X77087676Y-51629887D01*
X77087676Y-51629887D02*
X77182914Y-51582268D01*
X77182914Y-51582268D02*
X77373390Y-51534649D01*
X77373390Y-51534649D02*
X77516247Y-51534649D01*
X77516247Y-51534649D02*
X77706723Y-51582268D01*
X77706723Y-51582268D02*
X77801961Y-51629887D01*
X77801961Y-51629887D02*
X77897200Y-51725125D01*
X77897200Y-51725125D02*
X77944819Y-51867982D01*
X77944819Y-51867982D02*
X77944819Y-52106077D01*
X77849580Y-51106077D02*
X77897200Y-51058458D01*
X77897200Y-51058458D02*
X77944819Y-51106077D01*
X77944819Y-51106077D02*
X77897200Y-51153696D01*
X77897200Y-51153696D02*
X77849580Y-51106077D01*
X77849580Y-51106077D02*
X77944819Y-51106077D01*
X77325771Y-51106077D02*
X77373390Y-51058458D01*
X77373390Y-51058458D02*
X77421009Y-51106077D01*
X77421009Y-51106077D02*
X77373390Y-51153696D01*
X77373390Y-51153696D02*
X77325771Y-51106077D01*
X77325771Y-51106077D02*
X77421009Y-51106077D01*
X76944819Y-49677506D02*
X76944819Y-49582268D01*
X76944819Y-49582268D02*
X76992438Y-49487030D01*
X76992438Y-49487030D02*
X77040057Y-49439411D01*
X77040057Y-49439411D02*
X77135295Y-49391792D01*
X77135295Y-49391792D02*
X77325771Y-49344173D01*
X77325771Y-49344173D02*
X77563866Y-49344173D01*
X77563866Y-49344173D02*
X77754342Y-49391792D01*
X77754342Y-49391792D02*
X77849580Y-49439411D01*
X77849580Y-49439411D02*
X77897200Y-49487030D01*
X77897200Y-49487030D02*
X77944819Y-49582268D01*
X77944819Y-49582268D02*
X77944819Y-49677506D01*
X77944819Y-49677506D02*
X77897200Y-49772744D01*
X77897200Y-49772744D02*
X77849580Y-49820363D01*
X77849580Y-49820363D02*
X77754342Y-49867982D01*
X77754342Y-49867982D02*
X77563866Y-49915601D01*
X77563866Y-49915601D02*
X77325771Y-49915601D01*
X77325771Y-49915601D02*
X77135295Y-49867982D01*
X77135295Y-49867982D02*
X77040057Y-49820363D01*
X77040057Y-49820363D02*
X76992438Y-49772744D01*
X76992438Y-49772744D02*
X76944819Y-49677506D01*
X77897200Y-48867982D02*
X77944819Y-48867982D01*
X77944819Y-48867982D02*
X78040057Y-48915601D01*
X78040057Y-48915601D02*
X78087676Y-48963220D01*
X77944819Y-47915602D02*
X77944819Y-48487030D01*
X77944819Y-48201316D02*
X76944819Y-48201316D01*
X76944819Y-48201316D02*
X77087676Y-48296554D01*
X77087676Y-48296554D02*
X77182914Y-48391792D01*
X77182914Y-48391792D02*
X77230533Y-48487030D01*
X76897200Y-46772745D02*
X78182914Y-47629887D01*
X77040057Y-46487030D02*
X76992438Y-46439411D01*
X76992438Y-46439411D02*
X76944819Y-46344173D01*
X76944819Y-46344173D02*
X76944819Y-46106078D01*
X76944819Y-46106078D02*
X76992438Y-46010840D01*
X76992438Y-46010840D02*
X77040057Y-45963221D01*
X77040057Y-45963221D02*
X77135295Y-45915602D01*
X77135295Y-45915602D02*
X77230533Y-45915602D01*
X77230533Y-45915602D02*
X77373390Y-45963221D01*
X77373390Y-45963221D02*
X77944819Y-46534649D01*
X77944819Y-46534649D02*
X77944819Y-45915602D01*
X77897200Y-45439411D02*
X77944819Y-45439411D01*
X77944819Y-45439411D02*
X78040057Y-45487030D01*
X78040057Y-45487030D02*
X78087676Y-45534649D01*
X76944819Y-45106078D02*
X76944819Y-44487031D01*
X76944819Y-44487031D02*
X77325771Y-44820364D01*
X77325771Y-44820364D02*
X77325771Y-44677507D01*
X77325771Y-44677507D02*
X77373390Y-44582269D01*
X77373390Y-44582269D02*
X77421009Y-44534650D01*
X77421009Y-44534650D02*
X77516247Y-44487031D01*
X77516247Y-44487031D02*
X77754342Y-44487031D01*
X77754342Y-44487031D02*
X77849580Y-44534650D01*
X77849580Y-44534650D02*
X77897200Y-44582269D01*
X77897200Y-44582269D02*
X77944819Y-44677507D01*
X77944819Y-44677507D02*
X77944819Y-44963221D01*
X77944819Y-44963221D02*
X77897200Y-45058459D01*
X77897200Y-45058459D02*
X77849580Y-45106078D01*
D12*
X142710714Y-46911154D02*
X141996428Y-46911154D01*
X141996428Y-46911154D02*
X141925000Y-47625440D01*
X141925000Y-47625440D02*
X141996428Y-47554011D01*
X141996428Y-47554011D02*
X142139286Y-47482583D01*
X142139286Y-47482583D02*
X142496428Y-47482583D01*
X142496428Y-47482583D02*
X142639286Y-47554011D01*
X142639286Y-47554011D02*
X142710714Y-47625440D01*
X142710714Y-47625440D02*
X142782143Y-47768297D01*
X142782143Y-47768297D02*
X142782143Y-48125440D01*
X142782143Y-48125440D02*
X142710714Y-48268297D01*
X142710714Y-48268297D02*
X142639286Y-48339726D01*
X142639286Y-48339726D02*
X142496428Y-48411154D01*
X142496428Y-48411154D02*
X142139286Y-48411154D01*
X142139286Y-48411154D02*
X141996428Y-48339726D01*
X141996428Y-48339726D02*
X141925000Y-48268297D01*
X143210714Y-46911154D02*
X143710714Y-48411154D01*
X143710714Y-48411154D02*
X144210714Y-46911154D01*
X141853571Y-49397499D02*
X141710714Y-49326070D01*
X141710714Y-49326070D02*
X141496428Y-49326070D01*
X141496428Y-49326070D02*
X141282142Y-49397499D01*
X141282142Y-49397499D02*
X141139285Y-49540356D01*
X141139285Y-49540356D02*
X141067856Y-49683213D01*
X141067856Y-49683213D02*
X140996428Y-49968927D01*
X140996428Y-49968927D02*
X140996428Y-50183213D01*
X140996428Y-50183213D02*
X141067856Y-50468927D01*
X141067856Y-50468927D02*
X141139285Y-50611784D01*
X141139285Y-50611784D02*
X141282142Y-50754642D01*
X141282142Y-50754642D02*
X141496428Y-50826070D01*
X141496428Y-50826070D02*
X141639285Y-50826070D01*
X141639285Y-50826070D02*
X141853571Y-50754642D01*
X141853571Y-50754642D02*
X141924999Y-50683213D01*
X141924999Y-50683213D02*
X141924999Y-50183213D01*
X141924999Y-50183213D02*
X141639285Y-50183213D01*
X142567856Y-50826070D02*
X142567856Y-49326070D01*
X142567856Y-49326070D02*
X143424999Y-50826070D01*
X143424999Y-50826070D02*
X143424999Y-49326070D01*
X144139285Y-50826070D02*
X144139285Y-49326070D01*
X144139285Y-49326070D02*
X144496428Y-49326070D01*
X144496428Y-49326070D02*
X144710714Y-49397499D01*
X144710714Y-49397499D02*
X144853571Y-49540356D01*
X144853571Y-49540356D02*
X144925000Y-49683213D01*
X144925000Y-49683213D02*
X144996428Y-49968927D01*
X144996428Y-49968927D02*
X144996428Y-50183213D01*
X144996428Y-50183213D02*
X144925000Y-50468927D01*
X144925000Y-50468927D02*
X144853571Y-50611784D01*
X144853571Y-50611784D02*
X144710714Y-50754642D01*
X144710714Y-50754642D02*
X144496428Y-50826070D01*
X144496428Y-50826070D02*
X144139285Y-50826070D01*
X141853571Y-51812415D02*
X141710714Y-51740986D01*
X141710714Y-51740986D02*
X141496428Y-51740986D01*
X141496428Y-51740986D02*
X141282142Y-51812415D01*
X141282142Y-51812415D02*
X141139285Y-51955272D01*
X141139285Y-51955272D02*
X141067856Y-52098129D01*
X141067856Y-52098129D02*
X140996428Y-52383843D01*
X140996428Y-52383843D02*
X140996428Y-52598129D01*
X140996428Y-52598129D02*
X141067856Y-52883843D01*
X141067856Y-52883843D02*
X141139285Y-53026700D01*
X141139285Y-53026700D02*
X141282142Y-53169558D01*
X141282142Y-53169558D02*
X141496428Y-53240986D01*
X141496428Y-53240986D02*
X141639285Y-53240986D01*
X141639285Y-53240986D02*
X141853571Y-53169558D01*
X141853571Y-53169558D02*
X141924999Y-53098129D01*
X141924999Y-53098129D02*
X141924999Y-52598129D01*
X141924999Y-52598129D02*
X141639285Y-52598129D01*
X142567856Y-53240986D02*
X142567856Y-51740986D01*
X142567856Y-51740986D02*
X143424999Y-53240986D01*
X143424999Y-53240986D02*
X143424999Y-51740986D01*
X144139285Y-53240986D02*
X144139285Y-51740986D01*
X144139285Y-51740986D02*
X144496428Y-51740986D01*
X144496428Y-51740986D02*
X144710714Y-51812415D01*
X144710714Y-51812415D02*
X144853571Y-51955272D01*
X144853571Y-51955272D02*
X144925000Y-52098129D01*
X144925000Y-52098129D02*
X144996428Y-52383843D01*
X144996428Y-52383843D02*
X144996428Y-52598129D01*
X144996428Y-52598129D02*
X144925000Y-52883843D01*
X144925000Y-52883843D02*
X144853571Y-53026700D01*
X144853571Y-53026700D02*
X144710714Y-53169558D01*
X144710714Y-53169558D02*
X144496428Y-53240986D01*
X144496428Y-53240986D02*
X144139285Y-53240986D01*
X142032142Y-54655902D02*
X142032142Y-55655902D01*
X142032142Y-54798759D02*
X142103571Y-54727331D01*
X142103571Y-54727331D02*
X142246428Y-54655902D01*
X142246428Y-54655902D02*
X142460714Y-54655902D01*
X142460714Y-54655902D02*
X142603571Y-54727331D01*
X142603571Y-54727331D02*
X142675000Y-54870188D01*
X142675000Y-54870188D02*
X142675000Y-55655902D01*
X144032143Y-55584474D02*
X143889285Y-55655902D01*
X143889285Y-55655902D02*
X143603571Y-55655902D01*
X143603571Y-55655902D02*
X143460714Y-55584474D01*
X143460714Y-55584474D02*
X143389285Y-55513045D01*
X143389285Y-55513045D02*
X143317857Y-55370188D01*
X143317857Y-55370188D02*
X143317857Y-54941616D01*
X143317857Y-54941616D02*
X143389285Y-54798759D01*
X143389285Y-54798759D02*
X143460714Y-54727331D01*
X143460714Y-54727331D02*
X143603571Y-54655902D01*
X143603571Y-54655902D02*
X143889285Y-54655902D01*
X143889285Y-54655902D02*
X144032143Y-54727331D01*
X71503571Y-57597314D02*
X71503571Y-55797314D01*
X71503571Y-56654457D02*
X72532142Y-56654457D01*
X72532142Y-57597314D02*
X72532142Y-55797314D01*
X73389285Y-57597314D02*
X73389285Y-55797314D01*
X73389285Y-55797314D02*
X73817856Y-55797314D01*
X73817856Y-55797314D02*
X74074999Y-55883028D01*
X74074999Y-55883028D02*
X74246428Y-56054457D01*
X74246428Y-56054457D02*
X74332142Y-56225885D01*
X74332142Y-56225885D02*
X74417856Y-56568742D01*
X74417856Y-56568742D02*
X74417856Y-56825885D01*
X74417856Y-56825885D02*
X74332142Y-57168742D01*
X74332142Y-57168742D02*
X74246428Y-57340171D01*
X74246428Y-57340171D02*
X74074999Y-57511600D01*
X74074999Y-57511600D02*
X73817856Y-57597314D01*
X73817856Y-57597314D02*
X73389285Y-57597314D01*
X75532142Y-55797314D02*
X75703571Y-55797314D01*
X75703571Y-55797314D02*
X75874999Y-55883028D01*
X75874999Y-55883028D02*
X75960714Y-55968742D01*
X75960714Y-55968742D02*
X76046428Y-56140171D01*
X76046428Y-56140171D02*
X76132142Y-56483028D01*
X76132142Y-56483028D02*
X76132142Y-56911600D01*
X76132142Y-56911600D02*
X76046428Y-57254457D01*
X76046428Y-57254457D02*
X75960714Y-57425885D01*
X75960714Y-57425885D02*
X75874999Y-57511600D01*
X75874999Y-57511600D02*
X75703571Y-57597314D01*
X75703571Y-57597314D02*
X75532142Y-57597314D01*
X75532142Y-57597314D02*
X75360714Y-57511600D01*
X75360714Y-57511600D02*
X75274999Y-57425885D01*
X75274999Y-57425885D02*
X75189285Y-57254457D01*
X75189285Y-57254457D02*
X75103571Y-56911600D01*
X75103571Y-56911600D02*
X75103571Y-56483028D01*
X75103571Y-56483028D02*
X75189285Y-56140171D01*
X75189285Y-56140171D02*
X75274999Y-55968742D01*
X75274999Y-55968742D02*
X75360714Y-55883028D01*
X75360714Y-55883028D02*
X75532142Y-55797314D01*
X71503571Y-85622314D02*
X71503571Y-83822314D01*
X71503571Y-84679457D02*
X72532142Y-84679457D01*
X72532142Y-85622314D02*
X72532142Y-83822314D01*
X73389285Y-85622314D02*
X73389285Y-83822314D01*
X73389285Y-83822314D02*
X73817856Y-83822314D01*
X73817856Y-83822314D02*
X74074999Y-83908028D01*
X74074999Y-83908028D02*
X74246428Y-84079457D01*
X74246428Y-84079457D02*
X74332142Y-84250885D01*
X74332142Y-84250885D02*
X74417856Y-84593742D01*
X74417856Y-84593742D02*
X74417856Y-84850885D01*
X74417856Y-84850885D02*
X74332142Y-85193742D01*
X74332142Y-85193742D02*
X74246428Y-85365171D01*
X74246428Y-85365171D02*
X74074999Y-85536600D01*
X74074999Y-85536600D02*
X73817856Y-85622314D01*
X73817856Y-85622314D02*
X73389285Y-85622314D01*
X76132142Y-85622314D02*
X75103571Y-85622314D01*
X75617856Y-85622314D02*
X75617856Y-83822314D01*
X75617856Y-83822314D02*
X75446428Y-84079457D01*
X75446428Y-84079457D02*
X75274999Y-84250885D01*
X75274999Y-84250885D02*
X75103571Y-84336600D01*
D11*
X82285588Y-109469819D02*
X81714160Y-109469819D01*
X81999874Y-109469819D02*
X81999874Y-108469819D01*
X81999874Y-108469819D02*
X81904636Y-108612676D01*
X81904636Y-108612676D02*
X81809398Y-108707914D01*
X81809398Y-108707914D02*
X81714160Y-108755533D01*
X82904636Y-108469819D02*
X82999874Y-108469819D01*
X82999874Y-108469819D02*
X83095112Y-108517438D01*
X83095112Y-108517438D02*
X83142731Y-108565057D01*
X83142731Y-108565057D02*
X83190350Y-108660295D01*
X83190350Y-108660295D02*
X83237969Y-108850771D01*
X83237969Y-108850771D02*
X83237969Y-109088866D01*
X83237969Y-109088866D02*
X83190350Y-109279342D01*
X83190350Y-109279342D02*
X83142731Y-109374580D01*
X83142731Y-109374580D02*
X83095112Y-109422200D01*
X83095112Y-109422200D02*
X82999874Y-109469819D01*
X82999874Y-109469819D02*
X82904636Y-109469819D01*
X82904636Y-109469819D02*
X82809398Y-109422200D01*
X82809398Y-109422200D02*
X82761779Y-109374580D01*
X82761779Y-109374580D02*
X82714160Y-109279342D01*
X82714160Y-109279342D02*
X82666541Y-109088866D01*
X82666541Y-109088866D02*
X82666541Y-108850771D01*
X82666541Y-108850771D02*
X82714160Y-108660295D01*
X82714160Y-108660295D02*
X82761779Y-108565057D01*
X82761779Y-108565057D02*
X82809398Y-108517438D01*
X82809398Y-108517438D02*
X82904636Y-108469819D01*
X83666541Y-109469819D02*
X83666541Y-108469819D01*
X83761779Y-109088866D02*
X84047493Y-109469819D01*
X84047493Y-108803152D02*
X83666541Y-109184104D01*
X83096009Y-144379887D02*
X83096009Y-144713220D01*
X83619819Y-144713220D02*
X82619819Y-144713220D01*
X82619819Y-144713220D02*
X82619819Y-144237030D01*
X83619819Y-143856077D02*
X82619819Y-143856077D01*
X82619819Y-143856077D02*
X82619819Y-143617982D01*
X82619819Y-143617982D02*
X82667438Y-143475125D01*
X82667438Y-143475125D02*
X82762676Y-143379887D01*
X82762676Y-143379887D02*
X82857914Y-143332268D01*
X82857914Y-143332268D02*
X83048390Y-143284649D01*
X83048390Y-143284649D02*
X83191247Y-143284649D01*
X83191247Y-143284649D02*
X83381723Y-143332268D01*
X83381723Y-143332268D02*
X83476961Y-143379887D01*
X83476961Y-143379887D02*
X83572200Y-143475125D01*
X83572200Y-143475125D02*
X83619819Y-143617982D01*
X83619819Y-143617982D02*
X83619819Y-143856077D01*
X83619819Y-142856077D02*
X82619819Y-142856077D01*
X82619819Y-142856077D02*
X82619819Y-142617982D01*
X82619819Y-142617982D02*
X82667438Y-142475125D01*
X82667438Y-142475125D02*
X82762676Y-142379887D01*
X82762676Y-142379887D02*
X82857914Y-142332268D01*
X82857914Y-142332268D02*
X83048390Y-142284649D01*
X83048390Y-142284649D02*
X83191247Y-142284649D01*
X83191247Y-142284649D02*
X83381723Y-142332268D01*
X83381723Y-142332268D02*
X83476961Y-142379887D01*
X83476961Y-142379887D02*
X83572200Y-142475125D01*
X83572200Y-142475125D02*
X83619819Y-142617982D01*
X83619819Y-142617982D02*
X83619819Y-142856077D01*
X82953152Y-141237029D02*
X82953152Y-140856077D01*
X82619819Y-141094172D02*
X83476961Y-141094172D01*
X83476961Y-141094172D02*
X83572200Y-141046553D01*
X83572200Y-141046553D02*
X83619819Y-140951315D01*
X83619819Y-140951315D02*
X83619819Y-140856077D01*
X83619819Y-140379886D02*
X83572200Y-140475124D01*
X83572200Y-140475124D02*
X83524580Y-140522743D01*
X83524580Y-140522743D02*
X83429342Y-140570362D01*
X83429342Y-140570362D02*
X83143628Y-140570362D01*
X83143628Y-140570362D02*
X83048390Y-140522743D01*
X83048390Y-140522743D02*
X83000771Y-140475124D01*
X83000771Y-140475124D02*
X82953152Y-140379886D01*
X82953152Y-140379886D02*
X82953152Y-140237029D01*
X82953152Y-140237029D02*
X83000771Y-140141791D01*
X83000771Y-140141791D02*
X83048390Y-140094172D01*
X83048390Y-140094172D02*
X83143628Y-140046553D01*
X83143628Y-140046553D02*
X83429342Y-140046553D01*
X83429342Y-140046553D02*
X83524580Y-140094172D01*
X83524580Y-140094172D02*
X83572200Y-140141791D01*
X83572200Y-140141791D02*
X83619819Y-140237029D01*
X83619819Y-140237029D02*
X83619819Y-140379886D01*
X83096009Y-138522743D02*
X83096009Y-138856076D01*
X83619819Y-138856076D02*
X82619819Y-138856076D01*
X82619819Y-138856076D02*
X82619819Y-138379886D01*
X83619819Y-137856076D02*
X83572200Y-137951314D01*
X83572200Y-137951314D02*
X83476961Y-137998933D01*
X83476961Y-137998933D02*
X82619819Y-137998933D01*
X83619819Y-137332266D02*
X83572200Y-137427504D01*
X83572200Y-137427504D02*
X83524580Y-137475123D01*
X83524580Y-137475123D02*
X83429342Y-137522742D01*
X83429342Y-137522742D02*
X83143628Y-137522742D01*
X83143628Y-137522742D02*
X83048390Y-137475123D01*
X83048390Y-137475123D02*
X83000771Y-137427504D01*
X83000771Y-137427504D02*
X82953152Y-137332266D01*
X82953152Y-137332266D02*
X82953152Y-137189409D01*
X82953152Y-137189409D02*
X83000771Y-137094171D01*
X83000771Y-137094171D02*
X83048390Y-137046552D01*
X83048390Y-137046552D02*
X83143628Y-136998933D01*
X83143628Y-136998933D02*
X83429342Y-136998933D01*
X83429342Y-136998933D02*
X83524580Y-137046552D01*
X83524580Y-137046552D02*
X83572200Y-137094171D01*
X83572200Y-137094171D02*
X83619819Y-137189409D01*
X83619819Y-137189409D02*
X83619819Y-137332266D01*
X82953152Y-136570361D02*
X83953152Y-136570361D01*
X83000771Y-136570361D02*
X82953152Y-136475123D01*
X82953152Y-136475123D02*
X82953152Y-136284647D01*
X82953152Y-136284647D02*
X83000771Y-136189409D01*
X83000771Y-136189409D02*
X83048390Y-136141790D01*
X83048390Y-136141790D02*
X83143628Y-136094171D01*
X83143628Y-136094171D02*
X83429342Y-136094171D01*
X83429342Y-136094171D02*
X83524580Y-136141790D01*
X83524580Y-136141790D02*
X83572200Y-136189409D01*
X83572200Y-136189409D02*
X83619819Y-136284647D01*
X83619819Y-136284647D02*
X83619819Y-136475123D01*
X83619819Y-136475123D02*
X83572200Y-136570361D01*
X82953152Y-135665599D02*
X83953152Y-135665599D01*
X83000771Y-135665599D02*
X82953152Y-135570361D01*
X82953152Y-135570361D02*
X82953152Y-135379885D01*
X82953152Y-135379885D02*
X83000771Y-135284647D01*
X83000771Y-135284647D02*
X83048390Y-135237028D01*
X83048390Y-135237028D02*
X83143628Y-135189409D01*
X83143628Y-135189409D02*
X83429342Y-135189409D01*
X83429342Y-135189409D02*
X83524580Y-135237028D01*
X83524580Y-135237028D02*
X83572200Y-135284647D01*
X83572200Y-135284647D02*
X83619819Y-135379885D01*
X83619819Y-135379885D02*
X83619819Y-135570361D01*
X83619819Y-135570361D02*
X83572200Y-135665599D01*
X82953152Y-134856075D02*
X83619819Y-134617980D01*
X82953152Y-134379885D02*
X83619819Y-134617980D01*
X83619819Y-134617980D02*
X83857914Y-134713218D01*
X83857914Y-134713218D02*
X83905533Y-134760837D01*
X83905533Y-134760837D02*
X83953152Y-134856075D01*
X83619819Y-133237027D02*
X82619819Y-133237027D01*
X82619819Y-133237027D02*
X82619819Y-132998932D01*
X82619819Y-132998932D02*
X82667438Y-132856075D01*
X82667438Y-132856075D02*
X82762676Y-132760837D01*
X82762676Y-132760837D02*
X82857914Y-132713218D01*
X82857914Y-132713218D02*
X83048390Y-132665599D01*
X83048390Y-132665599D02*
X83191247Y-132665599D01*
X83191247Y-132665599D02*
X83381723Y-132713218D01*
X83381723Y-132713218D02*
X83476961Y-132760837D01*
X83476961Y-132760837D02*
X83572200Y-132856075D01*
X83572200Y-132856075D02*
X83619819Y-132998932D01*
X83619819Y-132998932D02*
X83619819Y-133237027D01*
X83619819Y-132237027D02*
X82953152Y-132237027D01*
X83143628Y-132237027D02*
X83048390Y-132189408D01*
X83048390Y-132189408D02*
X83000771Y-132141789D01*
X83000771Y-132141789D02*
X82953152Y-132046551D01*
X82953152Y-132046551D02*
X82953152Y-131951313D01*
X83619819Y-131617979D02*
X82953152Y-131617979D01*
X82619819Y-131617979D02*
X82667438Y-131665598D01*
X82667438Y-131665598D02*
X82715057Y-131617979D01*
X82715057Y-131617979D02*
X82667438Y-131570360D01*
X82667438Y-131570360D02*
X82619819Y-131617979D01*
X82619819Y-131617979D02*
X82715057Y-131617979D01*
X82953152Y-131237027D02*
X83619819Y-130998932D01*
X83619819Y-130998932D02*
X82953152Y-130760837D01*
X83572200Y-129998932D02*
X83619819Y-130094170D01*
X83619819Y-130094170D02*
X83619819Y-130284646D01*
X83619819Y-130284646D02*
X83572200Y-130379884D01*
X83572200Y-130379884D02*
X83476961Y-130427503D01*
X83476961Y-130427503D02*
X83096009Y-130427503D01*
X83096009Y-130427503D02*
X83000771Y-130379884D01*
X83000771Y-130379884D02*
X82953152Y-130284646D01*
X82953152Y-130284646D02*
X82953152Y-130094170D01*
X82953152Y-130094170D02*
X83000771Y-129998932D01*
X83000771Y-129998932D02*
X83096009Y-129951313D01*
X83096009Y-129951313D02*
X83191247Y-129951313D01*
X83191247Y-129951313D02*
X83286485Y-130427503D01*
X81810588Y-124719819D02*
X81239160Y-124719819D01*
X81524874Y-124719819D02*
X81524874Y-123719819D01*
X81524874Y-123719819D02*
X81429636Y-123862676D01*
X81429636Y-123862676D02*
X81334398Y-123957914D01*
X81334398Y-123957914D02*
X81239160Y-124005533D01*
X82429636Y-123719819D02*
X82524874Y-123719819D01*
X82524874Y-123719819D02*
X82620112Y-123767438D01*
X82620112Y-123767438D02*
X82667731Y-123815057D01*
X82667731Y-123815057D02*
X82715350Y-123910295D01*
X82715350Y-123910295D02*
X82762969Y-124100771D01*
X82762969Y-124100771D02*
X82762969Y-124338866D01*
X82762969Y-124338866D02*
X82715350Y-124529342D01*
X82715350Y-124529342D02*
X82667731Y-124624580D01*
X82667731Y-124624580D02*
X82620112Y-124672200D01*
X82620112Y-124672200D02*
X82524874Y-124719819D01*
X82524874Y-124719819D02*
X82429636Y-124719819D01*
X82429636Y-124719819D02*
X82334398Y-124672200D01*
X82334398Y-124672200D02*
X82286779Y-124624580D01*
X82286779Y-124624580D02*
X82239160Y-124529342D01*
X82239160Y-124529342D02*
X82191541Y-124338866D01*
X82191541Y-124338866D02*
X82191541Y-124100771D01*
X82191541Y-124100771D02*
X82239160Y-123910295D01*
X82239160Y-123910295D02*
X82286779Y-123815057D01*
X82286779Y-123815057D02*
X82334398Y-123767438D01*
X82334398Y-123767438D02*
X82429636Y-123719819D01*
X83191541Y-124719819D02*
X83191541Y-123719819D01*
X83286779Y-124338866D02*
X83572493Y-124719819D01*
X83572493Y-124053152D02*
X83191541Y-124434104D01*
X106486779Y-101094819D02*
X106486779Y-100094819D01*
X106486779Y-100094819D02*
X106867731Y-100094819D01*
X106867731Y-100094819D02*
X106962969Y-100142438D01*
X106962969Y-100142438D02*
X107010588Y-100190057D01*
X107010588Y-100190057D02*
X107058207Y-100285295D01*
X107058207Y-100285295D02*
X107058207Y-100428152D01*
X107058207Y-100428152D02*
X107010588Y-100523390D01*
X107010588Y-100523390D02*
X106962969Y-100571009D01*
X106962969Y-100571009D02*
X106867731Y-100618628D01*
X106867731Y-100618628D02*
X106486779Y-100618628D01*
X107486779Y-101094819D02*
X107486779Y-100428152D01*
X107486779Y-100094819D02*
X107439160Y-100142438D01*
X107439160Y-100142438D02*
X107486779Y-100190057D01*
X107486779Y-100190057D02*
X107534398Y-100142438D01*
X107534398Y-100142438D02*
X107486779Y-100094819D01*
X107486779Y-100094819D02*
X107486779Y-100190057D01*
X108391540Y-101047200D02*
X108296302Y-101094819D01*
X108296302Y-101094819D02*
X108105826Y-101094819D01*
X108105826Y-101094819D02*
X108010588Y-101047200D01*
X108010588Y-101047200D02*
X107962969Y-100999580D01*
X107962969Y-100999580D02*
X107915350Y-100904342D01*
X107915350Y-100904342D02*
X107915350Y-100618628D01*
X107915350Y-100618628D02*
X107962969Y-100523390D01*
X107962969Y-100523390D02*
X108010588Y-100475771D01*
X108010588Y-100475771D02*
X108105826Y-100428152D01*
X108105826Y-100428152D02*
X108296302Y-100428152D01*
X108296302Y-100428152D02*
X108391540Y-100475771D01*
X108962969Y-101094819D02*
X108867731Y-101047200D01*
X108867731Y-101047200D02*
X108820112Y-100999580D01*
X108820112Y-100999580D02*
X108772493Y-100904342D01*
X108772493Y-100904342D02*
X108772493Y-100618628D01*
X108772493Y-100618628D02*
X108820112Y-100523390D01*
X108820112Y-100523390D02*
X108867731Y-100475771D01*
X108867731Y-100475771D02*
X108962969Y-100428152D01*
X108962969Y-100428152D02*
X109105826Y-100428152D01*
X109105826Y-100428152D02*
X109201064Y-100475771D01*
X109201064Y-100475771D02*
X109248683Y-100523390D01*
X109248683Y-100523390D02*
X109296302Y-100618628D01*
X109296302Y-100618628D02*
X109296302Y-100904342D01*
X109296302Y-100904342D02*
X109248683Y-100999580D01*
X109248683Y-100999580D02*
X109201064Y-101047200D01*
X109201064Y-101047200D02*
X109105826Y-101094819D01*
X109105826Y-101094819D02*
X108962969Y-101094819D01*
X110820112Y-100571009D02*
X110486779Y-100571009D01*
X110486779Y-101094819D02*
X110486779Y-100094819D01*
X110486779Y-100094819D02*
X110962969Y-100094819D01*
X111486779Y-101094819D02*
X111391541Y-101047200D01*
X111391541Y-101047200D02*
X111343922Y-100951961D01*
X111343922Y-100951961D02*
X111343922Y-100094819D01*
X112010589Y-101094819D02*
X111915351Y-101047200D01*
X111915351Y-101047200D02*
X111867732Y-100999580D01*
X111867732Y-100999580D02*
X111820113Y-100904342D01*
X111820113Y-100904342D02*
X111820113Y-100618628D01*
X111820113Y-100618628D02*
X111867732Y-100523390D01*
X111867732Y-100523390D02*
X111915351Y-100475771D01*
X111915351Y-100475771D02*
X112010589Y-100428152D01*
X112010589Y-100428152D02*
X112153446Y-100428152D01*
X112153446Y-100428152D02*
X112248684Y-100475771D01*
X112248684Y-100475771D02*
X112296303Y-100523390D01*
X112296303Y-100523390D02*
X112343922Y-100618628D01*
X112343922Y-100618628D02*
X112343922Y-100904342D01*
X112343922Y-100904342D02*
X112296303Y-100999580D01*
X112296303Y-100999580D02*
X112248684Y-101047200D01*
X112248684Y-101047200D02*
X112153446Y-101094819D01*
X112153446Y-101094819D02*
X112010589Y-101094819D01*
X112772494Y-100428152D02*
X112772494Y-101428152D01*
X112772494Y-100475771D02*
X112867732Y-100428152D01*
X112867732Y-100428152D02*
X113058208Y-100428152D01*
X113058208Y-100428152D02*
X113153446Y-100475771D01*
X113153446Y-100475771D02*
X113201065Y-100523390D01*
X113201065Y-100523390D02*
X113248684Y-100618628D01*
X113248684Y-100618628D02*
X113248684Y-100904342D01*
X113248684Y-100904342D02*
X113201065Y-100999580D01*
X113201065Y-100999580D02*
X113153446Y-101047200D01*
X113153446Y-101047200D02*
X113058208Y-101094819D01*
X113058208Y-101094819D02*
X112867732Y-101094819D01*
X112867732Y-101094819D02*
X112772494Y-101047200D01*
X113677256Y-100428152D02*
X113677256Y-101428152D01*
X113677256Y-100475771D02*
X113772494Y-100428152D01*
X113772494Y-100428152D02*
X113962970Y-100428152D01*
X113962970Y-100428152D02*
X114058208Y-100475771D01*
X114058208Y-100475771D02*
X114105827Y-100523390D01*
X114105827Y-100523390D02*
X114153446Y-100618628D01*
X114153446Y-100618628D02*
X114153446Y-100904342D01*
X114153446Y-100904342D02*
X114105827Y-100999580D01*
X114105827Y-100999580D02*
X114058208Y-101047200D01*
X114058208Y-101047200D02*
X113962970Y-101094819D01*
X113962970Y-101094819D02*
X113772494Y-101094819D01*
X113772494Y-101094819D02*
X113677256Y-101047200D01*
X114486780Y-100428152D02*
X114724875Y-101094819D01*
X114962970Y-100428152D02*
X114724875Y-101094819D01*
X114724875Y-101094819D02*
X114629637Y-101332914D01*
X114629637Y-101332914D02*
X114582018Y-101380533D01*
X114582018Y-101380533D02*
X114486780Y-101428152D01*
X116105828Y-101094819D02*
X116105828Y-100094819D01*
X116105828Y-100094819D02*
X116343923Y-100094819D01*
X116343923Y-100094819D02*
X116486780Y-100142438D01*
X116486780Y-100142438D02*
X116582018Y-100237676D01*
X116582018Y-100237676D02*
X116629637Y-100332914D01*
X116629637Y-100332914D02*
X116677256Y-100523390D01*
X116677256Y-100523390D02*
X116677256Y-100666247D01*
X116677256Y-100666247D02*
X116629637Y-100856723D01*
X116629637Y-100856723D02*
X116582018Y-100951961D01*
X116582018Y-100951961D02*
X116486780Y-101047200D01*
X116486780Y-101047200D02*
X116343923Y-101094819D01*
X116343923Y-101094819D02*
X116105828Y-101094819D01*
X117105828Y-101094819D02*
X117105828Y-100428152D01*
X117105828Y-100618628D02*
X117153447Y-100523390D01*
X117153447Y-100523390D02*
X117201066Y-100475771D01*
X117201066Y-100475771D02*
X117296304Y-100428152D01*
X117296304Y-100428152D02*
X117391542Y-100428152D01*
X117724876Y-101094819D02*
X117724876Y-100428152D01*
X117724876Y-100094819D02*
X117677257Y-100142438D01*
X117677257Y-100142438D02*
X117724876Y-100190057D01*
X117724876Y-100190057D02*
X117772495Y-100142438D01*
X117772495Y-100142438D02*
X117724876Y-100094819D01*
X117724876Y-100094819D02*
X117724876Y-100190057D01*
X118105828Y-100428152D02*
X118343923Y-101094819D01*
X118343923Y-101094819D02*
X118582018Y-100428152D01*
X119343923Y-101047200D02*
X119248685Y-101094819D01*
X119248685Y-101094819D02*
X119058209Y-101094819D01*
X119058209Y-101094819D02*
X118962971Y-101047200D01*
X118962971Y-101047200D02*
X118915352Y-100951961D01*
X118915352Y-100951961D02*
X118915352Y-100571009D01*
X118915352Y-100571009D02*
X118962971Y-100475771D01*
X118962971Y-100475771D02*
X119058209Y-100428152D01*
X119058209Y-100428152D02*
X119248685Y-100428152D01*
X119248685Y-100428152D02*
X119343923Y-100475771D01*
X119343923Y-100475771D02*
X119391542Y-100571009D01*
X119391542Y-100571009D02*
X119391542Y-100666247D01*
X119391542Y-100666247D02*
X118915352Y-100761485D01*
X85521009Y-62404887D02*
X85521009Y-62738220D01*
X86044819Y-62738220D02*
X85044819Y-62738220D01*
X85044819Y-62738220D02*
X85044819Y-62262030D01*
X86044819Y-61881077D02*
X85044819Y-61881077D01*
X85044819Y-61881077D02*
X85044819Y-61642982D01*
X85044819Y-61642982D02*
X85092438Y-61500125D01*
X85092438Y-61500125D02*
X85187676Y-61404887D01*
X85187676Y-61404887D02*
X85282914Y-61357268D01*
X85282914Y-61357268D02*
X85473390Y-61309649D01*
X85473390Y-61309649D02*
X85616247Y-61309649D01*
X85616247Y-61309649D02*
X85806723Y-61357268D01*
X85806723Y-61357268D02*
X85901961Y-61404887D01*
X85901961Y-61404887D02*
X85997200Y-61500125D01*
X85997200Y-61500125D02*
X86044819Y-61642982D01*
X86044819Y-61642982D02*
X86044819Y-61881077D01*
X86044819Y-60881077D02*
X85044819Y-60881077D01*
X85044819Y-60881077D02*
X85044819Y-60642982D01*
X85044819Y-60642982D02*
X85092438Y-60500125D01*
X85092438Y-60500125D02*
X85187676Y-60404887D01*
X85187676Y-60404887D02*
X85282914Y-60357268D01*
X85282914Y-60357268D02*
X85473390Y-60309649D01*
X85473390Y-60309649D02*
X85616247Y-60309649D01*
X85616247Y-60309649D02*
X85806723Y-60357268D01*
X85806723Y-60357268D02*
X85901961Y-60404887D01*
X85901961Y-60404887D02*
X85997200Y-60500125D01*
X85997200Y-60500125D02*
X86044819Y-60642982D01*
X86044819Y-60642982D02*
X86044819Y-60881077D01*
X85378152Y-59262029D02*
X85378152Y-58881077D01*
X85044819Y-59119172D02*
X85901961Y-59119172D01*
X85901961Y-59119172D02*
X85997200Y-59071553D01*
X85997200Y-59071553D02*
X86044819Y-58976315D01*
X86044819Y-58976315D02*
X86044819Y-58881077D01*
X86044819Y-58404886D02*
X85997200Y-58500124D01*
X85997200Y-58500124D02*
X85949580Y-58547743D01*
X85949580Y-58547743D02*
X85854342Y-58595362D01*
X85854342Y-58595362D02*
X85568628Y-58595362D01*
X85568628Y-58595362D02*
X85473390Y-58547743D01*
X85473390Y-58547743D02*
X85425771Y-58500124D01*
X85425771Y-58500124D02*
X85378152Y-58404886D01*
X85378152Y-58404886D02*
X85378152Y-58262029D01*
X85378152Y-58262029D02*
X85425771Y-58166791D01*
X85425771Y-58166791D02*
X85473390Y-58119172D01*
X85473390Y-58119172D02*
X85568628Y-58071553D01*
X85568628Y-58071553D02*
X85854342Y-58071553D01*
X85854342Y-58071553D02*
X85949580Y-58119172D01*
X85949580Y-58119172D02*
X85997200Y-58166791D01*
X85997200Y-58166791D02*
X86044819Y-58262029D01*
X86044819Y-58262029D02*
X86044819Y-58404886D01*
X86044819Y-56881076D02*
X85044819Y-56881076D01*
X85044819Y-56881076D02*
X85044819Y-56500124D01*
X85044819Y-56500124D02*
X85092438Y-56404886D01*
X85092438Y-56404886D02*
X85140057Y-56357267D01*
X85140057Y-56357267D02*
X85235295Y-56309648D01*
X85235295Y-56309648D02*
X85378152Y-56309648D01*
X85378152Y-56309648D02*
X85473390Y-56357267D01*
X85473390Y-56357267D02*
X85521009Y-56404886D01*
X85521009Y-56404886D02*
X85568628Y-56500124D01*
X85568628Y-56500124D02*
X85568628Y-56881076D01*
X85949580Y-55309648D02*
X85997200Y-55357267D01*
X85997200Y-55357267D02*
X86044819Y-55500124D01*
X86044819Y-55500124D02*
X86044819Y-55595362D01*
X86044819Y-55595362D02*
X85997200Y-55738219D01*
X85997200Y-55738219D02*
X85901961Y-55833457D01*
X85901961Y-55833457D02*
X85806723Y-55881076D01*
X85806723Y-55881076D02*
X85616247Y-55928695D01*
X85616247Y-55928695D02*
X85473390Y-55928695D01*
X85473390Y-55928695D02*
X85282914Y-55881076D01*
X85282914Y-55881076D02*
X85187676Y-55833457D01*
X85187676Y-55833457D02*
X85092438Y-55738219D01*
X85092438Y-55738219D02*
X85044819Y-55595362D01*
X85044819Y-55595362D02*
X85044819Y-55500124D01*
X85044819Y-55500124D02*
X85092438Y-55357267D01*
X85092438Y-55357267D02*
X85140057Y-55309648D01*
D13*
X145547368Y-96775828D02*
X145547368Y-97775828D01*
X145190225Y-96204400D02*
X144833082Y-97275828D01*
X144833082Y-97275828D02*
X145761653Y-97275828D01*
X146333081Y-97632971D02*
X146404510Y-97704400D01*
X146404510Y-97704400D02*
X146333081Y-97775828D01*
X146333081Y-97775828D02*
X146261653Y-97704400D01*
X146261653Y-97704400D02*
X146333081Y-97632971D01*
X146333081Y-97632971D02*
X146333081Y-97775828D01*
X146904510Y-96275828D02*
X147904510Y-96275828D01*
X147904510Y-96275828D02*
X147261653Y-97775828D01*
X148475938Y-97775828D02*
X148475938Y-96275828D01*
X149333081Y-97775828D02*
X148690224Y-96918685D01*
X149333081Y-96275828D02*
X148475938Y-97132971D01*
D11*
X109741541Y-90144819D02*
X110408207Y-90144819D01*
X110408207Y-90144819D02*
X109979636Y-91144819D01*
X111217731Y-90478152D02*
X111217731Y-91144819D01*
X110979636Y-90097200D02*
X110741541Y-90811485D01*
X110741541Y-90811485D02*
X111360588Y-90811485D01*
X111884398Y-91144819D02*
X111789160Y-91097200D01*
X111789160Y-91097200D02*
X111741541Y-91001961D01*
X111741541Y-91001961D02*
X111741541Y-90144819D01*
X112170113Y-90478152D02*
X112408208Y-91144819D01*
X112408208Y-91144819D02*
X112646303Y-90478152D01*
X113455827Y-91097200D02*
X113360589Y-91144819D01*
X113360589Y-91144819D02*
X113170113Y-91144819D01*
X113170113Y-91144819D02*
X113074875Y-91097200D01*
X113074875Y-91097200D02*
X113027256Y-91049580D01*
X113027256Y-91049580D02*
X112979637Y-90954342D01*
X112979637Y-90954342D02*
X112979637Y-90668628D01*
X112979637Y-90668628D02*
X113027256Y-90573390D01*
X113027256Y-90573390D02*
X113074875Y-90525771D01*
X113074875Y-90525771D02*
X113170113Y-90478152D01*
X113170113Y-90478152D02*
X113360589Y-90478152D01*
X113360589Y-90478152D02*
X113455827Y-90525771D01*
X113836780Y-90240057D02*
X113884399Y-90192438D01*
X113884399Y-90192438D02*
X113979637Y-90144819D01*
X113979637Y-90144819D02*
X114217732Y-90144819D01*
X114217732Y-90144819D02*
X114312970Y-90192438D01*
X114312970Y-90192438D02*
X114360589Y-90240057D01*
X114360589Y-90240057D02*
X114408208Y-90335295D01*
X114408208Y-90335295D02*
X114408208Y-90430533D01*
X114408208Y-90430533D02*
X114360589Y-90573390D01*
X114360589Y-90573390D02*
X113789161Y-91144819D01*
X113789161Y-91144819D02*
X114408208Y-91144819D01*
X115265351Y-90478152D02*
X115265351Y-91144819D01*
X115027256Y-90097200D02*
X114789161Y-90811485D01*
X114789161Y-90811485D02*
X115408208Y-90811485D01*
X116265351Y-90144819D02*
X115789161Y-90144819D01*
X115789161Y-90144819D02*
X115741542Y-90621009D01*
X115741542Y-90621009D02*
X115789161Y-90573390D01*
X115789161Y-90573390D02*
X115884399Y-90525771D01*
X115884399Y-90525771D02*
X116122494Y-90525771D01*
X116122494Y-90525771D02*
X116217732Y-90573390D01*
X116217732Y-90573390D02*
X116265351Y-90621009D01*
X116265351Y-90621009D02*
X116312970Y-90716247D01*
X116312970Y-90716247D02*
X116312970Y-90954342D01*
X116312970Y-90954342D02*
X116265351Y-91049580D01*
X116265351Y-91049580D02*
X116217732Y-91097200D01*
X116217732Y-91097200D02*
X116122494Y-91144819D01*
X116122494Y-91144819D02*
X115884399Y-91144819D01*
X115884399Y-91144819D02*
X115789161Y-91097200D01*
X115789161Y-91097200D02*
X115741542Y-91049580D01*
X102761779Y-83169819D02*
X102761779Y-82169819D01*
X102761779Y-82169819D02*
X103142731Y-82169819D01*
X103142731Y-82169819D02*
X103237969Y-82217438D01*
X103237969Y-82217438D02*
X103285588Y-82265057D01*
X103285588Y-82265057D02*
X103333207Y-82360295D01*
X103333207Y-82360295D02*
X103333207Y-82503152D01*
X103333207Y-82503152D02*
X103285588Y-82598390D01*
X103285588Y-82598390D02*
X103237969Y-82646009D01*
X103237969Y-82646009D02*
X103142731Y-82693628D01*
X103142731Y-82693628D02*
X102761779Y-82693628D01*
X103761779Y-83169819D02*
X103761779Y-82503152D01*
X103761779Y-82169819D02*
X103714160Y-82217438D01*
X103714160Y-82217438D02*
X103761779Y-82265057D01*
X103761779Y-82265057D02*
X103809398Y-82217438D01*
X103809398Y-82217438D02*
X103761779Y-82169819D01*
X103761779Y-82169819D02*
X103761779Y-82265057D01*
X104666540Y-83122200D02*
X104571302Y-83169819D01*
X104571302Y-83169819D02*
X104380826Y-83169819D01*
X104380826Y-83169819D02*
X104285588Y-83122200D01*
X104285588Y-83122200D02*
X104237969Y-83074580D01*
X104237969Y-83074580D02*
X104190350Y-82979342D01*
X104190350Y-82979342D02*
X104190350Y-82693628D01*
X104190350Y-82693628D02*
X104237969Y-82598390D01*
X104237969Y-82598390D02*
X104285588Y-82550771D01*
X104285588Y-82550771D02*
X104380826Y-82503152D01*
X104380826Y-82503152D02*
X104571302Y-82503152D01*
X104571302Y-82503152D02*
X104666540Y-82550771D01*
X105237969Y-83169819D02*
X105142731Y-83122200D01*
X105142731Y-83122200D02*
X105095112Y-83074580D01*
X105095112Y-83074580D02*
X105047493Y-82979342D01*
X105047493Y-82979342D02*
X105047493Y-82693628D01*
X105047493Y-82693628D02*
X105095112Y-82598390D01*
X105095112Y-82598390D02*
X105142731Y-82550771D01*
X105142731Y-82550771D02*
X105237969Y-82503152D01*
X105237969Y-82503152D02*
X105380826Y-82503152D01*
X105380826Y-82503152D02*
X105476064Y-82550771D01*
X105476064Y-82550771D02*
X105523683Y-82598390D01*
X105523683Y-82598390D02*
X105571302Y-82693628D01*
X105571302Y-82693628D02*
X105571302Y-82979342D01*
X105571302Y-82979342D02*
X105523683Y-83074580D01*
X105523683Y-83074580D02*
X105476064Y-83122200D01*
X105476064Y-83122200D02*
X105380826Y-83169819D01*
X105380826Y-83169819D02*
X105237969Y-83169819D01*
X106666541Y-82169819D02*
X107333207Y-83169819D01*
X107333207Y-82169819D02*
X106666541Y-83169819D01*
X108142731Y-82169819D02*
X107952255Y-82169819D01*
X107952255Y-82169819D02*
X107857017Y-82217438D01*
X107857017Y-82217438D02*
X107809398Y-82265057D01*
X107809398Y-82265057D02*
X107714160Y-82407914D01*
X107714160Y-82407914D02*
X107666541Y-82598390D01*
X107666541Y-82598390D02*
X107666541Y-82979342D01*
X107666541Y-82979342D02*
X107714160Y-83074580D01*
X107714160Y-83074580D02*
X107761779Y-83122200D01*
X107761779Y-83122200D02*
X107857017Y-83169819D01*
X107857017Y-83169819D02*
X108047493Y-83169819D01*
X108047493Y-83169819D02*
X108142731Y-83122200D01*
X108142731Y-83122200D02*
X108190350Y-83074580D01*
X108190350Y-83074580D02*
X108237969Y-82979342D01*
X108237969Y-82979342D02*
X108237969Y-82741247D01*
X108237969Y-82741247D02*
X108190350Y-82646009D01*
X108190350Y-82646009D02*
X108142731Y-82598390D01*
X108142731Y-82598390D02*
X108047493Y-82550771D01*
X108047493Y-82550771D02*
X107857017Y-82550771D01*
X107857017Y-82550771D02*
X107761779Y-82598390D01*
X107761779Y-82598390D02*
X107714160Y-82646009D01*
X107714160Y-82646009D02*
X107666541Y-82741247D01*
X108809398Y-82598390D02*
X108714160Y-82550771D01*
X108714160Y-82550771D02*
X108666541Y-82503152D01*
X108666541Y-82503152D02*
X108618922Y-82407914D01*
X108618922Y-82407914D02*
X108618922Y-82360295D01*
X108618922Y-82360295D02*
X108666541Y-82265057D01*
X108666541Y-82265057D02*
X108714160Y-82217438D01*
X108714160Y-82217438D02*
X108809398Y-82169819D01*
X108809398Y-82169819D02*
X108999874Y-82169819D01*
X108999874Y-82169819D02*
X109095112Y-82217438D01*
X109095112Y-82217438D02*
X109142731Y-82265057D01*
X109142731Y-82265057D02*
X109190350Y-82360295D01*
X109190350Y-82360295D02*
X109190350Y-82407914D01*
X109190350Y-82407914D02*
X109142731Y-82503152D01*
X109142731Y-82503152D02*
X109095112Y-82550771D01*
X109095112Y-82550771D02*
X108999874Y-82598390D01*
X108999874Y-82598390D02*
X108809398Y-82598390D01*
X108809398Y-82598390D02*
X108714160Y-82646009D01*
X108714160Y-82646009D02*
X108666541Y-82693628D01*
X108666541Y-82693628D02*
X108618922Y-82788866D01*
X108618922Y-82788866D02*
X108618922Y-82979342D01*
X108618922Y-82979342D02*
X108666541Y-83074580D01*
X108666541Y-83074580D02*
X108714160Y-83122200D01*
X108714160Y-83122200D02*
X108809398Y-83169819D01*
X108809398Y-83169819D02*
X108999874Y-83169819D01*
X108999874Y-83169819D02*
X109095112Y-83122200D01*
X109095112Y-83122200D02*
X109142731Y-83074580D01*
X109142731Y-83074580D02*
X109190350Y-82979342D01*
X109190350Y-82979342D02*
X109190350Y-82788866D01*
X109190350Y-82788866D02*
X109142731Y-82693628D01*
X109142731Y-82693628D02*
X109095112Y-82646009D01*
X109095112Y-82646009D02*
X108999874Y-82598390D01*
X109618922Y-83169819D02*
X109618922Y-82169819D01*
X110190350Y-83169819D02*
X109761779Y-82598390D01*
X110190350Y-82169819D02*
X109618922Y-82741247D01*
X111333208Y-83122200D02*
X111428446Y-83169819D01*
X111428446Y-83169819D02*
X111618922Y-83169819D01*
X111618922Y-83169819D02*
X111714160Y-83122200D01*
X111714160Y-83122200D02*
X111761779Y-83026961D01*
X111761779Y-83026961D02*
X111761779Y-82979342D01*
X111761779Y-82979342D02*
X111714160Y-82884104D01*
X111714160Y-82884104D02*
X111618922Y-82836485D01*
X111618922Y-82836485D02*
X111476065Y-82836485D01*
X111476065Y-82836485D02*
X111380827Y-82788866D01*
X111380827Y-82788866D02*
X111333208Y-82693628D01*
X111333208Y-82693628D02*
X111333208Y-82646009D01*
X111333208Y-82646009D02*
X111380827Y-82550771D01*
X111380827Y-82550771D02*
X111476065Y-82503152D01*
X111476065Y-82503152D02*
X111618922Y-82503152D01*
X111618922Y-82503152D02*
X111714160Y-82550771D01*
X112190351Y-83169819D02*
X112190351Y-82503152D01*
X112190351Y-82169819D02*
X112142732Y-82217438D01*
X112142732Y-82217438D02*
X112190351Y-82265057D01*
X112190351Y-82265057D02*
X112237970Y-82217438D01*
X112237970Y-82217438D02*
X112190351Y-82169819D01*
X112190351Y-82169819D02*
X112190351Y-82265057D01*
X113095112Y-82503152D02*
X113095112Y-83312676D01*
X113095112Y-83312676D02*
X113047493Y-83407914D01*
X113047493Y-83407914D02*
X112999874Y-83455533D01*
X112999874Y-83455533D02*
X112904636Y-83503152D01*
X112904636Y-83503152D02*
X112761779Y-83503152D01*
X112761779Y-83503152D02*
X112666541Y-83455533D01*
X113095112Y-83122200D02*
X112999874Y-83169819D01*
X112999874Y-83169819D02*
X112809398Y-83169819D01*
X112809398Y-83169819D02*
X112714160Y-83122200D01*
X112714160Y-83122200D02*
X112666541Y-83074580D01*
X112666541Y-83074580D02*
X112618922Y-82979342D01*
X112618922Y-82979342D02*
X112618922Y-82693628D01*
X112618922Y-82693628D02*
X112666541Y-82598390D01*
X112666541Y-82598390D02*
X112714160Y-82550771D01*
X112714160Y-82550771D02*
X112809398Y-82503152D01*
X112809398Y-82503152D02*
X112999874Y-82503152D01*
X112999874Y-82503152D02*
X113095112Y-82550771D01*
X113571303Y-82503152D02*
X113571303Y-83169819D01*
X113571303Y-82598390D02*
X113618922Y-82550771D01*
X113618922Y-82550771D02*
X113714160Y-82503152D01*
X113714160Y-82503152D02*
X113857017Y-82503152D01*
X113857017Y-82503152D02*
X113952255Y-82550771D01*
X113952255Y-82550771D02*
X113999874Y-82646009D01*
X113999874Y-82646009D02*
X113999874Y-83169819D01*
X114904636Y-83169819D02*
X114904636Y-82646009D01*
X114904636Y-82646009D02*
X114857017Y-82550771D01*
X114857017Y-82550771D02*
X114761779Y-82503152D01*
X114761779Y-82503152D02*
X114571303Y-82503152D01*
X114571303Y-82503152D02*
X114476065Y-82550771D01*
X114904636Y-83122200D02*
X114809398Y-83169819D01*
X114809398Y-83169819D02*
X114571303Y-83169819D01*
X114571303Y-83169819D02*
X114476065Y-83122200D01*
X114476065Y-83122200D02*
X114428446Y-83026961D01*
X114428446Y-83026961D02*
X114428446Y-82931723D01*
X114428446Y-82931723D02*
X114476065Y-82836485D01*
X114476065Y-82836485D02*
X114571303Y-82788866D01*
X114571303Y-82788866D02*
X114809398Y-82788866D01*
X114809398Y-82788866D02*
X114904636Y-82741247D01*
X115523684Y-83169819D02*
X115428446Y-83122200D01*
X115428446Y-83122200D02*
X115380827Y-83026961D01*
X115380827Y-83026961D02*
X115380827Y-82169819D01*
X115857018Y-83122200D02*
X115952256Y-83169819D01*
X115952256Y-83169819D02*
X116142732Y-83169819D01*
X116142732Y-83169819D02*
X116237970Y-83122200D01*
X116237970Y-83122200D02*
X116285589Y-83026961D01*
X116285589Y-83026961D02*
X116285589Y-82979342D01*
X116285589Y-82979342D02*
X116237970Y-82884104D01*
X116237970Y-82884104D02*
X116142732Y-82836485D01*
X116142732Y-82836485D02*
X115999875Y-82836485D01*
X115999875Y-82836485D02*
X115904637Y-82788866D01*
X115904637Y-82788866D02*
X115857018Y-82693628D01*
X115857018Y-82693628D02*
X115857018Y-82646009D01*
X115857018Y-82646009D02*
X115904637Y-82550771D01*
X115904637Y-82550771D02*
X115999875Y-82503152D01*
X115999875Y-82503152D02*
X116142732Y-82503152D01*
X116142732Y-82503152D02*
X116237970Y-82550771D01*
X83216541Y-97869819D02*
X83835588Y-97869819D01*
X83835588Y-97869819D02*
X83502255Y-98250771D01*
X83502255Y-98250771D02*
X83645112Y-98250771D01*
X83645112Y-98250771D02*
X83740350Y-98298390D01*
X83740350Y-98298390D02*
X83787969Y-98346009D01*
X83787969Y-98346009D02*
X83835588Y-98441247D01*
X83835588Y-98441247D02*
X83835588Y-98679342D01*
X83835588Y-98679342D02*
X83787969Y-98774580D01*
X83787969Y-98774580D02*
X83740350Y-98822200D01*
X83740350Y-98822200D02*
X83645112Y-98869819D01*
X83645112Y-98869819D02*
X83359398Y-98869819D01*
X83359398Y-98869819D02*
X83264160Y-98822200D01*
X83264160Y-98822200D02*
X83216541Y-98774580D01*
X84168922Y-97869819D02*
X84787969Y-97869819D01*
X84787969Y-97869819D02*
X84454636Y-98250771D01*
X84454636Y-98250771D02*
X84597493Y-98250771D01*
X84597493Y-98250771D02*
X84692731Y-98298390D01*
X84692731Y-98298390D02*
X84740350Y-98346009D01*
X84740350Y-98346009D02*
X84787969Y-98441247D01*
X84787969Y-98441247D02*
X84787969Y-98679342D01*
X84787969Y-98679342D02*
X84740350Y-98774580D01*
X84740350Y-98774580D02*
X84692731Y-98822200D01*
X84692731Y-98822200D02*
X84597493Y-98869819D01*
X84597493Y-98869819D02*
X84311779Y-98869819D01*
X84311779Y-98869819D02*
X84216541Y-98822200D01*
X84216541Y-98822200D02*
X84168922Y-98774580D01*
X85407017Y-97869819D02*
X85502255Y-97869819D01*
X85502255Y-97869819D02*
X85597493Y-97917438D01*
X85597493Y-97917438D02*
X85645112Y-97965057D01*
X85645112Y-97965057D02*
X85692731Y-98060295D01*
X85692731Y-98060295D02*
X85740350Y-98250771D01*
X85740350Y-98250771D02*
X85740350Y-98488866D01*
X85740350Y-98488866D02*
X85692731Y-98679342D01*
X85692731Y-98679342D02*
X85645112Y-98774580D01*
X85645112Y-98774580D02*
X85597493Y-98822200D01*
X85597493Y-98822200D02*
X85502255Y-98869819D01*
X85502255Y-98869819D02*
X85407017Y-98869819D01*
X85407017Y-98869819D02*
X85311779Y-98822200D01*
X85311779Y-98822200D02*
X85264160Y-98774580D01*
X85264160Y-98774580D02*
X85216541Y-98679342D01*
X85216541Y-98679342D02*
X85168922Y-98488866D01*
X85168922Y-98488866D02*
X85168922Y-98250771D01*
X85168922Y-98250771D02*
X85216541Y-98060295D01*
X85216541Y-98060295D02*
X85264160Y-97965057D01*
X85264160Y-97965057D02*
X85311779Y-97917438D01*
X85311779Y-97917438D02*
X85407017Y-97869819D01*
X86740350Y-98869819D02*
X86407017Y-98393628D01*
X86168922Y-98869819D02*
X86168922Y-97869819D01*
X86168922Y-97869819D02*
X86549874Y-97869819D01*
X86549874Y-97869819D02*
X86645112Y-97917438D01*
X86645112Y-97917438D02*
X86692731Y-97965057D01*
X86692731Y-97965057D02*
X86740350Y-98060295D01*
X86740350Y-98060295D02*
X86740350Y-98203152D01*
X86740350Y-98203152D02*
X86692731Y-98298390D01*
X86692731Y-98298390D02*
X86645112Y-98346009D01*
X86645112Y-98346009D02*
X86549874Y-98393628D01*
X86549874Y-98393628D02*
X86168922Y-98393628D01*
X69829819Y-92633333D02*
X70544104Y-92633333D01*
X70544104Y-92633333D02*
X70686961Y-92680952D01*
X70686961Y-92680952D02*
X70782200Y-92776190D01*
X70782200Y-92776190D02*
X70829819Y-92919047D01*
X70829819Y-92919047D02*
X70829819Y-93014285D01*
X69829819Y-92252380D02*
X69829819Y-91585714D01*
X69829819Y-91585714D02*
X70829819Y-92014285D01*
X80579819Y-76681666D02*
X80103628Y-77014999D01*
X80579819Y-77253094D02*
X79579819Y-77253094D01*
X79579819Y-77253094D02*
X79579819Y-76872142D01*
X79579819Y-76872142D02*
X79627438Y-76776904D01*
X79627438Y-76776904D02*
X79675057Y-76729285D01*
X79675057Y-76729285D02*
X79770295Y-76681666D01*
X79770295Y-76681666D02*
X79913152Y-76681666D01*
X79913152Y-76681666D02*
X80008390Y-76729285D01*
X80008390Y-76729285D02*
X80056009Y-76776904D01*
X80056009Y-76776904D02*
X80103628Y-76872142D01*
X80103628Y-76872142D02*
X80103628Y-77253094D01*
X79675057Y-76300713D02*
X79627438Y-76253094D01*
X79627438Y-76253094D02*
X79579819Y-76157856D01*
X79579819Y-76157856D02*
X79579819Y-75919761D01*
X79579819Y-75919761D02*
X79627438Y-75824523D01*
X79627438Y-75824523D02*
X79675057Y-75776904D01*
X79675057Y-75776904D02*
X79770295Y-75729285D01*
X79770295Y-75729285D02*
X79865533Y-75729285D01*
X79865533Y-75729285D02*
X80008390Y-75776904D01*
X80008390Y-75776904D02*
X80579819Y-76348332D01*
X80579819Y-76348332D02*
X80579819Y-75729285D01*
X86514819Y-79541904D02*
X87324342Y-79541904D01*
X87324342Y-79541904D02*
X87419580Y-79494285D01*
X87419580Y-79494285D02*
X87467200Y-79446666D01*
X87467200Y-79446666D02*
X87514819Y-79351428D01*
X87514819Y-79351428D02*
X87514819Y-79160952D01*
X87514819Y-79160952D02*
X87467200Y-79065714D01*
X87467200Y-79065714D02*
X87419580Y-79018095D01*
X87419580Y-79018095D02*
X87324342Y-78970476D01*
X87324342Y-78970476D02*
X86514819Y-78970476D01*
X87514819Y-77970476D02*
X87514819Y-78541904D01*
X87514819Y-78256190D02*
X86514819Y-78256190D01*
X86514819Y-78256190D02*
X86657676Y-78351428D01*
X86657676Y-78351428D02*
X86752914Y-78446666D01*
X86752914Y-78446666D02*
X86800533Y-78541904D01*
X104454819Y-71261904D02*
X105264342Y-71261904D01*
X105264342Y-71261904D02*
X105359580Y-71214285D01*
X105359580Y-71214285D02*
X105407200Y-71166666D01*
X105407200Y-71166666D02*
X105454819Y-71071428D01*
X105454819Y-71071428D02*
X105454819Y-70880952D01*
X105454819Y-70880952D02*
X105407200Y-70785714D01*
X105407200Y-70785714D02*
X105359580Y-70738095D01*
X105359580Y-70738095D02*
X105264342Y-70690476D01*
X105264342Y-70690476D02*
X104454819Y-70690476D01*
X105407200Y-70261904D02*
X105454819Y-70119047D01*
X105454819Y-70119047D02*
X105454819Y-69880952D01*
X105454819Y-69880952D02*
X105407200Y-69785714D01*
X105407200Y-69785714D02*
X105359580Y-69738095D01*
X105359580Y-69738095D02*
X105264342Y-69690476D01*
X105264342Y-69690476D02*
X105169104Y-69690476D01*
X105169104Y-69690476D02*
X105073866Y-69738095D01*
X105073866Y-69738095D02*
X105026247Y-69785714D01*
X105026247Y-69785714D02*
X104978628Y-69880952D01*
X104978628Y-69880952D02*
X104931009Y-70071428D01*
X104931009Y-70071428D02*
X104883390Y-70166666D01*
X104883390Y-70166666D02*
X104835771Y-70214285D01*
X104835771Y-70214285D02*
X104740533Y-70261904D01*
X104740533Y-70261904D02*
X104645295Y-70261904D01*
X104645295Y-70261904D02*
X104550057Y-70214285D01*
X104550057Y-70214285D02*
X104502438Y-70166666D01*
X104502438Y-70166666D02*
X104454819Y-70071428D01*
X104454819Y-70071428D02*
X104454819Y-69833333D01*
X104454819Y-69833333D02*
X104502438Y-69690476D01*
X104931009Y-68928571D02*
X104978628Y-68785714D01*
X104978628Y-68785714D02*
X105026247Y-68738095D01*
X105026247Y-68738095D02*
X105121485Y-68690476D01*
X105121485Y-68690476D02*
X105264342Y-68690476D01*
X105264342Y-68690476D02*
X105359580Y-68738095D01*
X105359580Y-68738095D02*
X105407200Y-68785714D01*
X105407200Y-68785714D02*
X105454819Y-68880952D01*
X105454819Y-68880952D02*
X105454819Y-69261904D01*
X105454819Y-69261904D02*
X104454819Y-69261904D01*
X104454819Y-69261904D02*
X104454819Y-68928571D01*
X104454819Y-68928571D02*
X104502438Y-68833333D01*
X104502438Y-68833333D02*
X104550057Y-68785714D01*
X104550057Y-68785714D02*
X104645295Y-68738095D01*
X104645295Y-68738095D02*
X104740533Y-68738095D01*
X104740533Y-68738095D02*
X104835771Y-68785714D01*
X104835771Y-68785714D02*
X104883390Y-68833333D01*
X104883390Y-68833333D02*
X104931009Y-68928571D01*
X104931009Y-68928571D02*
X104931009Y-69261904D01*
X79904819Y-108991666D02*
X79428628Y-109324999D01*
X79904819Y-109563094D02*
X78904819Y-109563094D01*
X78904819Y-109563094D02*
X78904819Y-109182142D01*
X78904819Y-109182142D02*
X78952438Y-109086904D01*
X78952438Y-109086904D02*
X79000057Y-109039285D01*
X79000057Y-109039285D02*
X79095295Y-108991666D01*
X79095295Y-108991666D02*
X79238152Y-108991666D01*
X79238152Y-108991666D02*
X79333390Y-109039285D01*
X79333390Y-109039285D02*
X79381009Y-109086904D01*
X79381009Y-109086904D02*
X79428628Y-109182142D01*
X79428628Y-109182142D02*
X79428628Y-109563094D01*
X78904819Y-108658332D02*
X78904819Y-107991666D01*
X78904819Y-107991666D02*
X79904819Y-108420237D01*
X87659819Y-90341666D02*
X87183628Y-90674999D01*
X87659819Y-90913094D02*
X86659819Y-90913094D01*
X86659819Y-90913094D02*
X86659819Y-90532142D01*
X86659819Y-90532142D02*
X86707438Y-90436904D01*
X86707438Y-90436904D02*
X86755057Y-90389285D01*
X86755057Y-90389285D02*
X86850295Y-90341666D01*
X86850295Y-90341666D02*
X86993152Y-90341666D01*
X86993152Y-90341666D02*
X87088390Y-90389285D01*
X87088390Y-90389285D02*
X87136009Y-90436904D01*
X87136009Y-90436904D02*
X87183628Y-90532142D01*
X87183628Y-90532142D02*
X87183628Y-90913094D01*
X86659819Y-89436904D02*
X86659819Y-89913094D01*
X86659819Y-89913094D02*
X87136009Y-89960713D01*
X87136009Y-89960713D02*
X87088390Y-89913094D01*
X87088390Y-89913094D02*
X87040771Y-89817856D01*
X87040771Y-89817856D02*
X87040771Y-89579761D01*
X87040771Y-89579761D02*
X87088390Y-89484523D01*
X87088390Y-89484523D02*
X87136009Y-89436904D01*
X87136009Y-89436904D02*
X87231247Y-89389285D01*
X87231247Y-89389285D02*
X87469342Y-89389285D01*
X87469342Y-89389285D02*
X87564580Y-89436904D01*
X87564580Y-89436904D02*
X87612200Y-89484523D01*
X87612200Y-89484523D02*
X87659819Y-89579761D01*
X87659819Y-89579761D02*
X87659819Y-89817856D01*
X87659819Y-89817856D02*
X87612200Y-89913094D01*
X87612200Y-89913094D02*
X87564580Y-89960713D01*
X69454819Y-77718333D02*
X70169104Y-77718333D01*
X70169104Y-77718333D02*
X70311961Y-77765952D01*
X70311961Y-77765952D02*
X70407200Y-77861190D01*
X70407200Y-77861190D02*
X70454819Y-78004047D01*
X70454819Y-78004047D02*
X70454819Y-78099285D01*
X69788152Y-76813571D02*
X70454819Y-76813571D01*
X69407200Y-77051666D02*
X70121485Y-77289761D01*
X70121485Y-77289761D02*
X70121485Y-76670714D01*
X147701666Y-55434819D02*
X147701666Y-56149104D01*
X147701666Y-56149104D02*
X147654047Y-56291961D01*
X147654047Y-56291961D02*
X147558809Y-56387200D01*
X147558809Y-56387200D02*
X147415952Y-56434819D01*
X147415952Y-56434819D02*
X147320714Y-56434819D01*
X148225476Y-56434819D02*
X148415952Y-56434819D01*
X148415952Y-56434819D02*
X148511190Y-56387200D01*
X148511190Y-56387200D02*
X148558809Y-56339580D01*
X148558809Y-56339580D02*
X148654047Y-56196723D01*
X148654047Y-56196723D02*
X148701666Y-56006247D01*
X148701666Y-56006247D02*
X148701666Y-55625295D01*
X148701666Y-55625295D02*
X148654047Y-55530057D01*
X148654047Y-55530057D02*
X148606428Y-55482438D01*
X148606428Y-55482438D02*
X148511190Y-55434819D01*
X148511190Y-55434819D02*
X148320714Y-55434819D01*
X148320714Y-55434819D02*
X148225476Y-55482438D01*
X148225476Y-55482438D02*
X148177857Y-55530057D01*
X148177857Y-55530057D02*
X148130238Y-55625295D01*
X148130238Y-55625295D02*
X148130238Y-55863390D01*
X148130238Y-55863390D02*
X148177857Y-55958628D01*
X148177857Y-55958628D02*
X148225476Y-56006247D01*
X148225476Y-56006247D02*
X148320714Y-56053866D01*
X148320714Y-56053866D02*
X148511190Y-56053866D01*
X148511190Y-56053866D02*
X148606428Y-56006247D01*
X148606428Y-56006247D02*
X148654047Y-55958628D01*
X148654047Y-55958628D02*
X148701666Y-55863390D01*
X80529819Y-63421666D02*
X80053628Y-63754999D01*
X80529819Y-63993094D02*
X79529819Y-63993094D01*
X79529819Y-63993094D02*
X79529819Y-63612142D01*
X79529819Y-63612142D02*
X79577438Y-63516904D01*
X79577438Y-63516904D02*
X79625057Y-63469285D01*
X79625057Y-63469285D02*
X79720295Y-63421666D01*
X79720295Y-63421666D02*
X79863152Y-63421666D01*
X79863152Y-63421666D02*
X79958390Y-63469285D01*
X79958390Y-63469285D02*
X80006009Y-63516904D01*
X80006009Y-63516904D02*
X80053628Y-63612142D01*
X80053628Y-63612142D02*
X80053628Y-63993094D01*
X80529819Y-62469285D02*
X80529819Y-63040713D01*
X80529819Y-62754999D02*
X79529819Y-62754999D01*
X79529819Y-62754999D02*
X79672676Y-62850237D01*
X79672676Y-62850237D02*
X79767914Y-62945475D01*
X79767914Y-62945475D02*
X79815533Y-63040713D01*
X93774819Y-91776904D02*
X94584342Y-91776904D01*
X94584342Y-91776904D02*
X94679580Y-91729285D01*
X94679580Y-91729285D02*
X94727200Y-91681666D01*
X94727200Y-91681666D02*
X94774819Y-91586428D01*
X94774819Y-91586428D02*
X94774819Y-91395952D01*
X94774819Y-91395952D02*
X94727200Y-91300714D01*
X94727200Y-91300714D02*
X94679580Y-91253095D01*
X94679580Y-91253095D02*
X94584342Y-91205476D01*
X94584342Y-91205476D02*
X93774819Y-91205476D01*
X93870057Y-90776904D02*
X93822438Y-90729285D01*
X93822438Y-90729285D02*
X93774819Y-90634047D01*
X93774819Y-90634047D02*
X93774819Y-90395952D01*
X93774819Y-90395952D02*
X93822438Y-90300714D01*
X93822438Y-90300714D02*
X93870057Y-90253095D01*
X93870057Y-90253095D02*
X93965295Y-90205476D01*
X93965295Y-90205476D02*
X94060533Y-90205476D01*
X94060533Y-90205476D02*
X94203390Y-90253095D01*
X94203390Y-90253095D02*
X94774819Y-90824523D01*
X94774819Y-90824523D02*
X94774819Y-90205476D01*
X79604819Y-136651666D02*
X79128628Y-136984999D01*
X79604819Y-137223094D02*
X78604819Y-137223094D01*
X78604819Y-137223094D02*
X78604819Y-136842142D01*
X78604819Y-136842142D02*
X78652438Y-136746904D01*
X78652438Y-136746904D02*
X78700057Y-136699285D01*
X78700057Y-136699285D02*
X78795295Y-136651666D01*
X78795295Y-136651666D02*
X78938152Y-136651666D01*
X78938152Y-136651666D02*
X79033390Y-136699285D01*
X79033390Y-136699285D02*
X79081009Y-136746904D01*
X79081009Y-136746904D02*
X79128628Y-136842142D01*
X79128628Y-136842142D02*
X79128628Y-137223094D01*
X79033390Y-136080237D02*
X78985771Y-136175475D01*
X78985771Y-136175475D02*
X78938152Y-136223094D01*
X78938152Y-136223094D02*
X78842914Y-136270713D01*
X78842914Y-136270713D02*
X78795295Y-136270713D01*
X78795295Y-136270713D02*
X78700057Y-136223094D01*
X78700057Y-136223094D02*
X78652438Y-136175475D01*
X78652438Y-136175475D02*
X78604819Y-136080237D01*
X78604819Y-136080237D02*
X78604819Y-135889761D01*
X78604819Y-135889761D02*
X78652438Y-135794523D01*
X78652438Y-135794523D02*
X78700057Y-135746904D01*
X78700057Y-135746904D02*
X78795295Y-135699285D01*
X78795295Y-135699285D02*
X78842914Y-135699285D01*
X78842914Y-135699285D02*
X78938152Y-135746904D01*
X78938152Y-135746904D02*
X78985771Y-135794523D01*
X78985771Y-135794523D02*
X79033390Y-135889761D01*
X79033390Y-135889761D02*
X79033390Y-136080237D01*
X79033390Y-136080237D02*
X79081009Y-136175475D01*
X79081009Y-136175475D02*
X79128628Y-136223094D01*
X79128628Y-136223094D02*
X79223866Y-136270713D01*
X79223866Y-136270713D02*
X79414342Y-136270713D01*
X79414342Y-136270713D02*
X79509580Y-136223094D01*
X79509580Y-136223094D02*
X79557200Y-136175475D01*
X79557200Y-136175475D02*
X79604819Y-136080237D01*
X79604819Y-136080237D02*
X79604819Y-135889761D01*
X79604819Y-135889761D02*
X79557200Y-135794523D01*
X79557200Y-135794523D02*
X79509580Y-135746904D01*
X79509580Y-135746904D02*
X79414342Y-135699285D01*
X79414342Y-135699285D02*
X79223866Y-135699285D01*
X79223866Y-135699285D02*
X79128628Y-135746904D01*
X79128628Y-135746904D02*
X79081009Y-135794523D01*
X79081009Y-135794523D02*
X79033390Y-135889761D01*
D13*
X98613240Y-96446427D02*
X98541811Y-96589285D01*
X98541811Y-96589285D02*
X98541811Y-96803570D01*
X98541811Y-96803570D02*
X98613240Y-97017856D01*
X98613240Y-97017856D02*
X98756097Y-97160713D01*
X98756097Y-97160713D02*
X98898954Y-97232142D01*
X98898954Y-97232142D02*
X99184668Y-97303570D01*
X99184668Y-97303570D02*
X99398954Y-97303570D01*
X99398954Y-97303570D02*
X99684668Y-97232142D01*
X99684668Y-97232142D02*
X99827525Y-97160713D01*
X99827525Y-97160713D02*
X99970383Y-97017856D01*
X99970383Y-97017856D02*
X100041811Y-96803570D01*
X100041811Y-96803570D02*
X100041811Y-96660713D01*
X100041811Y-96660713D02*
X99970383Y-96446427D01*
X99970383Y-96446427D02*
X99898954Y-96374999D01*
X99898954Y-96374999D02*
X99398954Y-96374999D01*
X99398954Y-96374999D02*
X99398954Y-96660713D01*
X100041811Y-94946427D02*
X100041811Y-95803570D01*
X100041811Y-95374999D02*
X98541811Y-95374999D01*
X98541811Y-95374999D02*
X98756097Y-95517856D01*
X98756097Y-95517856D02*
X98898954Y-95660713D01*
X98898954Y-95660713D02*
X98970383Y-95803570D01*
D11*
X84084819Y-90516666D02*
X83608628Y-90849999D01*
X84084819Y-91088094D02*
X83084819Y-91088094D01*
X83084819Y-91088094D02*
X83084819Y-90707142D01*
X83084819Y-90707142D02*
X83132438Y-90611904D01*
X83132438Y-90611904D02*
X83180057Y-90564285D01*
X83180057Y-90564285D02*
X83275295Y-90516666D01*
X83275295Y-90516666D02*
X83418152Y-90516666D01*
X83418152Y-90516666D02*
X83513390Y-90564285D01*
X83513390Y-90564285D02*
X83561009Y-90611904D01*
X83561009Y-90611904D02*
X83608628Y-90707142D01*
X83608628Y-90707142D02*
X83608628Y-91088094D01*
X83418152Y-89659523D02*
X84084819Y-89659523D01*
X83037200Y-89897618D02*
X83751485Y-90135713D01*
X83751485Y-90135713D02*
X83751485Y-89516666D01*
X80504819Y-90266666D02*
X80028628Y-90599999D01*
X80504819Y-90838094D02*
X79504819Y-90838094D01*
X79504819Y-90838094D02*
X79504819Y-90457142D01*
X79504819Y-90457142D02*
X79552438Y-90361904D01*
X79552438Y-90361904D02*
X79600057Y-90314285D01*
X79600057Y-90314285D02*
X79695295Y-90266666D01*
X79695295Y-90266666D02*
X79838152Y-90266666D01*
X79838152Y-90266666D02*
X79933390Y-90314285D01*
X79933390Y-90314285D02*
X79981009Y-90361904D01*
X79981009Y-90361904D02*
X80028628Y-90457142D01*
X80028628Y-90457142D02*
X80028628Y-90838094D01*
X79504819Y-89933332D02*
X79504819Y-89314285D01*
X79504819Y-89314285D02*
X79885771Y-89647618D01*
X79885771Y-89647618D02*
X79885771Y-89504761D01*
X79885771Y-89504761D02*
X79933390Y-89409523D01*
X79933390Y-89409523D02*
X79981009Y-89361904D01*
X79981009Y-89361904D02*
X80076247Y-89314285D01*
X80076247Y-89314285D02*
X80314342Y-89314285D01*
X80314342Y-89314285D02*
X80409580Y-89361904D01*
X80409580Y-89361904D02*
X80457200Y-89409523D01*
X80457200Y-89409523D02*
X80504819Y-89504761D01*
X80504819Y-89504761D02*
X80504819Y-89790475D01*
X80504819Y-89790475D02*
X80457200Y-89885713D01*
X80457200Y-89885713D02*
X80409580Y-89933332D01*
X142229819Y-90851666D02*
X141753628Y-91184999D01*
X142229819Y-91423094D02*
X141229819Y-91423094D01*
X141229819Y-91423094D02*
X141229819Y-91042142D01*
X141229819Y-91042142D02*
X141277438Y-90946904D01*
X141277438Y-90946904D02*
X141325057Y-90899285D01*
X141325057Y-90899285D02*
X141420295Y-90851666D01*
X141420295Y-90851666D02*
X141563152Y-90851666D01*
X141563152Y-90851666D02*
X141658390Y-90899285D01*
X141658390Y-90899285D02*
X141706009Y-90946904D01*
X141706009Y-90946904D02*
X141753628Y-91042142D01*
X141753628Y-91042142D02*
X141753628Y-91423094D01*
X142229819Y-90375475D02*
X142229819Y-90184999D01*
X142229819Y-90184999D02*
X142182200Y-90089761D01*
X142182200Y-90089761D02*
X142134580Y-90042142D01*
X142134580Y-90042142D02*
X141991723Y-89946904D01*
X141991723Y-89946904D02*
X141801247Y-89899285D01*
X141801247Y-89899285D02*
X141420295Y-89899285D01*
X141420295Y-89899285D02*
X141325057Y-89946904D01*
X141325057Y-89946904D02*
X141277438Y-89994523D01*
X141277438Y-89994523D02*
X141229819Y-90089761D01*
X141229819Y-90089761D02*
X141229819Y-90280237D01*
X141229819Y-90280237D02*
X141277438Y-90375475D01*
X141277438Y-90375475D02*
X141325057Y-90423094D01*
X141325057Y-90423094D02*
X141420295Y-90470713D01*
X141420295Y-90470713D02*
X141658390Y-90470713D01*
X141658390Y-90470713D02*
X141753628Y-90423094D01*
X141753628Y-90423094D02*
X141801247Y-90375475D01*
X141801247Y-90375475D02*
X141848866Y-90280237D01*
X141848866Y-90280237D02*
X141848866Y-90089761D01*
X141848866Y-90089761D02*
X141801247Y-89994523D01*
X141801247Y-89994523D02*
X141753628Y-89946904D01*
X141753628Y-89946904D02*
X141658390Y-89899285D01*
X136239819Y-138933333D02*
X136954104Y-138933333D01*
X136954104Y-138933333D02*
X137096961Y-138980952D01*
X137096961Y-138980952D02*
X137192200Y-139076190D01*
X137192200Y-139076190D02*
X137239819Y-139219047D01*
X137239819Y-139219047D02*
X137239819Y-139314285D01*
X137239819Y-137933333D02*
X137239819Y-138504761D01*
X137239819Y-138219047D02*
X136239819Y-138219047D01*
X136239819Y-138219047D02*
X136382676Y-138314285D01*
X136382676Y-138314285D02*
X136477914Y-138409523D01*
X136477914Y-138409523D02*
X136525533Y-138504761D01*
X87514819Y-123446666D02*
X87038628Y-123779999D01*
X87514819Y-124018094D02*
X86514819Y-124018094D01*
X86514819Y-124018094D02*
X86514819Y-123637142D01*
X86514819Y-123637142D02*
X86562438Y-123541904D01*
X86562438Y-123541904D02*
X86610057Y-123494285D01*
X86610057Y-123494285D02*
X86705295Y-123446666D01*
X86705295Y-123446666D02*
X86848152Y-123446666D01*
X86848152Y-123446666D02*
X86943390Y-123494285D01*
X86943390Y-123494285D02*
X86991009Y-123541904D01*
X86991009Y-123541904D02*
X87038628Y-123637142D01*
X87038628Y-123637142D02*
X87038628Y-124018094D01*
X87514819Y-123018094D02*
X86514819Y-123018094D01*
X86514819Y-123018094D02*
X86514819Y-122637142D01*
X86514819Y-122637142D02*
X86562438Y-122541904D01*
X86562438Y-122541904D02*
X86610057Y-122494285D01*
X86610057Y-122494285D02*
X86705295Y-122446666D01*
X86705295Y-122446666D02*
X86848152Y-122446666D01*
X86848152Y-122446666D02*
X86943390Y-122494285D01*
X86943390Y-122494285D02*
X86991009Y-122541904D01*
X86991009Y-122541904D02*
X87038628Y-122637142D01*
X87038628Y-122637142D02*
X87038628Y-123018094D01*
X87514819Y-121494285D02*
X87514819Y-122065713D01*
X87514819Y-121779999D02*
X86514819Y-121779999D01*
X86514819Y-121779999D02*
X86657676Y-121875237D01*
X86657676Y-121875237D02*
X86752914Y-121970475D01*
X86752914Y-121970475D02*
X86800533Y-122065713D01*
X104454819Y-115261904D02*
X105264342Y-115261904D01*
X105264342Y-115261904D02*
X105359580Y-115214285D01*
X105359580Y-115214285D02*
X105407200Y-115166666D01*
X105407200Y-115166666D02*
X105454819Y-115071428D01*
X105454819Y-115071428D02*
X105454819Y-114880952D01*
X105454819Y-114880952D02*
X105407200Y-114785714D01*
X105407200Y-114785714D02*
X105359580Y-114738095D01*
X105359580Y-114738095D02*
X105264342Y-114690476D01*
X105264342Y-114690476D02*
X104454819Y-114690476D01*
X105407200Y-114261904D02*
X105454819Y-114119047D01*
X105454819Y-114119047D02*
X105454819Y-113880952D01*
X105454819Y-113880952D02*
X105407200Y-113785714D01*
X105407200Y-113785714D02*
X105359580Y-113738095D01*
X105359580Y-113738095D02*
X105264342Y-113690476D01*
X105264342Y-113690476D02*
X105169104Y-113690476D01*
X105169104Y-113690476D02*
X105073866Y-113738095D01*
X105073866Y-113738095D02*
X105026247Y-113785714D01*
X105026247Y-113785714D02*
X104978628Y-113880952D01*
X104978628Y-113880952D02*
X104931009Y-114071428D01*
X104931009Y-114071428D02*
X104883390Y-114166666D01*
X104883390Y-114166666D02*
X104835771Y-114214285D01*
X104835771Y-114214285D02*
X104740533Y-114261904D01*
X104740533Y-114261904D02*
X104645295Y-114261904D01*
X104645295Y-114261904D02*
X104550057Y-114214285D01*
X104550057Y-114214285D02*
X104502438Y-114166666D01*
X104502438Y-114166666D02*
X104454819Y-114071428D01*
X104454819Y-114071428D02*
X104454819Y-113833333D01*
X104454819Y-113833333D02*
X104502438Y-113690476D01*
X104931009Y-112928571D02*
X104978628Y-112785714D01*
X104978628Y-112785714D02*
X105026247Y-112738095D01*
X105026247Y-112738095D02*
X105121485Y-112690476D01*
X105121485Y-112690476D02*
X105264342Y-112690476D01*
X105264342Y-112690476D02*
X105359580Y-112738095D01*
X105359580Y-112738095D02*
X105407200Y-112785714D01*
X105407200Y-112785714D02*
X105454819Y-112880952D01*
X105454819Y-112880952D02*
X105454819Y-113261904D01*
X105454819Y-113261904D02*
X104454819Y-113261904D01*
X104454819Y-113261904D02*
X104454819Y-112928571D01*
X104454819Y-112928571D02*
X104502438Y-112833333D01*
X104502438Y-112833333D02*
X104550057Y-112785714D01*
X104550057Y-112785714D02*
X104645295Y-112738095D01*
X104645295Y-112738095D02*
X104740533Y-112738095D01*
X104740533Y-112738095D02*
X104835771Y-112785714D01*
X104835771Y-112785714D02*
X104883390Y-112833333D01*
X104883390Y-112833333D02*
X104931009Y-112928571D01*
X104931009Y-112928571D02*
X104931009Y-113261904D01*
X146854819Y-91177857D02*
X146378628Y-91511190D01*
X146854819Y-91749285D02*
X145854819Y-91749285D01*
X145854819Y-91749285D02*
X145854819Y-91368333D01*
X145854819Y-91368333D02*
X145902438Y-91273095D01*
X145902438Y-91273095D02*
X145950057Y-91225476D01*
X145950057Y-91225476D02*
X146045295Y-91177857D01*
X146045295Y-91177857D02*
X146188152Y-91177857D01*
X146188152Y-91177857D02*
X146283390Y-91225476D01*
X146283390Y-91225476D02*
X146331009Y-91273095D01*
X146331009Y-91273095D02*
X146378628Y-91368333D01*
X146378628Y-91368333D02*
X146378628Y-91749285D01*
X146854819Y-90225476D02*
X146854819Y-90796904D01*
X146854819Y-90511190D02*
X145854819Y-90511190D01*
X145854819Y-90511190D02*
X145997676Y-90606428D01*
X145997676Y-90606428D02*
X146092914Y-90701666D01*
X146092914Y-90701666D02*
X146140533Y-90796904D01*
X145854819Y-89606428D02*
X145854819Y-89511190D01*
X145854819Y-89511190D02*
X145902438Y-89415952D01*
X145902438Y-89415952D02*
X145950057Y-89368333D01*
X145950057Y-89368333D02*
X146045295Y-89320714D01*
X146045295Y-89320714D02*
X146235771Y-89273095D01*
X146235771Y-89273095D02*
X146473866Y-89273095D01*
X146473866Y-89273095D02*
X146664342Y-89320714D01*
X146664342Y-89320714D02*
X146759580Y-89368333D01*
X146759580Y-89368333D02*
X146807200Y-89415952D01*
X146807200Y-89415952D02*
X146854819Y-89511190D01*
X146854819Y-89511190D02*
X146854819Y-89606428D01*
X146854819Y-89606428D02*
X146807200Y-89701666D01*
X146807200Y-89701666D02*
X146759580Y-89749285D01*
X146759580Y-89749285D02*
X146664342Y-89796904D01*
X146664342Y-89796904D02*
X146473866Y-89844523D01*
X146473866Y-89844523D02*
X146235771Y-89844523D01*
X146235771Y-89844523D02*
X146045295Y-89796904D01*
X146045295Y-89796904D02*
X145950057Y-89749285D01*
X145950057Y-89749285D02*
X145902438Y-89701666D01*
X145902438Y-89701666D02*
X145854819Y-89606428D01*
X151179819Y-91177857D02*
X150703628Y-91511190D01*
X151179819Y-91749285D02*
X150179819Y-91749285D01*
X150179819Y-91749285D02*
X150179819Y-91368333D01*
X150179819Y-91368333D02*
X150227438Y-91273095D01*
X150227438Y-91273095D02*
X150275057Y-91225476D01*
X150275057Y-91225476D02*
X150370295Y-91177857D01*
X150370295Y-91177857D02*
X150513152Y-91177857D01*
X150513152Y-91177857D02*
X150608390Y-91225476D01*
X150608390Y-91225476D02*
X150656009Y-91273095D01*
X150656009Y-91273095D02*
X150703628Y-91368333D01*
X150703628Y-91368333D02*
X150703628Y-91749285D01*
X151179819Y-90225476D02*
X151179819Y-90796904D01*
X151179819Y-90511190D02*
X150179819Y-90511190D01*
X150179819Y-90511190D02*
X150322676Y-90606428D01*
X150322676Y-90606428D02*
X150417914Y-90701666D01*
X150417914Y-90701666D02*
X150465533Y-90796904D01*
X151179819Y-89273095D02*
X151179819Y-89844523D01*
X151179819Y-89558809D02*
X150179819Y-89558809D01*
X150179819Y-89558809D02*
X150322676Y-89654047D01*
X150322676Y-89654047D02*
X150417914Y-89749285D01*
X150417914Y-89749285D02*
X150465533Y-89844523D01*
X79565476Y-43894819D02*
X79565476Y-44609104D01*
X79565476Y-44609104D02*
X79517857Y-44751961D01*
X79517857Y-44751961D02*
X79422619Y-44847200D01*
X79422619Y-44847200D02*
X79279762Y-44894819D01*
X79279762Y-44894819D02*
X79184524Y-44894819D01*
X80565476Y-44894819D02*
X79994048Y-44894819D01*
X80279762Y-44894819D02*
X80279762Y-43894819D01*
X80279762Y-43894819D02*
X80184524Y-44037676D01*
X80184524Y-44037676D02*
X80089286Y-44132914D01*
X80089286Y-44132914D02*
X79994048Y-44180533D01*
X80898810Y-43894819D02*
X81517857Y-43894819D01*
X81517857Y-43894819D02*
X81184524Y-44275771D01*
X81184524Y-44275771D02*
X81327381Y-44275771D01*
X81327381Y-44275771D02*
X81422619Y-44323390D01*
X81422619Y-44323390D02*
X81470238Y-44371009D01*
X81470238Y-44371009D02*
X81517857Y-44466247D01*
X81517857Y-44466247D02*
X81517857Y-44704342D01*
X81517857Y-44704342D02*
X81470238Y-44799580D01*
X81470238Y-44799580D02*
X81422619Y-44847200D01*
X81422619Y-44847200D02*
X81327381Y-44894819D01*
X81327381Y-44894819D02*
X81041667Y-44894819D01*
X81041667Y-44894819D02*
X80946429Y-44847200D01*
X80946429Y-44847200D02*
X80898810Y-44799580D01*
X78316905Y-126244819D02*
X78316905Y-125244819D01*
X78316905Y-125244819D02*
X78555000Y-125244819D01*
X78555000Y-125244819D02*
X78697857Y-125292438D01*
X78697857Y-125292438D02*
X78793095Y-125387676D01*
X78793095Y-125387676D02*
X78840714Y-125482914D01*
X78840714Y-125482914D02*
X78888333Y-125673390D01*
X78888333Y-125673390D02*
X78888333Y-125816247D01*
X78888333Y-125816247D02*
X78840714Y-126006723D01*
X78840714Y-126006723D02*
X78793095Y-126101961D01*
X78793095Y-126101961D02*
X78697857Y-126197200D01*
X78697857Y-126197200D02*
X78555000Y-126244819D01*
X78555000Y-126244819D02*
X78316905Y-126244819D01*
X79221667Y-125244819D02*
X79840714Y-125244819D01*
X79840714Y-125244819D02*
X79507381Y-125625771D01*
X79507381Y-125625771D02*
X79650238Y-125625771D01*
X79650238Y-125625771D02*
X79745476Y-125673390D01*
X79745476Y-125673390D02*
X79793095Y-125721009D01*
X79793095Y-125721009D02*
X79840714Y-125816247D01*
X79840714Y-125816247D02*
X79840714Y-126054342D01*
X79840714Y-126054342D02*
X79793095Y-126149580D01*
X79793095Y-126149580D02*
X79745476Y-126197200D01*
X79745476Y-126197200D02*
X79650238Y-126244819D01*
X79650238Y-126244819D02*
X79364524Y-126244819D01*
X79364524Y-126244819D02*
X79269286Y-126197200D01*
X79269286Y-126197200D02*
X79221667Y-126149580D01*
X144834819Y-112588094D02*
X143834819Y-112588094D01*
X143834819Y-112588094D02*
X143834819Y-112349999D01*
X143834819Y-112349999D02*
X143882438Y-112207142D01*
X143882438Y-112207142D02*
X143977676Y-112111904D01*
X143977676Y-112111904D02*
X144072914Y-112064285D01*
X144072914Y-112064285D02*
X144263390Y-112016666D01*
X144263390Y-112016666D02*
X144406247Y-112016666D01*
X144406247Y-112016666D02*
X144596723Y-112064285D01*
X144596723Y-112064285D02*
X144691961Y-112111904D01*
X144691961Y-112111904D02*
X144787200Y-112207142D01*
X144787200Y-112207142D02*
X144834819Y-112349999D01*
X144834819Y-112349999D02*
X144834819Y-112588094D01*
X144834819Y-111064285D02*
X144834819Y-111635713D01*
X144834819Y-111349999D02*
X143834819Y-111349999D01*
X143834819Y-111349999D02*
X143977676Y-111445237D01*
X143977676Y-111445237D02*
X144072914Y-111540475D01*
X144072914Y-111540475D02*
X144120533Y-111635713D01*
X145554819Y-118461904D02*
X144554819Y-118461904D01*
X145554819Y-117890476D02*
X144983390Y-118319047D01*
X144554819Y-117890476D02*
X145126247Y-118461904D01*
X85574819Y-47833333D02*
X86289104Y-47833333D01*
X86289104Y-47833333D02*
X86431961Y-47880952D01*
X86431961Y-47880952D02*
X86527200Y-47976190D01*
X86527200Y-47976190D02*
X86574819Y-48119047D01*
X86574819Y-48119047D02*
X86574819Y-48214285D01*
X85670057Y-47404761D02*
X85622438Y-47357142D01*
X85622438Y-47357142D02*
X85574819Y-47261904D01*
X85574819Y-47261904D02*
X85574819Y-47023809D01*
X85574819Y-47023809D02*
X85622438Y-46928571D01*
X85622438Y-46928571D02*
X85670057Y-46880952D01*
X85670057Y-46880952D02*
X85765295Y-46833333D01*
X85765295Y-46833333D02*
X85860533Y-46833333D01*
X85860533Y-46833333D02*
X86003390Y-46880952D01*
X86003390Y-46880952D02*
X86574819Y-47452380D01*
X86574819Y-47452380D02*
X86574819Y-46833333D01*
X73772200Y-119083332D02*
X73819819Y-118940475D01*
X73819819Y-118940475D02*
X73819819Y-118702380D01*
X73819819Y-118702380D02*
X73772200Y-118607142D01*
X73772200Y-118607142D02*
X73724580Y-118559523D01*
X73724580Y-118559523D02*
X73629342Y-118511904D01*
X73629342Y-118511904D02*
X73534104Y-118511904D01*
X73534104Y-118511904D02*
X73438866Y-118559523D01*
X73438866Y-118559523D02*
X73391247Y-118607142D01*
X73391247Y-118607142D02*
X73343628Y-118702380D01*
X73343628Y-118702380D02*
X73296009Y-118892856D01*
X73296009Y-118892856D02*
X73248390Y-118988094D01*
X73248390Y-118988094D02*
X73200771Y-119035713D01*
X73200771Y-119035713D02*
X73105533Y-119083332D01*
X73105533Y-119083332D02*
X73010295Y-119083332D01*
X73010295Y-119083332D02*
X72915057Y-119035713D01*
X72915057Y-119035713D02*
X72867438Y-118988094D01*
X72867438Y-118988094D02*
X72819819Y-118892856D01*
X72819819Y-118892856D02*
X72819819Y-118654761D01*
X72819819Y-118654761D02*
X72867438Y-118511904D01*
X72819819Y-118178570D02*
X73819819Y-117940475D01*
X73819819Y-117940475D02*
X73105533Y-117749999D01*
X73105533Y-117749999D02*
X73819819Y-117559523D01*
X73819819Y-117559523D02*
X72819819Y-117321428D01*
X73819819Y-116416666D02*
X73819819Y-116988094D01*
X73819819Y-116702380D02*
X72819819Y-116702380D01*
X72819819Y-116702380D02*
X72962676Y-116797618D01*
X72962676Y-116797618D02*
X73057914Y-116892856D01*
X73057914Y-116892856D02*
X73105533Y-116988094D01*
X69779819Y-103433333D02*
X70494104Y-103433333D01*
X70494104Y-103433333D02*
X70636961Y-103480952D01*
X70636961Y-103480952D02*
X70732200Y-103576190D01*
X70732200Y-103576190D02*
X70779819Y-103719047D01*
X70779819Y-103719047D02*
X70779819Y-103814285D01*
X70208390Y-102814285D02*
X70160771Y-102909523D01*
X70160771Y-102909523D02*
X70113152Y-102957142D01*
X70113152Y-102957142D02*
X70017914Y-103004761D01*
X70017914Y-103004761D02*
X69970295Y-103004761D01*
X69970295Y-103004761D02*
X69875057Y-102957142D01*
X69875057Y-102957142D02*
X69827438Y-102909523D01*
X69827438Y-102909523D02*
X69779819Y-102814285D01*
X69779819Y-102814285D02*
X69779819Y-102623809D01*
X69779819Y-102623809D02*
X69827438Y-102528571D01*
X69827438Y-102528571D02*
X69875057Y-102480952D01*
X69875057Y-102480952D02*
X69970295Y-102433333D01*
X69970295Y-102433333D02*
X70017914Y-102433333D01*
X70017914Y-102433333D02*
X70113152Y-102480952D01*
X70113152Y-102480952D02*
X70160771Y-102528571D01*
X70160771Y-102528571D02*
X70208390Y-102623809D01*
X70208390Y-102623809D02*
X70208390Y-102814285D01*
X70208390Y-102814285D02*
X70256009Y-102909523D01*
X70256009Y-102909523D02*
X70303628Y-102957142D01*
X70303628Y-102957142D02*
X70398866Y-103004761D01*
X70398866Y-103004761D02*
X70589342Y-103004761D01*
X70589342Y-103004761D02*
X70684580Y-102957142D01*
X70684580Y-102957142D02*
X70732200Y-102909523D01*
X70732200Y-102909523D02*
X70779819Y-102814285D01*
X70779819Y-102814285D02*
X70779819Y-102623809D01*
X70779819Y-102623809D02*
X70732200Y-102528571D01*
X70732200Y-102528571D02*
X70684580Y-102480952D01*
X70684580Y-102480952D02*
X70589342Y-102433333D01*
X70589342Y-102433333D02*
X70398866Y-102433333D01*
X70398866Y-102433333D02*
X70303628Y-102480952D01*
X70303628Y-102480952D02*
X70256009Y-102528571D01*
X70256009Y-102528571D02*
X70208390Y-102623809D01*
X129194047Y-86706009D02*
X129336904Y-86753628D01*
X129336904Y-86753628D02*
X129384523Y-86801247D01*
X129384523Y-86801247D02*
X129432142Y-86896485D01*
X129432142Y-86896485D02*
X129432142Y-87039342D01*
X129432142Y-87039342D02*
X129384523Y-87134580D01*
X129384523Y-87134580D02*
X129336904Y-87182200D01*
X129336904Y-87182200D02*
X129241666Y-87229819D01*
X129241666Y-87229819D02*
X128860714Y-87229819D01*
X128860714Y-87229819D02*
X128860714Y-86229819D01*
X128860714Y-86229819D02*
X129194047Y-86229819D01*
X129194047Y-86229819D02*
X129289285Y-86277438D01*
X129289285Y-86277438D02*
X129336904Y-86325057D01*
X129336904Y-86325057D02*
X129384523Y-86420295D01*
X129384523Y-86420295D02*
X129384523Y-86515533D01*
X129384523Y-86515533D02*
X129336904Y-86610771D01*
X129336904Y-86610771D02*
X129289285Y-86658390D01*
X129289285Y-86658390D02*
X129194047Y-86706009D01*
X129194047Y-86706009D02*
X128860714Y-86706009D01*
X129765476Y-86229819D02*
X130432142Y-86229819D01*
X130432142Y-86229819D02*
X129765476Y-87229819D01*
X129765476Y-87229819D02*
X130432142Y-87229819D01*
X131336904Y-87229819D02*
X130765476Y-87229819D01*
X131051190Y-87229819D02*
X131051190Y-86229819D01*
X131051190Y-86229819D02*
X130955952Y-86372676D01*
X130955952Y-86372676D02*
X130860714Y-86467914D01*
X130860714Y-86467914D02*
X130765476Y-86515533D01*
X125884048Y-91508866D02*
X126645953Y-91508866D01*
X126265000Y-91889819D02*
X126265000Y-91127914D01*
X146362295Y-138862619D02*
X146933723Y-138862619D01*
X146933723Y-138862619D02*
X147048009Y-138900714D01*
X147048009Y-138900714D02*
X147124200Y-138976905D01*
X147124200Y-138976905D02*
X147162295Y-139091190D01*
X147162295Y-139091190D02*
X147162295Y-139167381D01*
X147162295Y-138062619D02*
X147162295Y-138519762D01*
X147162295Y-138291190D02*
X146362295Y-138291190D01*
X146362295Y-138291190D02*
X146476580Y-138367381D01*
X146476580Y-138367381D02*
X146552771Y-138443571D01*
X146552771Y-138443571D02*
X146590866Y-138519762D01*
X147162295Y-137300714D02*
X147162295Y-137757857D01*
X147162295Y-137529285D02*
X146362295Y-137529285D01*
X146362295Y-137529285D02*
X146476580Y-137605476D01*
X146476580Y-137605476D02*
X146552771Y-137681666D01*
X146552771Y-137681666D02*
X146590866Y-137757857D01*
X73772200Y-130968332D02*
X73819819Y-130825475D01*
X73819819Y-130825475D02*
X73819819Y-130587380D01*
X73819819Y-130587380D02*
X73772200Y-130492142D01*
X73772200Y-130492142D02*
X73724580Y-130444523D01*
X73724580Y-130444523D02*
X73629342Y-130396904D01*
X73629342Y-130396904D02*
X73534104Y-130396904D01*
X73534104Y-130396904D02*
X73438866Y-130444523D01*
X73438866Y-130444523D02*
X73391247Y-130492142D01*
X73391247Y-130492142D02*
X73343628Y-130587380D01*
X73343628Y-130587380D02*
X73296009Y-130777856D01*
X73296009Y-130777856D02*
X73248390Y-130873094D01*
X73248390Y-130873094D02*
X73200771Y-130920713D01*
X73200771Y-130920713D02*
X73105533Y-130968332D01*
X73105533Y-130968332D02*
X73010295Y-130968332D01*
X73010295Y-130968332D02*
X72915057Y-130920713D01*
X72915057Y-130920713D02*
X72867438Y-130873094D01*
X72867438Y-130873094D02*
X72819819Y-130777856D01*
X72819819Y-130777856D02*
X72819819Y-130539761D01*
X72819819Y-130539761D02*
X72867438Y-130396904D01*
X72819819Y-130063570D02*
X73819819Y-129825475D01*
X73819819Y-129825475D02*
X73105533Y-129634999D01*
X73105533Y-129634999D02*
X73819819Y-129444523D01*
X73819819Y-129444523D02*
X72819819Y-129206428D01*
X72915057Y-128873094D02*
X72867438Y-128825475D01*
X72867438Y-128825475D02*
X72819819Y-128730237D01*
X72819819Y-128730237D02*
X72819819Y-128492142D01*
X72819819Y-128492142D02*
X72867438Y-128396904D01*
X72867438Y-128396904D02*
X72915057Y-128349285D01*
X72915057Y-128349285D02*
X73010295Y-128301666D01*
X73010295Y-128301666D02*
X73105533Y-128301666D01*
X73105533Y-128301666D02*
X73248390Y-128349285D01*
X73248390Y-128349285D02*
X73819819Y-128920713D01*
X73819819Y-128920713D02*
X73819819Y-128301666D01*
X69454819Y-64443333D02*
X70169104Y-64443333D01*
X70169104Y-64443333D02*
X70311961Y-64490952D01*
X70311961Y-64490952D02*
X70407200Y-64586190D01*
X70407200Y-64586190D02*
X70454819Y-64729047D01*
X70454819Y-64729047D02*
X70454819Y-64824285D01*
X69454819Y-64062380D02*
X69454819Y-63443333D01*
X69454819Y-63443333D02*
X69835771Y-63776666D01*
X69835771Y-63776666D02*
X69835771Y-63633809D01*
X69835771Y-63633809D02*
X69883390Y-63538571D01*
X69883390Y-63538571D02*
X69931009Y-63490952D01*
X69931009Y-63490952D02*
X70026247Y-63443333D01*
X70026247Y-63443333D02*
X70264342Y-63443333D01*
X70264342Y-63443333D02*
X70359580Y-63490952D01*
X70359580Y-63490952D02*
X70407200Y-63538571D01*
X70407200Y-63538571D02*
X70454819Y-63633809D01*
X70454819Y-63633809D02*
X70454819Y-63919523D01*
X70454819Y-63919523D02*
X70407200Y-64014761D01*
X70407200Y-64014761D02*
X70359580Y-64062380D01*
X78391905Y-115644819D02*
X78391905Y-114644819D01*
X78391905Y-114644819D02*
X78630000Y-114644819D01*
X78630000Y-114644819D02*
X78772857Y-114692438D01*
X78772857Y-114692438D02*
X78868095Y-114787676D01*
X78868095Y-114787676D02*
X78915714Y-114882914D01*
X78915714Y-114882914D02*
X78963333Y-115073390D01*
X78963333Y-115073390D02*
X78963333Y-115216247D01*
X78963333Y-115216247D02*
X78915714Y-115406723D01*
X78915714Y-115406723D02*
X78868095Y-115501961D01*
X78868095Y-115501961D02*
X78772857Y-115597200D01*
X78772857Y-115597200D02*
X78630000Y-115644819D01*
X78630000Y-115644819D02*
X78391905Y-115644819D01*
X79344286Y-114740057D02*
X79391905Y-114692438D01*
X79391905Y-114692438D02*
X79487143Y-114644819D01*
X79487143Y-114644819D02*
X79725238Y-114644819D01*
X79725238Y-114644819D02*
X79820476Y-114692438D01*
X79820476Y-114692438D02*
X79868095Y-114740057D01*
X79868095Y-114740057D02*
X79915714Y-114835295D01*
X79915714Y-114835295D02*
X79915714Y-114930533D01*
X79915714Y-114930533D02*
X79868095Y-115073390D01*
X79868095Y-115073390D02*
X79296667Y-115644819D01*
X79296667Y-115644819D02*
X79915714Y-115644819D01*
X91259819Y-90341666D02*
X90783628Y-90674999D01*
X91259819Y-90913094D02*
X90259819Y-90913094D01*
X90259819Y-90913094D02*
X90259819Y-90532142D01*
X90259819Y-90532142D02*
X90307438Y-90436904D01*
X90307438Y-90436904D02*
X90355057Y-90389285D01*
X90355057Y-90389285D02*
X90450295Y-90341666D01*
X90450295Y-90341666D02*
X90593152Y-90341666D01*
X90593152Y-90341666D02*
X90688390Y-90389285D01*
X90688390Y-90389285D02*
X90736009Y-90436904D01*
X90736009Y-90436904D02*
X90783628Y-90532142D01*
X90783628Y-90532142D02*
X90783628Y-90913094D01*
X90259819Y-89484523D02*
X90259819Y-89674999D01*
X90259819Y-89674999D02*
X90307438Y-89770237D01*
X90307438Y-89770237D02*
X90355057Y-89817856D01*
X90355057Y-89817856D02*
X90497914Y-89913094D01*
X90497914Y-89913094D02*
X90688390Y-89960713D01*
X90688390Y-89960713D02*
X91069342Y-89960713D01*
X91069342Y-89960713D02*
X91164580Y-89913094D01*
X91164580Y-89913094D02*
X91212200Y-89865475D01*
X91212200Y-89865475D02*
X91259819Y-89770237D01*
X91259819Y-89770237D02*
X91259819Y-89579761D01*
X91259819Y-89579761D02*
X91212200Y-89484523D01*
X91212200Y-89484523D02*
X91164580Y-89436904D01*
X91164580Y-89436904D02*
X91069342Y-89389285D01*
X91069342Y-89389285D02*
X90831247Y-89389285D01*
X90831247Y-89389285D02*
X90736009Y-89436904D01*
X90736009Y-89436904D02*
X90688390Y-89484523D01*
X90688390Y-89484523D02*
X90640771Y-89579761D01*
X90640771Y-89579761D02*
X90640771Y-89770237D01*
X90640771Y-89770237D02*
X90688390Y-89865475D01*
X90688390Y-89865475D02*
X90736009Y-89913094D01*
X90736009Y-89913094D02*
X90831247Y-89960713D01*
D14*
%TO.C,J7*%
X70790000Y-95345000D02*
X70790000Y-96595000D01*
X70790000Y-96595000D02*
X72040000Y-96595000D01*
X70890000Y-94535000D02*
X70890000Y-94835000D01*
X70890000Y-94835000D02*
X71090000Y-94835000D01*
X70990000Y-94535000D02*
X70990000Y-94835000D01*
X71090000Y-88175000D02*
X71090000Y-96295000D01*
X71090000Y-93735000D02*
X71700000Y-93735000D01*
X71090000Y-94535000D02*
X70890000Y-94535000D01*
X71090000Y-96295000D02*
X75810000Y-96295000D01*
X71700000Y-88785000D02*
X71700000Y-90735000D01*
X71700000Y-90735000D02*
X71090000Y-90735000D01*
X71700000Y-93735000D02*
X71700000Y-95685000D01*
X71700000Y-95685000D02*
X75200000Y-95685000D01*
X72400000Y-88175000D02*
X72400000Y-88785000D01*
X72400000Y-96295000D02*
X72400000Y-95685000D01*
X73700000Y-88175000D02*
X73700000Y-88785000D01*
X73700000Y-96295000D02*
X73700000Y-95685000D01*
X74700000Y-91135000D02*
X75200000Y-91135000D01*
X74700000Y-91335000D02*
X74700000Y-91135000D01*
X74700000Y-93135000D02*
X75200000Y-93135000D01*
X74700000Y-93335000D02*
X74700000Y-93135000D01*
X75200000Y-88785000D02*
X71700000Y-88785000D01*
X75200000Y-91235000D02*
X74700000Y-91235000D01*
X75200000Y-91335000D02*
X74700000Y-91335000D01*
X75200000Y-93235000D02*
X74700000Y-93235000D01*
X75200000Y-93335000D02*
X74700000Y-93335000D01*
X75200000Y-95685000D02*
X75200000Y-88785000D01*
X75810000Y-88175000D02*
X71090000Y-88175000D01*
X75810000Y-96295000D02*
X75810000Y-88175000D01*
%TO.C,R2*%
X78755000Y-73425000D02*
X78755000Y-79965000D01*
X78755000Y-79965000D02*
X81495000Y-79965000D01*
X80125000Y-72655000D02*
X80125000Y-73425000D01*
X80125000Y-80735000D02*
X80125000Y-79965000D01*
X81495000Y-73425000D02*
X78755000Y-73425000D01*
X81495000Y-79965000D02*
X81495000Y-73425000D01*
%TO.C,U1*%
X87210000Y-66220000D02*
X87400000Y-65890000D01*
X87210000Y-73760000D02*
X87210000Y-66220000D01*
X87400000Y-65890000D02*
X87900000Y-66180000D01*
X87400000Y-74090000D02*
X87210000Y-73760000D01*
X87900000Y-66180000D02*
X88530000Y-66180000D01*
X87900000Y-73800000D02*
X87400000Y-74090000D01*
X88530000Y-59990000D02*
X88530000Y-66180000D01*
X88530000Y-73800000D02*
X87900000Y-73800000D01*
X88530000Y-73800000D02*
X88530000Y-79990000D01*
X88530000Y-79990000D02*
X88530000Y-73800000D01*
X91020000Y-59430000D02*
X91440000Y-59430000D01*
X91020000Y-80550000D02*
X91440000Y-80550000D01*
X93560000Y-59430000D02*
X93980000Y-59430000D01*
X93560000Y-80550000D02*
X93980000Y-80550000D01*
X96100000Y-59430000D02*
X96520000Y-59430000D01*
X96100000Y-80550000D02*
X96520000Y-80550000D01*
X98640000Y-59430000D02*
X99060000Y-59430000D01*
X98640000Y-80550000D02*
X99060000Y-80550000D01*
X101180000Y-59430000D02*
X101600000Y-59430000D01*
X101180000Y-80550000D02*
X101600000Y-80550000D01*
X102600000Y-70000000D02*
X105300000Y-67100000D01*
X103720000Y-59430000D02*
X104140000Y-59430000D01*
X103720000Y-80550000D02*
X104140000Y-80550000D01*
X105300000Y-72900000D02*
X102600000Y-70000000D01*
X106260000Y-59430000D02*
X106680000Y-59430000D01*
X106260000Y-80550000D02*
X106680000Y-80550000D01*
X108300000Y-67500000D02*
X105000000Y-67500000D01*
X108300000Y-72500000D02*
X105000000Y-72500000D01*
X108800000Y-59430000D02*
X109220000Y-59430000D01*
X108800000Y-80550000D02*
X109220000Y-80550000D01*
X111340000Y-59430000D02*
X111760000Y-59430000D01*
X111340000Y-80550000D02*
X111760000Y-80550000D01*
X113880000Y-59430000D02*
X114300000Y-59430000D01*
X113880000Y-80550000D02*
X114300000Y-80550000D01*
X116420000Y-59430000D02*
X116840000Y-59430000D01*
X116420000Y-80550000D02*
X116840000Y-80550000D01*
X118960000Y-59430000D02*
X119380000Y-59430000D01*
X118960000Y-80550000D02*
X119380000Y-80550000D01*
X121500000Y-59430000D02*
X121920000Y-59430000D01*
X121500000Y-80550000D02*
X121920000Y-80550000D01*
X124040000Y-59430000D02*
X124460000Y-59430000D01*
X124040000Y-80550000D02*
X124460000Y-80550000D01*
X126580000Y-59430000D02*
X127000000Y-59430000D01*
X126580000Y-80550000D02*
X127000000Y-80550000D01*
X129120000Y-59430000D02*
X129540000Y-59430000D01*
X129120000Y-80550000D02*
X129540000Y-80550000D01*
X131660000Y-59430000D02*
X132080000Y-59430000D01*
X131660000Y-80550000D02*
X132080000Y-80550000D01*
X134200000Y-59430000D02*
X134620000Y-59430000D01*
X134200000Y-80550000D02*
X134620000Y-80550000D01*
X136740000Y-59430000D02*
X137160000Y-59430000D01*
X136740000Y-80550000D02*
X137160000Y-80550000D01*
X139650000Y-66390000D02*
X139650000Y-59990000D01*
X139650000Y-68930000D02*
X139650000Y-68510000D01*
X139650000Y-71470000D02*
X139650000Y-71050000D01*
X139650000Y-79990000D02*
X139650000Y-73590000D01*
X88530000Y-59990000D02*
G75*
G02*
X88900026Y-59460072I561900J1800D01*
G01*
X88900000Y-80520000D02*
G75*
G02*
X88530000Y-79990000I192058J528229D01*
G01*
X139280000Y-59460000D02*
G75*
G02*
X139649973Y-59990000I-192200J-528300D01*
G01*
X139650000Y-79990000D02*
G75*
G02*
X139280000Y-80520000I-562055J-1773D01*
G01*
%TO.C,R7*%
X78030000Y-105305000D02*
X78030000Y-111845000D01*
X78030000Y-111845000D02*
X78360000Y-111845000D01*
X78360000Y-105305000D02*
X78030000Y-105305000D01*
X80440000Y-105305000D02*
X80770000Y-105305000D01*
X80770000Y-105305000D02*
X80770000Y-111845000D01*
X80770000Y-111845000D02*
X80440000Y-111845000D01*
%TO.C,R5*%
X85930000Y-86975000D02*
X85930000Y-93515000D01*
X85930000Y-93515000D02*
X88670000Y-93515000D01*
X87300000Y-86205000D02*
X87300000Y-86975000D01*
X87300000Y-94285000D02*
X87300000Y-93515000D01*
X88670000Y-86975000D02*
X85930000Y-86975000D01*
X88670000Y-93515000D02*
X88670000Y-86975000D01*
%TO.C,J4*%
X70790000Y-81495000D02*
X70790000Y-82745000D01*
X70790000Y-82745000D02*
X72040000Y-82745000D01*
X70890000Y-80685000D02*
X70890000Y-80985000D01*
X70890000Y-80985000D02*
X71090000Y-80985000D01*
X70990000Y-80685000D02*
X70990000Y-80985000D01*
X71090000Y-72325000D02*
X71090000Y-82445000D01*
X71090000Y-79885000D02*
X71700000Y-79885000D01*
X71090000Y-80685000D02*
X70890000Y-80685000D01*
X71090000Y-82445000D02*
X75810000Y-82445000D01*
X71700000Y-72935000D02*
X71700000Y-74885000D01*
X71700000Y-74885000D02*
X71090000Y-74885000D01*
X71700000Y-79885000D02*
X71700000Y-81835000D01*
X71700000Y-81835000D02*
X75200000Y-81835000D01*
X72400000Y-72325000D02*
X72400000Y-72935000D01*
X72400000Y-82445000D02*
X72400000Y-81835000D01*
X73700000Y-72325000D02*
X73700000Y-72935000D01*
X73700000Y-82445000D02*
X73700000Y-81835000D01*
X74700000Y-75285000D02*
X75200000Y-75285000D01*
X74700000Y-75485000D02*
X74700000Y-75285000D01*
X74700000Y-77285000D02*
X75200000Y-77285000D01*
X74700000Y-77485000D02*
X74700000Y-77285000D01*
X74700000Y-79285000D02*
X75200000Y-79285000D01*
X74700000Y-79485000D02*
X74700000Y-79285000D01*
X75200000Y-72935000D02*
X71700000Y-72935000D01*
X75200000Y-75385000D02*
X74700000Y-75385000D01*
X75200000Y-75485000D02*
X74700000Y-75485000D01*
X75200000Y-77385000D02*
X74700000Y-77385000D01*
X75200000Y-77485000D02*
X74700000Y-77485000D01*
X75200000Y-79385000D02*
X74700000Y-79385000D01*
X75200000Y-79485000D02*
X74700000Y-79485000D01*
X75200000Y-81835000D02*
X75200000Y-72935000D01*
X75810000Y-72325000D02*
X71090000Y-72325000D01*
X75810000Y-82445000D02*
X75810000Y-72325000D01*
%TO.C,J9*%
X142380000Y-56980000D02*
X143650000Y-56980000D01*
X142380000Y-58250000D02*
X142380000Y-56980000D01*
X144692929Y-60410000D02*
X145090000Y-60410000D01*
X144692929Y-61170000D02*
X145090000Y-61170000D01*
X144692929Y-62950000D02*
X145090000Y-62950000D01*
X144692929Y-63710000D02*
X145090000Y-63710000D01*
X144692929Y-65490000D02*
X145090000Y-65490000D01*
X144692929Y-66250000D02*
X145090000Y-66250000D01*
X144760000Y-57870000D02*
X145090000Y-57870000D01*
X144760000Y-58630000D02*
X145090000Y-58630000D01*
X145090000Y-56920000D02*
X145090000Y-67200000D01*
X145090000Y-59520000D02*
X147750000Y-59520000D01*
X145090000Y-62060000D02*
X147750000Y-62060000D01*
X145090000Y-64600000D02*
X147750000Y-64600000D01*
X145090000Y-67200000D02*
X147750000Y-67200000D01*
X147750000Y-56920000D02*
X145090000Y-56920000D01*
X147750000Y-57870000D02*
X153750000Y-57870000D01*
X147750000Y-57930000D02*
X153750000Y-57930000D01*
X147750000Y-58050000D02*
X153750000Y-58050000D01*
X147750000Y-58170000D02*
X153750000Y-58170000D01*
X147750000Y-58290000D02*
X153750000Y-58290000D01*
X147750000Y-58410000D02*
X153750000Y-58410000D01*
X147750000Y-58530000D02*
X153750000Y-58530000D01*
X147750000Y-60410000D02*
X153750000Y-60410000D01*
X147750000Y-62950000D02*
X153750000Y-62950000D01*
X147750000Y-65490000D02*
X153750000Y-65490000D01*
X147750000Y-67200000D02*
X147750000Y-56920000D01*
X153750000Y-57870000D02*
X153750000Y-58630000D01*
X153750000Y-58630000D02*
X147750000Y-58630000D01*
X153750000Y-60410000D02*
X153750000Y-61170000D01*
X153750000Y-61170000D02*
X147750000Y-61170000D01*
X153750000Y-62950000D02*
X153750000Y-63710000D01*
X153750000Y-63710000D02*
X147750000Y-63710000D01*
X153750000Y-65490000D02*
X153750000Y-66250000D01*
X153750000Y-66250000D02*
X147750000Y-66250000D01*
%TO.C,R1*%
X78705000Y-60205000D02*
X78705000Y-66745000D01*
X78705000Y-66745000D02*
X81445000Y-66745000D01*
X80075000Y-59435000D02*
X80075000Y-60205000D01*
X80075000Y-67515000D02*
X80075000Y-66745000D01*
X81445000Y-60205000D02*
X78705000Y-60205000D01*
X81445000Y-66745000D02*
X81445000Y-60205000D01*
%TO.C,U2*%
X95320000Y-88365000D02*
X95320000Y-90015000D01*
X95320000Y-92015000D02*
X95320000Y-93665000D01*
X95320000Y-93665000D02*
X120840000Y-93665000D01*
X120840000Y-88365000D02*
X95320000Y-88365000D01*
X120840000Y-93665000D02*
X120840000Y-88365000D01*
X95260000Y-96155000D02*
X120900000Y-96155000D01*
X120900000Y-85875000D01*
X95260000Y-85875000D01*
X95260000Y-96155000D01*
X95320000Y-90015000D02*
G75*
G02*
X95320000Y-92015000I0J-1000000D01*
G01*
%TO.C,R8*%
X77905000Y-133365000D02*
X77905000Y-139905000D01*
X77905000Y-139905000D02*
X78235000Y-139905000D01*
X78235000Y-133365000D02*
X77905000Y-133365000D01*
X80315000Y-133365000D02*
X80645000Y-133365000D01*
X80645000Y-133365000D02*
X80645000Y-139905000D01*
X80645000Y-139905000D02*
X80315000Y-139905000D01*
D15*
%TO.C,G1*%
G36*
X105922405Y-105394529D02*
G01*
X106026132Y-105670844D01*
X105964229Y-106047479D01*
X105740739Y-106051635D01*
X105361864Y-105691427D01*
X105258137Y-105415112D01*
X105320040Y-105038477D01*
X105543530Y-105034321D01*
X105922405Y-105394529D01*
G37*
G36*
X106891797Y-66105482D02*
G01*
X106926404Y-66316251D01*
X107168983Y-66708953D01*
X107755403Y-67047955D01*
X107782584Y-67057653D01*
X108311160Y-67361455D01*
X108627973Y-67747527D01*
X108646744Y-68061311D01*
X108395958Y-68156461D01*
X107979725Y-68069685D01*
X107300766Y-67859207D01*
X107254385Y-67843149D01*
X106611158Y-67514649D01*
X106373706Y-67018557D01*
X106355618Y-66701576D01*
X106440844Y-66112603D01*
X106641011Y-65873315D01*
X106891797Y-66105482D01*
G37*
G36*
X106721436Y-70742686D02*
G01*
X107177686Y-71159507D01*
X107671970Y-71401852D01*
X108013758Y-71395111D01*
X108067977Y-71269987D01*
X108243350Y-71107891D01*
X108353370Y-71153090D01*
X108593145Y-71555641D01*
X108638764Y-71883245D01*
X108544266Y-72245781D01*
X108159190Y-72377904D01*
X107568539Y-72365840D01*
X106565850Y-72122959D01*
X105948360Y-71594397D01*
X105793908Y-71064899D01*
X105944341Y-70828476D01*
X106070224Y-70867697D01*
X106331232Y-70817099D01*
X106364694Y-70670495D01*
X106461515Y-70486947D01*
X106721436Y-70742686D01*
G37*
G36*
X105962923Y-98790980D02*
G01*
X106121723Y-99313320D01*
X106319443Y-99814526D01*
X106625329Y-100060830D01*
X106873785Y-99969323D01*
X106926404Y-99716199D01*
X107073404Y-99321386D01*
X107211797Y-99264326D01*
X107440144Y-99504482D01*
X107497191Y-99861831D01*
X107741878Y-100431584D01*
X108067977Y-100608600D01*
X108532416Y-100948737D01*
X108638764Y-101277985D01*
X108606552Y-101563348D01*
X108422264Y-101655937D01*
X107954425Y-101556856D01*
X107140449Y-101290556D01*
X106276469Y-100970052D01*
X105817143Y-100669941D01*
X105619342Y-100250214D01*
X105553558Y-99738273D01*
X105582544Y-99049515D01*
X105750004Y-98710560D01*
X105962923Y-98790980D01*
G37*
G36*
X108120059Y-68539166D02*
G01*
X108190289Y-68604936D01*
X108533258Y-69213658D01*
X108626172Y-69948498D01*
X108469063Y-70576487D01*
X108189999Y-70836140D01*
X107625057Y-70839121D01*
X107503920Y-70839760D01*
X106894477Y-70425429D01*
X106478158Y-69744589D01*
X106424200Y-69342126D01*
X106988534Y-69342126D01*
X107348741Y-69721001D01*
X107625057Y-69824728D01*
X108001691Y-69762825D01*
X108005847Y-69539335D01*
X107645640Y-69160460D01*
X107369325Y-69056733D01*
X106992690Y-69118636D01*
X106988534Y-69342126D01*
X106424200Y-69342126D01*
X106371452Y-68948681D01*
X106458578Y-68585189D01*
X106853549Y-68222756D01*
X107480301Y-68208246D01*
X108120059Y-68539166D01*
G37*
G36*
X107314654Y-76508055D02*
G01*
X107425842Y-76546118D01*
X108139958Y-76860773D01*
X108469278Y-77280102D01*
X108583063Y-77931631D01*
X108582786Y-78636497D01*
X108469303Y-79050745D01*
X108440366Y-79075690D01*
X108031446Y-79094342D01*
X107346435Y-78968086D01*
X107283146Y-78951347D01*
X106569058Y-78618438D01*
X106355618Y-78144129D01*
X106428154Y-77773655D01*
X106754457Y-77754211D01*
X107108681Y-77874880D01*
X107704192Y-78033850D01*
X108017390Y-78005550D01*
X107890568Y-77815490D01*
X107376697Y-77551001D01*
X107264326Y-77506906D01*
X106603411Y-77117910D01*
X106355618Y-76670629D01*
X106412464Y-76373281D01*
X106682429Y-76324873D01*
X107314654Y-76508055D01*
G37*
G36*
X105781889Y-123140474D02*
G01*
X106284269Y-123574091D01*
X106932020Y-124059287D01*
X107518408Y-124151618D01*
X107853932Y-124080258D01*
X108417863Y-123981037D01*
X108621589Y-124180486D01*
X108638764Y-124403615D01*
X108434767Y-124862215D01*
X108166441Y-124949719D01*
X107853052Y-124990509D01*
X107938761Y-125210170D01*
X108166441Y-125471630D01*
X108539958Y-126091057D01*
X108638764Y-126523901D01*
X108585165Y-126811197D01*
X108355024Y-126744966D01*
X107844326Y-126293118D01*
X107822249Y-126271991D01*
X107146508Y-125748171D01*
X106543736Y-125627798D01*
X106252586Y-125678749D01*
X105703980Y-125746789D01*
X105513010Y-125497200D01*
X105499438Y-125266052D01*
X105693131Y-124758415D01*
X105998876Y-124655250D01*
X106342150Y-124618257D01*
X106222264Y-124441156D01*
X105998876Y-124267046D01*
X105590767Y-123735506D01*
X105499438Y-123366548D01*
X105551750Y-123076205D01*
X105781889Y-123140474D01*
G37*
G36*
X107244216Y-109624772D02*
G01*
X107958806Y-110166038D01*
X108181874Y-110440151D01*
X108447774Y-111029183D01*
X108604841Y-111766561D01*
X108635672Y-112454824D01*
X108522868Y-112896505D01*
X108404210Y-112963202D01*
X108016333Y-112877571D01*
X107801163Y-112812817D01*
X107292223Y-112659655D01*
X106834547Y-112508285D01*
X106036659Y-112206196D01*
X105643146Y-111904728D01*
X105511721Y-111440320D01*
X105499438Y-110973567D01*
X105500675Y-110963556D01*
X106070224Y-110963556D01*
X106307976Y-111254910D01*
X106864459Y-111567553D01*
X107504520Y-111784912D01*
X107801163Y-111821629D01*
X108056960Y-111662149D01*
X107894052Y-111251253D01*
X107507820Y-110832373D01*
X106932017Y-110525584D01*
X106387669Y-110536897D01*
X106084031Y-110847215D01*
X106070224Y-110963556D01*
X105500675Y-110963556D01*
X105597315Y-110181503D01*
X105838290Y-109622955D01*
X105892813Y-109567294D01*
X106493269Y-109401441D01*
X107244216Y-109624772D01*
G37*
G36*
X88004009Y-112013860D02*
G01*
X88596953Y-112545045D01*
X89444528Y-113346920D01*
X90474067Y-114351223D01*
X91194649Y-115068426D01*
X94432234Y-118315222D01*
X91760780Y-119879494D01*
X90244408Y-120762904D01*
X89148774Y-121389024D01*
X88803932Y-121577376D01*
X88405597Y-121794946D01*
X87946599Y-122017763D01*
X87703503Y-122094567D01*
X87681121Y-122095787D01*
X87629544Y-121825410D01*
X87584783Y-121074316D01*
X87549670Y-119932560D01*
X87527034Y-118490198D01*
X87520157Y-117061311D01*
X88682302Y-117061311D01*
X88700295Y-118298123D01*
X88717338Y-118645137D01*
X88803932Y-120065306D01*
X90469679Y-119044717D01*
X92135426Y-118024129D01*
X90469679Y-116338011D01*
X88803932Y-114651894D01*
X88717338Y-115938431D01*
X88682302Y-117061311D01*
X87520157Y-117061311D01*
X87519663Y-116958708D01*
X87531173Y-115317694D01*
X87563149Y-113893568D01*
X87611756Y-112776383D01*
X87673160Y-112056192D01*
X87738363Y-111821629D01*
X88004009Y-112013860D01*
G37*
G36*
X101964838Y-128074029D02*
G01*
X102009598Y-128825123D01*
X102044712Y-129966879D01*
X102067347Y-131409241D01*
X102074719Y-132940731D01*
X102063208Y-134581745D01*
X102031233Y-136005871D01*
X101982626Y-137123056D01*
X101921221Y-137843246D01*
X101856018Y-138077809D01*
X101590373Y-137885578D01*
X100997428Y-137354394D01*
X100933146Y-137293578D01*
X100149853Y-136552519D01*
X99120314Y-135548216D01*
X98399733Y-134831013D01*
X95616323Y-132039685D01*
X97365730Y-132039685D01*
X99149438Y-133842972D01*
X100933146Y-135646259D01*
X100933146Y-132707656D01*
X100933146Y-129769053D01*
X99838572Y-130427364D01*
X98980366Y-130958002D01*
X98208268Y-131458361D01*
X98054864Y-131562680D01*
X97365730Y-132039685D01*
X95616323Y-132039685D01*
X95162147Y-131584217D01*
X97833601Y-130019945D01*
X99349973Y-129136534D01*
X100445608Y-128510414D01*
X101188785Y-128104492D01*
X101647782Y-127881676D01*
X101890879Y-127804872D01*
X101913260Y-127803652D01*
X101964838Y-128074029D01*
G37*
G36*
X107539974Y-72791587D02*
G01*
X107996629Y-72902632D01*
X108433010Y-73132628D01*
X108613940Y-73625313D01*
X108638764Y-74159222D01*
X108553108Y-74900083D01*
X108340146Y-75350007D01*
X108282022Y-75387675D01*
X108071712Y-75516620D01*
X108282022Y-75554155D01*
X108579702Y-75811170D01*
X108638764Y-76105347D01*
X108606258Y-76380151D01*
X108427297Y-76475790D01*
X107979717Y-76387183D01*
X107877715Y-76353367D01*
X107141352Y-76109248D01*
X106926404Y-76034127D01*
X105859113Y-75594873D01*
X105312206Y-75198520D01*
X105214045Y-74947339D01*
X105263233Y-74663280D01*
X105506372Y-74606958D01*
X106086827Y-74770104D01*
X106400136Y-74878909D01*
X107154734Y-75098970D01*
X107634556Y-75160277D01*
X107757061Y-75079531D01*
X107439709Y-74873430D01*
X107143565Y-74750083D01*
X107108681Y-74735554D01*
X106540651Y-74368218D01*
X106446120Y-74038194D01*
X106971244Y-74038194D01*
X107016841Y-74203231D01*
X107143565Y-74311332D01*
X107145712Y-74298152D01*
X107843559Y-74298152D01*
X107877715Y-74339982D01*
X108047381Y-74300806D01*
X108067977Y-74149719D01*
X107963556Y-73914808D01*
X107877715Y-73959457D01*
X107843559Y-74298152D01*
X107145712Y-74298152D01*
X107189266Y-74030805D01*
X107136795Y-73660646D01*
X107039372Y-73656227D01*
X106971244Y-74038194D01*
X106446120Y-74038194D01*
X106358694Y-73732978D01*
X106355618Y-73585997D01*
X106452825Y-72983526D01*
X106813223Y-72733043D01*
X107539974Y-72791587D01*
G37*
G36*
X101991021Y-115232073D02*
G01*
X102023183Y-115988333D01*
X102049029Y-117144101D01*
X102066745Y-118613738D01*
X102074516Y-120311608D01*
X102074719Y-120642068D01*
X102074719Y-126323181D01*
X94946980Y-130488136D01*
X93121933Y-131551656D01*
X91459346Y-132514930D01*
X90022175Y-133341929D01*
X88873374Y-133996622D01*
X88661236Y-134115359D01*
X88075900Y-134442981D01*
X87692707Y-134644975D01*
X87669452Y-134653090D01*
X87623804Y-134381981D01*
X87583764Y-133625772D01*
X87556214Y-132636086D01*
X88661236Y-132636086D01*
X91729213Y-130842703D01*
X93303967Y-129923582D01*
X95074307Y-128892501D01*
X96779751Y-127901082D01*
X97718861Y-127356262D01*
X100640532Y-125663202D01*
X100644142Y-121596349D01*
X100633453Y-120146760D01*
X100601620Y-118925214D01*
X100553067Y-118032919D01*
X100492217Y-117571084D01*
X100466368Y-117529495D01*
X100178247Y-117666441D01*
X99467786Y-118050763D01*
X98405942Y-118642688D01*
X97063671Y-119402441D01*
X95511931Y-120290250D01*
X94483893Y-120882865D01*
X88682803Y-124236236D01*
X88672019Y-128436161D01*
X88661236Y-132636086D01*
X87556214Y-132636086D01*
X87551594Y-132470140D01*
X87529556Y-131000762D01*
X87519908Y-129303313D01*
X87519663Y-128977379D01*
X87519663Y-123301669D01*
X94676829Y-119131312D01*
X96504812Y-118068501D01*
X98168642Y-117105582D01*
X99605748Y-116278410D01*
X100753562Y-115622842D01*
X101549514Y-115174732D01*
X101931034Y-114969935D01*
X101954357Y-114960955D01*
X101991021Y-115232073D01*
G37*
G36*
X105999707Y-112636658D02*
G01*
X106070224Y-113105899D01*
X106219080Y-113679737D01*
X106498314Y-113819382D01*
X106876680Y-113590934D01*
X106926404Y-113391292D01*
X107080508Y-113011500D01*
X107211797Y-112963202D01*
X107440144Y-113203359D01*
X107497191Y-113560707D01*
X107741878Y-114130461D01*
X108067977Y-114307476D01*
X108499039Y-114673366D01*
X108683813Y-115337025D01*
X108626442Y-116083307D01*
X108331063Y-116697065D01*
X108017673Y-116921464D01*
X107593872Y-117078238D01*
X107396583Y-117151220D01*
X108017673Y-117313639D01*
X108508312Y-117630566D01*
X108638764Y-117961400D01*
X108471684Y-118309398D01*
X108240380Y-118293868D01*
X107726498Y-118118802D01*
X106932192Y-117869197D01*
X106670717Y-117790070D01*
X105829880Y-117433730D01*
X105506681Y-117008248D01*
X105499438Y-116922491D01*
X105640453Y-116552545D01*
X105998876Y-116587968D01*
X106330664Y-116680996D01*
X106266453Y-116506980D01*
X106031372Y-116222269D01*
X105794306Y-115712503D01*
X105623071Y-114922597D01*
X105602528Y-114727130D01*
X105924309Y-114727130D01*
X106018186Y-114984805D01*
X106370123Y-115479569D01*
X106379728Y-115491447D01*
X106945189Y-115973493D01*
X107593872Y-115996398D01*
X107639431Y-115985448D01*
X108231345Y-115746703D01*
X108255016Y-115472243D01*
X107711693Y-115164805D01*
X107184012Y-114986349D01*
X106449074Y-114791060D01*
X105988033Y-114715521D01*
X105924309Y-114727130D01*
X105602528Y-114727130D01*
X105528661Y-114024293D01*
X105522072Y-113189334D01*
X105614298Y-112589460D01*
X105786183Y-112392416D01*
X105999707Y-112636658D01*
G37*
G36*
X107857613Y-79426254D02*
G01*
X108478006Y-79778759D01*
X108638764Y-80169200D01*
X108561925Y-80520672D01*
X108224245Y-80529405D01*
X107885700Y-80413322D01*
X107290189Y-80254353D01*
X106976991Y-80282653D01*
X107103813Y-80472712D01*
X107617684Y-80737202D01*
X107730055Y-80781296D01*
X108399604Y-81177491D01*
X108638764Y-81625449D01*
X108556059Y-81954597D01*
X108202989Y-81949981D01*
X107885700Y-81840289D01*
X107290189Y-81681319D01*
X106976991Y-81709619D01*
X107101766Y-81900774D01*
X107612520Y-82162814D01*
X107700100Y-82196956D01*
X108191806Y-82418859D01*
X108457343Y-82718789D01*
X108569856Y-83260534D01*
X108602491Y-84207884D01*
X108602633Y-84217910D01*
X108587742Y-85177719D01*
X108493283Y-85664896D01*
X108296431Y-85774769D01*
X108234204Y-85756666D01*
X107724662Y-85583239D01*
X106933143Y-85334644D01*
X106670717Y-85255238D01*
X105933739Y-84994855D01*
X105596147Y-84676785D01*
X105502984Y-84107322D01*
X105499438Y-83791073D01*
X105561772Y-83090678D01*
X105729230Y-82836359D01*
X105784831Y-82854214D01*
X106024580Y-83256752D01*
X106070224Y-83584540D01*
X106192985Y-84039071D01*
X106355618Y-84138483D01*
X106608813Y-83907327D01*
X106641011Y-83710394D01*
X106764650Y-83320352D01*
X107021243Y-83360304D01*
X107239306Y-83777425D01*
X107263296Y-83902084D01*
X107481254Y-84470122D01*
X107802658Y-84613988D01*
X108068200Y-84299825D01*
X108117321Y-84083583D01*
X108052132Y-83554617D01*
X107580896Y-83204295D01*
X107354494Y-83114575D01*
X106881782Y-82906160D01*
X106619187Y-82611498D01*
X106497289Y-82072847D01*
X106446671Y-81132464D01*
X106443940Y-81045473D01*
X106436901Y-80063533D01*
X106512742Y-79527364D01*
X106701359Y-79314416D01*
X106872030Y-79290695D01*
X107857613Y-79426254D01*
G37*
G36*
X92585502Y-54055162D02*
G01*
X93215159Y-54149249D01*
X95609377Y-54591815D01*
X97482542Y-55056039D01*
X98884387Y-55564254D01*
X99864647Y-56138790D01*
X100473052Y-56801977D01*
X100751685Y-57533277D01*
X100996901Y-59519263D01*
X101044982Y-61618711D01*
X100932902Y-63148076D01*
X100606724Y-64521909D01*
X100035294Y-65402248D01*
X99189781Y-65823762D01*
X98666733Y-65873315D01*
X97787898Y-65807340D01*
X97736353Y-65803470D01*
X96453493Y-65616444D01*
X94980239Y-65346002D01*
X93478677Y-65025908D01*
X92110893Y-64689927D01*
X91038972Y-64371823D01*
X90568950Y-64186447D01*
X89711832Y-63641292D01*
X89019362Y-62980004D01*
X88867198Y-62764238D01*
X88482831Y-61764591D01*
X88228136Y-60383250D01*
X88183241Y-59707883D01*
X90161210Y-59707883D01*
X90253509Y-60701391D01*
X90287030Y-60878933D01*
X90529877Y-61583203D01*
X90974981Y-62134968D01*
X91704139Y-62576709D01*
X92799149Y-62950906D01*
X94341811Y-63300042D01*
X95285297Y-63474732D01*
X96772023Y-63719352D01*
X97787898Y-63790874D01*
X98422542Y-63624245D01*
X98765570Y-63154417D01*
X98906600Y-62316338D01*
X98935249Y-61044957D01*
X98935393Y-60825226D01*
X98902918Y-59647551D01*
X98816595Y-58644219D01*
X98693071Y-57988001D01*
X98652190Y-57886397D01*
X98363839Y-57540865D01*
X97848514Y-57240850D01*
X97025389Y-56959991D01*
X95813638Y-56671924D01*
X94132435Y-56350288D01*
X93717883Y-56277010D01*
X92232715Y-56046472D01*
X91248037Y-55965900D01*
X90714434Y-56032286D01*
X90625835Y-56088940D01*
X90409760Y-56584780D01*
X90251912Y-57471761D01*
X90164870Y-58572068D01*
X90161210Y-59707883D01*
X88183241Y-59707883D01*
X88122796Y-58798611D01*
X88186495Y-57189069D01*
X88219498Y-56893830D01*
X88503298Y-55582437D01*
X89016569Y-54678710D01*
X89824541Y-54146813D01*
X90992442Y-53950909D01*
X92585502Y-54055162D01*
G37*
G36*
X106563328Y-102896034D02*
G01*
X107187079Y-103409232D01*
X107329124Y-103567122D01*
X107796621Y-104090044D01*
X108011214Y-104196550D01*
X108067377Y-103923133D01*
X108067977Y-103852515D01*
X108184901Y-103377022D01*
X108356806Y-103259832D01*
X108507953Y-103524859D01*
X108594313Y-104242751D01*
X108605247Y-105122392D01*
X108576447Y-106142059D01*
X108470346Y-106682077D01*
X108173510Y-106832438D01*
X107572508Y-106683132D01*
X106926404Y-106454298D01*
X106691624Y-106429734D01*
X106856785Y-106707079D01*
X106997752Y-106872675D01*
X107380777Y-107491397D01*
X107497191Y-107946663D01*
X107737090Y-108419183D01*
X108067977Y-108599611D01*
X108532416Y-108939748D01*
X108638764Y-109268996D01*
X108606552Y-109554359D01*
X108422264Y-109646948D01*
X107954425Y-109547867D01*
X107140449Y-109281567D01*
X106657854Y-109102584D01*
X106276564Y-108961172D01*
X105817275Y-108661174D01*
X105619448Y-108241367D01*
X105553422Y-107726990D01*
X105555007Y-107679087D01*
X106186073Y-107679087D01*
X106212921Y-107826124D01*
X106577784Y-108100631D01*
X106657854Y-108111517D01*
X106918717Y-107893836D01*
X106926404Y-107826124D01*
X106694105Y-107575659D01*
X106481471Y-107540731D01*
X106186073Y-107679087D01*
X105555007Y-107679087D01*
X105580205Y-106917741D01*
X105859401Y-106531414D01*
X105910163Y-106509027D01*
X106287543Y-106113433D01*
X106355618Y-105804901D01*
X106435199Y-105449088D01*
X106781020Y-105444398D01*
X107087680Y-105550042D01*
X107831392Y-105786136D01*
X108120213Y-105726491D01*
X107971905Y-105333668D01*
X107497191Y-104686798D01*
X106933022Y-104034141D01*
X106485018Y-103620963D01*
X106331636Y-103545225D01*
X106094195Y-103743724D01*
X106122271Y-104153416D01*
X106388475Y-104495590D01*
X106426966Y-104515286D01*
X106492359Y-104615013D01*
X106212921Y-104608080D01*
X105772921Y-104342144D01*
X105532999Y-103811626D01*
X105513382Y-103225028D01*
X105734293Y-102790853D01*
X106026773Y-102689045D01*
X106563328Y-102896034D01*
G37*
G36*
X93248114Y-77276646D02*
G01*
X95029694Y-77576558D01*
X96997267Y-78004411D01*
X98467712Y-78463613D01*
X99514684Y-78988595D01*
X100211833Y-79613788D01*
X100542357Y-80153631D01*
X100789047Y-81020041D01*
X100958438Y-82272474D01*
X101038971Y-83729968D01*
X101019084Y-85211557D01*
X100930790Y-86233799D01*
X100747112Y-87211696D01*
X100496114Y-87990840D01*
X100306188Y-88312472D01*
X99729824Y-88677972D01*
X98877009Y-88852601D01*
X97679301Y-88836408D01*
X97563719Y-88821560D01*
X96068256Y-88629445D01*
X94387695Y-88316794D01*
X92622641Y-87928207D01*
X91315092Y-87554306D01*
X90355394Y-87145520D01*
X89633894Y-86652279D01*
X89040938Y-86025011D01*
X88893817Y-85833209D01*
X88501302Y-84968375D01*
X88248231Y-83729783D01*
X88134523Y-82281761D01*
X88148812Y-81447496D01*
X90147317Y-81447496D01*
X90154701Y-82727000D01*
X90219704Y-83434233D01*
X90364439Y-84277219D01*
X90614551Y-84903965D01*
X91057557Y-85371779D01*
X91780976Y-85737967D01*
X92872325Y-86059838D01*
X94419123Y-86394698D01*
X94879823Y-86485707D01*
X96459074Y-86781041D01*
X97563719Y-86909825D01*
X98278570Y-86818866D01*
X98688439Y-86454969D01*
X98878137Y-85764943D01*
X98932475Y-84695593D01*
X98935393Y-83942080D01*
X98902918Y-82764405D01*
X98816595Y-81761073D01*
X98693071Y-81104855D01*
X98652190Y-81003251D01*
X98193975Y-80552242D01*
X97474138Y-80187632D01*
X97439269Y-80176155D01*
X96561353Y-79939336D01*
X95419418Y-79691877D01*
X94157693Y-79457420D01*
X92920409Y-79259608D01*
X91851795Y-79122081D01*
X91096083Y-79068483D01*
X90831771Y-79093065D01*
X90505114Y-79493911D01*
X90270542Y-80324261D01*
X90147317Y-81447496D01*
X88148812Y-81447496D01*
X88160096Y-80788633D01*
X88324867Y-79414725D01*
X88628754Y-78324364D01*
X88897809Y-77849251D01*
X89479672Y-77393699D01*
X90357272Y-77148255D01*
X91592717Y-77110158D01*
X93248114Y-77276646D01*
G37*
G36*
X92162429Y-65671651D02*
G01*
X93578170Y-65825312D01*
X95144222Y-66073900D01*
X96690803Y-66385955D01*
X98048133Y-66730022D01*
X99046431Y-67074642D01*
X99213478Y-67153805D01*
X99946694Y-67708581D01*
X100462677Y-68375337D01*
X100728324Y-69213157D01*
X100923404Y-70435866D01*
X101033714Y-71860356D01*
X101045048Y-73303518D01*
X100943838Y-74577809D01*
X100728441Y-75789814D01*
X100463578Y-76550933D01*
X100087030Y-76980923D01*
X99588194Y-77187080D01*
X98644546Y-77277214D01*
X97474720Y-77220734D01*
X97318291Y-77213182D01*
X95757578Y-77022626D01*
X94110560Y-76733190D01*
X92525386Y-76372517D01*
X91150208Y-75968251D01*
X90133176Y-75548034D01*
X89841749Y-75368501D01*
X89155237Y-74748420D01*
X88687653Y-74006544D01*
X88402583Y-73026930D01*
X88263617Y-71693637D01*
X88234494Y-70310505D01*
X90109536Y-70310505D01*
X90200293Y-71679103D01*
X90459809Y-72837776D01*
X90863749Y-73621182D01*
X90915306Y-73676698D01*
X91501564Y-74033496D01*
X92470154Y-74387145D01*
X93686421Y-74713149D01*
X95015708Y-74987015D01*
X96323359Y-75184245D01*
X97474720Y-75280345D01*
X98335133Y-75250819D01*
X98745131Y-75101030D01*
X98828448Y-74749153D01*
X98893228Y-73964427D01*
X98930215Y-72884718D01*
X98935393Y-72267812D01*
X98924675Y-71011040D01*
X98873005Y-70191935D01*
X98751108Y-69677494D01*
X98529708Y-69334718D01*
X98231827Y-69071430D01*
X97618065Y-68768581D01*
X96592400Y-68442478D01*
X95310831Y-68127149D01*
X93929359Y-67856623D01*
X92603986Y-67664927D01*
X91490711Y-67586089D01*
X91420400Y-67585674D01*
X90799693Y-67619339D01*
X90473513Y-67821458D01*
X90302100Y-68343717D01*
X90211875Y-68897322D01*
X90109536Y-70310505D01*
X88234494Y-70310505D01*
X88233146Y-70246490D01*
X88248583Y-68868687D01*
X88309557Y-67925161D01*
X88438058Y-67279889D01*
X88656080Y-66796848D01*
X88832991Y-66536378D01*
X89267108Y-66059100D01*
X89791149Y-65798226D01*
X90604496Y-65674139D01*
X91066779Y-65644372D01*
X92162429Y-65671651D01*
G37*
G36*
X106499671Y-118167273D02*
G01*
X106687231Y-118371883D01*
X107050526Y-118731669D01*
X107211360Y-118715128D01*
X107211797Y-118702685D01*
X107394205Y-118410703D01*
X107802334Y-118445693D01*
X108227543Y-118764324D01*
X108343329Y-118937699D01*
X108616447Y-119800375D01*
X108515651Y-120531238D01*
X108192640Y-120890121D01*
X107893551Y-121129178D01*
X108064879Y-121400762D01*
X108192640Y-121510034D01*
X108531243Y-122053406D01*
X108639396Y-122752139D01*
X108474649Y-123303855D01*
X108448501Y-123332491D01*
X107915735Y-123509699D01*
X107764747Y-123469609D01*
X107205774Y-123321193D01*
X106469711Y-122868189D01*
X105858639Y-122251903D01*
X105523652Y-121573552D01*
X105499438Y-121356934D01*
X105600403Y-120832852D01*
X105784831Y-120668820D01*
X106019007Y-120907097D01*
X106070224Y-121222764D01*
X106201274Y-121769106D01*
X106355618Y-121953090D01*
X106384612Y-121941811D01*
X107249676Y-121941811D01*
X107265309Y-122113624D01*
X107626642Y-122546137D01*
X107764747Y-122613062D01*
X108030098Y-122535156D01*
X108014466Y-122363343D01*
X107782584Y-122085782D01*
X107653133Y-121930830D01*
X107515028Y-121863905D01*
X107249676Y-121941811D01*
X106384612Y-121941811D01*
X106580248Y-121865707D01*
X106641011Y-121541843D01*
X106811412Y-121067640D01*
X107060144Y-120954214D01*
X107349446Y-120761812D01*
X107321918Y-120544144D01*
X106970956Y-120266054D01*
X106756454Y-120290680D01*
X106355618Y-120267451D01*
X106176890Y-120257093D01*
X105715285Y-119793236D01*
X105630537Y-119493561D01*
X107497191Y-119493561D01*
X107705457Y-119897016D01*
X107782584Y-119955337D01*
X108045989Y-119942291D01*
X108067977Y-119846327D01*
X107859711Y-119442873D01*
X107782584Y-119384551D01*
X107519179Y-119397597D01*
X107497191Y-119493561D01*
X105630537Y-119493561D01*
X105514237Y-119082315D01*
X106070224Y-119082315D01*
X106270210Y-119325975D01*
X106355618Y-119384551D01*
X106618603Y-119361923D01*
X106641011Y-119258697D01*
X106433841Y-118968075D01*
X106355618Y-118956461D01*
X106077644Y-119053833D01*
X106070224Y-119082315D01*
X105514237Y-119082315D01*
X105502126Y-119039488D01*
X105499438Y-118938359D01*
X105635253Y-118183245D01*
X105993343Y-117914447D01*
X106499671Y-118167273D01*
G37*
G36*
X103579155Y-53892610D02*
G01*
X103649278Y-53928104D01*
X103712420Y-54020367D01*
X103768946Y-54196487D01*
X103819223Y-54483552D01*
X103863618Y-54908648D01*
X103902495Y-55498865D01*
X103936221Y-56281288D01*
X103965162Y-57283005D01*
X103989684Y-58531104D01*
X104010154Y-60052673D01*
X104026937Y-61874799D01*
X104040398Y-64024569D01*
X104050906Y-66529071D01*
X104058824Y-69415392D01*
X104064520Y-72710620D01*
X104068359Y-76441843D01*
X104070708Y-80636147D01*
X104071932Y-85320621D01*
X104072398Y-90522351D01*
X104072471Y-96125000D01*
X104072393Y-101857792D01*
X104071913Y-107046885D01*
X104070667Y-111719367D01*
X104068287Y-115902324D01*
X104064407Y-119622845D01*
X104058663Y-122908017D01*
X104050687Y-125784927D01*
X104040114Y-128280663D01*
X104026577Y-130422313D01*
X104009711Y-132236963D01*
X103989149Y-133751702D01*
X103964526Y-134993617D01*
X103935475Y-135989795D01*
X103901630Y-136767324D01*
X103862626Y-137353292D01*
X103818096Y-137774785D01*
X103767674Y-138058892D01*
X103710994Y-138232699D01*
X103647690Y-138323295D01*
X103577396Y-138357767D01*
X103501685Y-138363202D01*
X103424215Y-138357391D01*
X103354092Y-138321897D01*
X103290950Y-138229634D01*
X103234424Y-138053513D01*
X103184147Y-137766449D01*
X103139752Y-137341352D01*
X103100875Y-136751136D01*
X103067149Y-135968713D01*
X103038208Y-134966996D01*
X103013685Y-133718896D01*
X102993216Y-132197328D01*
X102976433Y-130375202D01*
X102962972Y-128225432D01*
X102952464Y-125720930D01*
X102944546Y-122834609D01*
X102938850Y-119539380D01*
X102935011Y-115808158D01*
X102932662Y-111613854D01*
X102931438Y-106929380D01*
X102930972Y-101727649D01*
X102930898Y-96125000D01*
X102930977Y-90392208D01*
X102931457Y-85203115D01*
X102932703Y-80530634D01*
X102935083Y-76347676D01*
X102938963Y-72627156D01*
X102944707Y-69341984D01*
X102952683Y-66465074D01*
X102963256Y-63969337D01*
X102976793Y-61827688D01*
X102993659Y-60013037D01*
X103014221Y-58498298D01*
X103038844Y-57256384D01*
X103067895Y-56260205D01*
X103101740Y-55482676D01*
X103140744Y-54896709D01*
X103185274Y-54475216D01*
X103235696Y-54191109D01*
X103292376Y-54017301D01*
X103355680Y-53926705D01*
X103425973Y-53892234D01*
X103501685Y-53886798D01*
X103579155Y-53892610D01*
G37*
G36*
X92371348Y-101547472D02*
G01*
X92337538Y-102279457D01*
X92154321Y-102604856D01*
X91699016Y-102687244D01*
X91515168Y-102689045D01*
X90658988Y-102689045D01*
X90658988Y-105356049D01*
X90691612Y-106798508D01*
X90824449Y-107780893D01*
X91109952Y-108411914D01*
X91600569Y-108800281D01*
X92348753Y-109054704D01*
X92456148Y-109080876D01*
X92996726Y-109165298D01*
X93195255Y-108964446D01*
X93189925Y-108337693D01*
X93189696Y-108334376D01*
X93165603Y-107614562D01*
X93158571Y-106525481D01*
X93160064Y-106352000D01*
X95225280Y-106352000D01*
X95238628Y-107693769D01*
X95290435Y-108575307D01*
X95398347Y-109106792D01*
X95580011Y-109398401D01*
X95729973Y-109503111D01*
X96439463Y-109773038D01*
X97312481Y-109968263D01*
X98117491Y-110050892D01*
X98622960Y-109983026D01*
X98631482Y-109978018D01*
X98778269Y-109611142D01*
X98883101Y-108789195D01*
X98933012Y-107627155D01*
X98935393Y-107282727D01*
X98916814Y-106023560D01*
X98844533Y-105200726D01*
X98693737Y-104680502D01*
X98439612Y-104329164D01*
X98376188Y-104269189D01*
X97748784Y-103923860D01*
X96849238Y-103667073D01*
X96521131Y-103617054D01*
X95225280Y-103470993D01*
X95225280Y-106352000D01*
X93160064Y-106352000D01*
X93169386Y-105268419D01*
X93176244Y-104887871D01*
X93216447Y-103650460D01*
X93299788Y-102835474D01*
X93462187Y-102294599D01*
X93739561Y-101879518D01*
X93962019Y-101643216D01*
X94458917Y-101212949D01*
X94953947Y-101031567D01*
X95672722Y-101044087D01*
X96173817Y-101104196D01*
X97753348Y-101447001D01*
X99164933Y-102001458D01*
X100235496Y-102694051D01*
X100477088Y-102932064D01*
X100744919Y-103341535D01*
X100922301Y-103931198D01*
X101032427Y-104826657D01*
X101098489Y-106153517D01*
X101103931Y-106326868D01*
X101116802Y-107676496D01*
X101080426Y-108942472D01*
X101002372Y-109927468D01*
X100954055Y-110234294D01*
X100479512Y-111396866D01*
X99644290Y-112122795D01*
X98473178Y-112391289D01*
X98381183Y-112392416D01*
X98117491Y-112371745D01*
X97624959Y-112333134D01*
X96499366Y-112173659D01*
X95143423Y-111941546D01*
X93696152Y-111664351D01*
X92296571Y-111369629D01*
X91083699Y-111084936D01*
X90196558Y-110837827D01*
X89838455Y-110699134D01*
X89291312Y-110224367D01*
X88793535Y-109517858D01*
X88776895Y-109486200D01*
X88496528Y-108636679D01*
X88281133Y-107398378D01*
X88145921Y-105951135D01*
X88106102Y-104474782D01*
X88176887Y-103149156D01*
X88215564Y-102849504D01*
X88539066Y-101615597D01*
X89118619Y-100849856D01*
X90039691Y-100475746D01*
X90944382Y-100405899D01*
X92371348Y-100405899D01*
X92371348Y-101547472D01*
G37*
G36*
X91562306Y-88726509D02*
G01*
X92612152Y-88949232D01*
X93370819Y-89308072D01*
X93462667Y-89388390D01*
X93854445Y-89592328D01*
X94571731Y-89684052D01*
X95717532Y-89673504D01*
X96180646Y-89650756D01*
X97411396Y-89604809D01*
X98246906Y-89647866D01*
X98859045Y-89804253D01*
X99419683Y-90098290D01*
X99441945Y-90112296D01*
X100128663Y-90675296D01*
X100593200Y-91285634D01*
X100629720Y-91368583D01*
X100793702Y-92090841D01*
X100926553Y-93214769D01*
X101020244Y-94571718D01*
X101066744Y-95993040D01*
X101058026Y-97310085D01*
X100986060Y-98354205D01*
X100968423Y-98482786D01*
X100757965Y-99385705D01*
X100463842Y-100091609D01*
X100329110Y-100276066D01*
X99502167Y-100739205D01*
X98377838Y-100902224D01*
X98235331Y-100888826D01*
X97131364Y-100785035D01*
X95937988Y-100407551D01*
X94972949Y-99789682D01*
X94834474Y-99651737D01*
X94289115Y-99193674D01*
X93967840Y-99221777D01*
X93959653Y-99234163D01*
X93529522Y-99461124D01*
X92741739Y-99538851D01*
X92473482Y-99519941D01*
X91788398Y-99471648D01*
X90861597Y-99263817D01*
X90578474Y-99158411D01*
X89723234Y-98657400D01*
X88952896Y-98000560D01*
X88950516Y-97997983D01*
X88630002Y-97603213D01*
X88416352Y-97163147D01*
X88282015Y-96548347D01*
X88199437Y-95629370D01*
X88141066Y-94276778D01*
X88137756Y-94179741D01*
X88123569Y-93351489D01*
X90150535Y-93351489D01*
X90164612Y-94500576D01*
X90214228Y-95568627D01*
X90297228Y-96397046D01*
X90411459Y-96827238D01*
X90422334Y-96840153D01*
X90806242Y-97024248D01*
X91503304Y-97230380D01*
X91643145Y-97263253D01*
X92473482Y-97356887D01*
X93024746Y-97145617D01*
X93346657Y-96558630D01*
X93488939Y-95525112D01*
X93504027Y-94824069D01*
X95263693Y-94824069D01*
X95325731Y-96147961D01*
X95520380Y-97251897D01*
X95829097Y-97979785D01*
X95902885Y-98066489D01*
X96420848Y-98348834D01*
X97229403Y-98571819D01*
X97464679Y-98609710D01*
X98235331Y-98671631D01*
X98645904Y-98537531D01*
X98893214Y-98136557D01*
X98912821Y-98088381D01*
X99047244Y-97477434D01*
X99149959Y-96495210D01*
X99200973Y-95341097D01*
X99202696Y-95197472D01*
X99187716Y-94008191D01*
X99099130Y-93237380D01*
X98907016Y-92734394D01*
X98650000Y-92414888D01*
X97905101Y-91977046D01*
X96815479Y-91844101D01*
X95551745Y-91844101D01*
X95352812Y-93436313D01*
X95263693Y-94824069D01*
X93504027Y-94824069D01*
X93508714Y-94606300D01*
X93457036Y-93473414D01*
X93325674Y-92479320D01*
X93144886Y-91844101D01*
X92656275Y-91299392D01*
X91928515Y-90910715D01*
X91156556Y-90736527D01*
X90535349Y-90835285D01*
X90343074Y-91003970D01*
X90237612Y-91444591D01*
X90174151Y-92279962D01*
X90150535Y-93351489D01*
X88123569Y-93351489D01*
X88106123Y-92333038D01*
X88168221Y-90971101D01*
X88344751Y-90012604D01*
X88656413Y-89376217D01*
X89123908Y-88980613D01*
X89501874Y-88820332D01*
X90449481Y-88672634D01*
X91562306Y-88726509D01*
G37*
G36*
X106644746Y-86718871D02*
G01*
X107134493Y-87011403D01*
X107968436Y-87629439D01*
X108067977Y-87705899D01*
X109024862Y-88518381D01*
X109616831Y-89187153D01*
X109780337Y-89577636D01*
X109697849Y-90052749D01*
X109425245Y-90024201D01*
X108968146Y-89544409D01*
X108478655Y-89136278D01*
X107885872Y-89183271D01*
X107785514Y-89218626D01*
X107078475Y-89480176D01*
X107727648Y-89686216D01*
X108323273Y-90160824D01*
X108551074Y-90763519D01*
X108847602Y-91461677D01*
X109252832Y-91772727D01*
X109693456Y-92125127D01*
X109780337Y-92435514D01*
X109737459Y-92744947D01*
X109512311Y-92818345D01*
X108960119Y-92668690D01*
X108594245Y-92541878D01*
X107851984Y-92313219D01*
X107809675Y-92305620D01*
X107368418Y-92226367D01*
X107288468Y-92243086D01*
X107420788Y-92407705D01*
X107772802Y-92554480D01*
X108315937Y-93006286D01*
X108551074Y-93617451D01*
X108847602Y-94315610D01*
X109252832Y-94626660D01*
X109693469Y-94981612D01*
X109780337Y-95295043D01*
X109700240Y-95648753D01*
X109353075Y-95652233D01*
X109048275Y-95547150D01*
X108413762Y-95323561D01*
X108212325Y-95393307D01*
X108339826Y-95856855D01*
X108443021Y-96131070D01*
X108622749Y-96889855D01*
X108446895Y-97502372D01*
X108379348Y-97616424D01*
X108155187Y-98134984D01*
X108314488Y-98347620D01*
X108592458Y-98685958D01*
X108638764Y-98960590D01*
X108598799Y-99220114D01*
X108398165Y-99301333D01*
X107915751Y-99197530D01*
X107497191Y-99057800D01*
X107030449Y-98901985D01*
X106926404Y-98865588D01*
X105867125Y-98431235D01*
X105320327Y-98039704D01*
X105277570Y-97932491D01*
X107306928Y-97932491D01*
X107346104Y-98102157D01*
X107497191Y-98122753D01*
X107732102Y-98018332D01*
X107687453Y-97932491D01*
X107625057Y-97926199D01*
X107348758Y-97898335D01*
X107306928Y-97932491D01*
X105277570Y-97932491D01*
X105214045Y-97773204D01*
X105302163Y-97448672D01*
X105670136Y-97462815D01*
X105946107Y-97559030D01*
X106607764Y-97788225D01*
X106837739Y-97760023D01*
X106730780Y-97437638D01*
X106651052Y-97285335D01*
X106403569Y-96526835D01*
X106402039Y-96454486D01*
X106988534Y-96454486D01*
X107348741Y-96833361D01*
X107625057Y-96937088D01*
X108001691Y-96875185D01*
X108005847Y-96651694D01*
X107809675Y-96445356D01*
X107645640Y-96272820D01*
X107497191Y-96217093D01*
X107369325Y-96169093D01*
X106992690Y-96230996D01*
X106988534Y-96454486D01*
X106402039Y-96454486D01*
X106387520Y-95768141D01*
X106596387Y-95236344D01*
X106712359Y-95149907D01*
X106792256Y-95078558D01*
X107306928Y-95078558D01*
X107346104Y-95248224D01*
X107497191Y-95268820D01*
X107732102Y-95164400D01*
X107687453Y-95078558D01*
X107348758Y-95044402D01*
X107306928Y-95078558D01*
X106792256Y-95078558D01*
X106922239Y-94962481D01*
X106712359Y-94816948D01*
X106469493Y-94433544D01*
X106368192Y-93733296D01*
X106378835Y-93533324D01*
X106961035Y-93533324D01*
X107220062Y-93853002D01*
X107809675Y-94108546D01*
X108060394Y-93924521D01*
X108067977Y-93832897D01*
X107839400Y-93487357D01*
X107627579Y-93369550D01*
X107136799Y-93319675D01*
X106961035Y-93533324D01*
X106378835Y-93533324D01*
X106409740Y-92952640D01*
X106595419Y-92328009D01*
X106698089Y-92186573D01*
X106894225Y-91903150D01*
X106701477Y-91844101D01*
X106496400Y-91586850D01*
X106398208Y-90801541D01*
X106397007Y-90679391D01*
X106961035Y-90679391D01*
X107220062Y-90999069D01*
X107809675Y-91254613D01*
X108060394Y-91070588D01*
X108067977Y-90978965D01*
X107839400Y-90633424D01*
X107627579Y-90515618D01*
X107136799Y-90465742D01*
X106961035Y-90679391D01*
X106397007Y-90679391D01*
X106390221Y-89989045D01*
X106431394Y-88961425D01*
X106536656Y-88387823D01*
X106736830Y-88152444D01*
X106886272Y-88125311D01*
X107188883Y-88083035D01*
X106996128Y-87909639D01*
X106855056Y-87825736D01*
X106437260Y-87322253D01*
X106355618Y-86961554D01*
X106413640Y-86714652D01*
X106644746Y-86718871D01*
G37*
D14*
%TO.C,R4*%
X82330000Y-86975000D02*
X82330000Y-93515000D01*
X82330000Y-93515000D02*
X85070000Y-93515000D01*
X83700000Y-86205000D02*
X83700000Y-86975000D01*
X83700000Y-94285000D02*
X83700000Y-93515000D01*
X85070000Y-86975000D02*
X82330000Y-86975000D01*
X85070000Y-93515000D02*
X85070000Y-86975000D01*
%TO.C,R3*%
X78830000Y-86975000D02*
X78830000Y-93515000D01*
X78830000Y-93515000D02*
X81570000Y-93515000D01*
X80200000Y-86205000D02*
X80200000Y-86975000D01*
X80200000Y-94285000D02*
X80200000Y-93515000D01*
X81570000Y-86975000D02*
X78830000Y-86975000D01*
X81570000Y-93515000D02*
X81570000Y-86975000D01*
%TO.C,R9*%
X140455000Y-87415000D02*
X140785000Y-87415000D01*
X140455000Y-93955000D02*
X140455000Y-87415000D01*
X140785000Y-93955000D02*
X140455000Y-93955000D01*
X142865000Y-93955000D02*
X143195000Y-93955000D01*
X143195000Y-87415000D02*
X142865000Y-87415000D01*
X143195000Y-93955000D02*
X143195000Y-87415000D01*
%TO.C,J1*%
X84835000Y-136655000D02*
X135895000Y-136655000D01*
X84835000Y-145775000D02*
X84835000Y-136655000D01*
X108315000Y-136655000D02*
X108315000Y-145775000D01*
X112415000Y-136655000D02*
X112415000Y-145775000D01*
X130185000Y-130035000D02*
X130685000Y-131035000D01*
X130685000Y-131035000D02*
X131185000Y-130035000D01*
X131185000Y-130035000D02*
X130185000Y-130035000D01*
X135895000Y-136655000D02*
X135895000Y-145775000D01*
X135895000Y-145775000D02*
X84835000Y-145775000D01*
%TO.C,RP1*%
X87210000Y-110220000D02*
X87400000Y-109890000D01*
X87210000Y-117760000D02*
X87210000Y-110220000D01*
X87400000Y-109890000D02*
X87900000Y-110180000D01*
X87400000Y-118090000D02*
X87210000Y-117760000D01*
X87900000Y-110180000D02*
X88530000Y-110180000D01*
X87900000Y-117800000D02*
X87400000Y-118090000D01*
X88530000Y-103990000D02*
X88530000Y-110180000D01*
X88530000Y-117800000D02*
X87900000Y-117800000D01*
X88530000Y-117800000D02*
X88530000Y-123990000D01*
X88530000Y-123990000D02*
X88530000Y-117800000D01*
X91020000Y-103430000D02*
X91440000Y-103430000D01*
X91020000Y-124550000D02*
X91440000Y-124550000D01*
X93560000Y-103430000D02*
X93980000Y-103430000D01*
X93560000Y-124550000D02*
X93980000Y-124550000D01*
X96100000Y-103430000D02*
X96520000Y-103430000D01*
X96100000Y-124550000D02*
X96520000Y-124550000D01*
X98640000Y-103430000D02*
X99060000Y-103430000D01*
X98640000Y-124550000D02*
X99060000Y-124550000D01*
X101180000Y-103430000D02*
X101600000Y-103430000D01*
X101180000Y-124550000D02*
X101600000Y-124550000D01*
X102600000Y-114000000D02*
X105300000Y-111100000D01*
X103720000Y-103430000D02*
X104140000Y-103430000D01*
X103720000Y-124550000D02*
X104140000Y-124550000D01*
X105300000Y-116900000D02*
X102600000Y-114000000D01*
X106260000Y-103430000D02*
X106680000Y-103430000D01*
X106260000Y-124550000D02*
X106680000Y-124550000D01*
X108300000Y-111500000D02*
X105000000Y-111500000D01*
X108300000Y-116500000D02*
X105000000Y-116500000D01*
X108800000Y-103430000D02*
X109220000Y-103430000D01*
X108800000Y-124550000D02*
X109220000Y-124550000D01*
X111340000Y-103430000D02*
X111760000Y-103430000D01*
X111340000Y-124550000D02*
X111760000Y-124550000D01*
X113880000Y-103430000D02*
X114300000Y-103430000D01*
X113880000Y-124550000D02*
X114300000Y-124550000D01*
X116420000Y-103430000D02*
X116840000Y-103430000D01*
X116420000Y-124550000D02*
X116840000Y-124550000D01*
X118960000Y-103430000D02*
X119380000Y-103430000D01*
X118960000Y-124550000D02*
X119380000Y-124550000D01*
X121500000Y-103430000D02*
X121920000Y-103430000D01*
X121500000Y-124550000D02*
X121920000Y-124550000D01*
X124040000Y-103430000D02*
X124460000Y-103430000D01*
X124040000Y-124550000D02*
X124460000Y-124550000D01*
X126580000Y-103430000D02*
X127000000Y-103430000D01*
X126580000Y-124550000D02*
X127000000Y-124550000D01*
X129120000Y-103430000D02*
X129540000Y-103430000D01*
X129120000Y-124550000D02*
X129540000Y-124550000D01*
X131660000Y-103430000D02*
X132080000Y-103430000D01*
X131660000Y-124550000D02*
X132080000Y-124550000D01*
X134200000Y-103430000D02*
X134620000Y-103430000D01*
X134200000Y-124550000D02*
X134620000Y-124550000D01*
X136740000Y-103430000D02*
X137160000Y-103430000D01*
X136740000Y-124550000D02*
X137160000Y-124550000D01*
X139650000Y-110390000D02*
X139650000Y-103990000D01*
X139650000Y-112930000D02*
X139650000Y-112510000D01*
X139650000Y-115470000D02*
X139650000Y-115050000D01*
X139650000Y-123990000D02*
X139650000Y-117590000D01*
X88530000Y-103990000D02*
G75*
G02*
X88900026Y-103460072I561900J1800D01*
G01*
X88900000Y-124520000D02*
G75*
G02*
X88530000Y-123990000I192058J528229D01*
G01*
X139280000Y-103460000D02*
G75*
G02*
X139649973Y-103990000I-192200J-528300D01*
G01*
X139650000Y-123990000D02*
G75*
G02*
X139280000Y-124520000I-562055J-1773D01*
G01*
%TO.C,R10*%
X145080000Y-87240000D02*
X145410000Y-87240000D01*
X145080000Y-93780000D02*
X145080000Y-87240000D01*
X145410000Y-93780000D02*
X145080000Y-93780000D01*
X147490000Y-93780000D02*
X147820000Y-93780000D01*
X147820000Y-87240000D02*
X147490000Y-87240000D01*
X147820000Y-93780000D02*
X147820000Y-87240000D01*
%TO.C,R11*%
X149530000Y-87415000D02*
X149860000Y-87415000D01*
X149530000Y-93955000D02*
X149530000Y-87415000D01*
X149860000Y-93955000D02*
X149530000Y-93955000D01*
X151940000Y-93955000D02*
X152270000Y-93955000D01*
X152270000Y-87415000D02*
X151940000Y-87415000D01*
X152270000Y-93955000D02*
X152270000Y-87415000D01*
%TO.C,J13*%
X79045000Y-45440000D02*
X80375000Y-45440000D01*
X79045000Y-46770000D02*
X79045000Y-45440000D01*
X79045000Y-48040000D02*
X79045000Y-53180000D01*
X79045000Y-48040000D02*
X81705000Y-48040000D01*
X79045000Y-53180000D02*
X81705000Y-53180000D01*
X81705000Y-48040000D02*
X81705000Y-53180000D01*
%TO.C,D3*%
X77495000Y-127514000D02*
X77495000Y-127670000D01*
X77495000Y-129830000D02*
X77495000Y-129986000D01*
X77495000Y-127514484D02*
G75*
G02*
X80726397Y-127669939I1560000J-1235516D01*
G01*
X78014039Y-127670000D02*
G75*
G02*
X80095910Y-127669951I1040961J-1080000D01*
G01*
X80095910Y-129830049D02*
G75*
G02*
X78014039Y-129830000I-1040910J1080049D01*
G01*
X80726397Y-129830061D02*
G75*
G02*
X77495000Y-129985516I-1671397J1080061D01*
G01*
%TO.C,D1*%
X145380000Y-107930000D02*
X145380000Y-115770000D01*
X145380000Y-114390000D02*
X149220000Y-114390000D01*
X145380000Y-114510000D02*
X149220000Y-114510000D01*
X145380000Y-114630000D02*
X149220000Y-114630000D01*
X145380000Y-115770000D02*
X149220000Y-115770000D01*
X147300000Y-106940000D02*
X147300000Y-107930000D01*
X147300000Y-116760000D02*
X147300000Y-115770000D01*
X149220000Y-107930000D02*
X145380000Y-107930000D01*
X149220000Y-115770000D02*
X149220000Y-107930000D01*
%TO.C,J2*%
X87010000Y-40325000D02*
X138070000Y-40325000D01*
X87010000Y-49445000D02*
X87010000Y-40325000D01*
X91720000Y-56065000D02*
X92720000Y-56065000D01*
X92220000Y-55065000D02*
X91720000Y-56065000D01*
X92720000Y-56065000D02*
X92220000Y-55065000D01*
X110490000Y-49445000D02*
X110490000Y-40325000D01*
X114590000Y-49445000D02*
X114590000Y-40325000D01*
X138070000Y-40325000D02*
X138070000Y-49445000D01*
X138070000Y-49445000D02*
X87010000Y-49445000D01*
%TO.C,SW1*%
X70785000Y-113890000D02*
X72885000Y-113890000D01*
X70785000Y-121610000D02*
X72885000Y-121610000D01*
X72655000Y-114410000D02*
X72885000Y-114410000D01*
X72655000Y-114950000D02*
X72655000Y-114410000D01*
X72655000Y-119450000D02*
X72655000Y-116050000D01*
X72655000Y-121090000D02*
X72655000Y-120550000D01*
X72655000Y-121090000D02*
X72885000Y-121090000D01*
X75485000Y-113890000D02*
X75995000Y-113890000D01*
X75485000Y-114410000D02*
X75995000Y-114410000D01*
X75485000Y-121090000D02*
X75995000Y-121090000D01*
X75485000Y-121610000D02*
X75995000Y-121610000D01*
X75995000Y-114410000D02*
X75995000Y-113890000D01*
X75995000Y-121610000D02*
X75995000Y-121090000D01*
%TO.C,J8*%
X70790000Y-106220000D02*
X70790000Y-107470000D01*
X70790000Y-107470000D02*
X72040000Y-107470000D01*
X70890000Y-105410000D02*
X70890000Y-105710000D01*
X70890000Y-105710000D02*
X71090000Y-105710000D01*
X70990000Y-105410000D02*
X70990000Y-105710000D01*
X71090000Y-99050000D02*
X71090000Y-107170000D01*
X71090000Y-104610000D02*
X71700000Y-104610000D01*
X71090000Y-105410000D02*
X70890000Y-105410000D01*
X71090000Y-107170000D02*
X75810000Y-107170000D01*
X71700000Y-99660000D02*
X71700000Y-101610000D01*
X71700000Y-101610000D02*
X71090000Y-101610000D01*
X71700000Y-104610000D02*
X71700000Y-106560000D01*
X71700000Y-106560000D02*
X75200000Y-106560000D01*
X72400000Y-99050000D02*
X72400000Y-99660000D01*
X72400000Y-107170000D02*
X72400000Y-106560000D01*
X73700000Y-99050000D02*
X73700000Y-99660000D01*
X73700000Y-107170000D02*
X73700000Y-106560000D01*
X74700000Y-102010000D02*
X75200000Y-102010000D01*
X74700000Y-102210000D02*
X74700000Y-102010000D01*
X74700000Y-104010000D02*
X75200000Y-104010000D01*
X74700000Y-104210000D02*
X74700000Y-104010000D01*
X75200000Y-99660000D02*
X71700000Y-99660000D01*
X75200000Y-102110000D02*
X74700000Y-102110000D01*
X75200000Y-102210000D02*
X74700000Y-102210000D01*
X75200000Y-104110000D02*
X74700000Y-104110000D01*
X75200000Y-104210000D02*
X74700000Y-104210000D01*
X75200000Y-106560000D02*
X75200000Y-99660000D01*
X75810000Y-99050000D02*
X71090000Y-99050000D01*
X75810000Y-107170000D02*
X75810000Y-99050000D01*
%TO.C,BZ1*%
X136175000Y-93975000D02*
G75*
G02*
X123975000Y-93975000I-6100000J0D01*
G01*
X123975000Y-93975000D02*
G75*
G02*
X136175000Y-93975000I6100000J0D01*
G01*
D11*
%TO.C,J11*%
X137935000Y-139971900D02*
X137935000Y-132721900D01*
X137935000Y-143210973D02*
X137935000Y-142732828D01*
X137935000Y-145700045D02*
X137935000Y-143200045D01*
X137935000Y-145700045D02*
X138950032Y-145700045D01*
X138950032Y-145700045D02*
X144450032Y-145700045D01*
X139200032Y-143200045D02*
X137935000Y-143200045D01*
X144450032Y-144500045D02*
X144450032Y-145700045D01*
X144450032Y-145700045D02*
X149950032Y-145700045D01*
X149885000Y-145700045D02*
X152685000Y-145700045D01*
X151185000Y-131221900D02*
X148435000Y-131221900D01*
X151285000Y-143200045D02*
X152685000Y-143200045D01*
X152685000Y-139971900D02*
X152685000Y-132721900D01*
X152685000Y-143200045D02*
X152685000Y-142721900D01*
X152685000Y-145700045D02*
X152685000Y-143200045D01*
D14*
%TO.C,SW2*%
X70785000Y-125775000D02*
X72885000Y-125775000D01*
X70785000Y-133495000D02*
X72885000Y-133495000D01*
X72655000Y-126295000D02*
X72885000Y-126295000D01*
X72655000Y-126835000D02*
X72655000Y-126295000D01*
X72655000Y-131335000D02*
X72655000Y-127935000D01*
X72655000Y-132975000D02*
X72655000Y-132435000D01*
X72655000Y-132975000D02*
X72885000Y-132975000D01*
X75485000Y-125775000D02*
X75995000Y-125775000D01*
X75485000Y-126295000D02*
X75995000Y-126295000D01*
X75485000Y-132975000D02*
X75995000Y-132975000D01*
X75485000Y-133495000D02*
X75995000Y-133495000D01*
X75995000Y-126295000D02*
X75995000Y-125775000D01*
X75995000Y-133495000D02*
X75995000Y-132975000D01*
%TO.C,J3*%
X70790000Y-68220000D02*
X70790000Y-69470000D01*
X70790000Y-69470000D02*
X72040000Y-69470000D01*
X70890000Y-67410000D02*
X70890000Y-67710000D01*
X70890000Y-67710000D02*
X71090000Y-67710000D01*
X70990000Y-67410000D02*
X70990000Y-67710000D01*
X71090000Y-59050000D02*
X71090000Y-69170000D01*
X71090000Y-66610000D02*
X71700000Y-66610000D01*
X71090000Y-67410000D02*
X70890000Y-67410000D01*
X71090000Y-69170000D02*
X75810000Y-69170000D01*
X71700000Y-59660000D02*
X71700000Y-61610000D01*
X71700000Y-61610000D02*
X71090000Y-61610000D01*
X71700000Y-66610000D02*
X71700000Y-68560000D01*
X71700000Y-68560000D02*
X75200000Y-68560000D01*
X72400000Y-59050000D02*
X72400000Y-59660000D01*
X72400000Y-69170000D02*
X72400000Y-68560000D01*
X73700000Y-59050000D02*
X73700000Y-59660000D01*
X73700000Y-69170000D02*
X73700000Y-68560000D01*
X74700000Y-62010000D02*
X75200000Y-62010000D01*
X74700000Y-62210000D02*
X74700000Y-62010000D01*
X74700000Y-64010000D02*
X75200000Y-64010000D01*
X74700000Y-64210000D02*
X74700000Y-64010000D01*
X74700000Y-66010000D02*
X75200000Y-66010000D01*
X74700000Y-66210000D02*
X74700000Y-66010000D01*
X75200000Y-59660000D02*
X71700000Y-59660000D01*
X75200000Y-62110000D02*
X74700000Y-62110000D01*
X75200000Y-62210000D02*
X74700000Y-62210000D01*
X75200000Y-64110000D02*
X74700000Y-64110000D01*
X75200000Y-64210000D02*
X74700000Y-64210000D01*
X75200000Y-66110000D02*
X74700000Y-66110000D01*
X75200000Y-66210000D02*
X74700000Y-66210000D01*
X75200000Y-68560000D02*
X75200000Y-59660000D01*
X75810000Y-59050000D02*
X71090000Y-59050000D01*
X75810000Y-69170000D02*
X75810000Y-59050000D01*
%TO.C,D2*%
X77570000Y-116914000D02*
X77570000Y-117070000D01*
X77570000Y-119230000D02*
X77570000Y-119386000D01*
X77570000Y-116914484D02*
G75*
G02*
X80801397Y-117069939I1560000J-1235516D01*
G01*
X78089039Y-117070000D02*
G75*
G02*
X80170910Y-117069951I1040961J-1080000D01*
G01*
X80170910Y-119230049D02*
G75*
G02*
X78089039Y-119230000I-1040910J1080049D01*
G01*
X80801397Y-119230061D02*
G75*
G02*
X77570000Y-119385516I-1671397J1080061D01*
G01*
%TO.C,R6*%
X89505000Y-86975000D02*
X89505000Y-93515000D01*
X89505000Y-93515000D02*
X92245000Y-93515000D01*
X90875000Y-86205000D02*
X90875000Y-86975000D01*
X90875000Y-94285000D02*
X90875000Y-93515000D01*
X92245000Y-86975000D02*
X89505000Y-86975000D01*
X92245000Y-93515000D02*
X92245000Y-86975000D01*
%TD*%
%LPC*%
D16*
%TO.C,J7*%
X72900000Y-94235000D03*
D17*
X72900000Y-92235000D03*
X72900000Y-90235000D03*
%TD*%
D18*
%TO.C,R2*%
X80125000Y-81775000D03*
D19*
X80125000Y-71615000D03*
%TD*%
D20*
%TO.C,U1*%
X89960000Y-80480000D03*
D21*
X89960000Y-78880000D03*
D22*
X92500000Y-79680000D03*
D18*
X92500000Y-78880000D03*
D23*
X95040000Y-79680000D03*
D24*
X95040000Y-78880000D03*
D22*
X97580000Y-79680000D03*
D18*
X97580000Y-78880000D03*
D22*
X100120000Y-79680000D03*
D18*
X100120000Y-78880000D03*
D22*
X102660000Y-79680000D03*
D18*
X102660000Y-78880000D03*
D22*
X105200000Y-79680000D03*
D18*
X105200000Y-78880000D03*
D23*
X107740000Y-79680000D03*
D24*
X107740000Y-78880000D03*
D22*
X110280000Y-79680000D03*
D18*
X110280000Y-78880000D03*
D22*
X112820000Y-79680000D03*
D18*
X112820000Y-78880000D03*
D22*
X115360000Y-79680000D03*
D18*
X115360000Y-78880000D03*
D22*
X117900000Y-79680000D03*
D18*
X117900000Y-78880000D03*
D23*
X120440000Y-79680000D03*
D24*
X120440000Y-78880000D03*
D22*
X122980000Y-79680000D03*
D18*
X122980000Y-78880000D03*
D22*
X125520000Y-79680000D03*
D18*
X125520000Y-78880000D03*
D22*
X128060000Y-79680000D03*
D18*
X128060000Y-78880000D03*
D22*
X130600000Y-79680000D03*
D18*
X130600000Y-78880000D03*
D23*
X133140000Y-79680000D03*
D24*
X133140000Y-78880000D03*
D22*
X135680000Y-79680000D03*
D18*
X135680000Y-78880000D03*
D22*
X138220000Y-79680000D03*
D18*
X138220000Y-78880000D03*
X138220000Y-61100000D03*
D22*
X138220000Y-60300000D03*
D18*
X135680000Y-61100000D03*
D22*
X135680000Y-60300000D03*
D24*
X133140000Y-61100000D03*
D23*
X133140000Y-60300000D03*
D18*
X130600000Y-61100000D03*
D22*
X130600000Y-60300000D03*
D18*
X128060000Y-61100000D03*
D22*
X128060000Y-60300000D03*
D18*
X125520000Y-61100000D03*
D22*
X125520000Y-60300000D03*
D18*
X122980000Y-61100000D03*
D22*
X122980000Y-60300000D03*
D24*
X120440000Y-61100000D03*
D23*
X120440000Y-60300000D03*
D18*
X117900000Y-61100000D03*
D22*
X117900000Y-60300000D03*
D18*
X115360000Y-61100000D03*
D22*
X115360000Y-60300000D03*
D18*
X112820000Y-61100000D03*
D22*
X112820000Y-60300000D03*
D18*
X110280000Y-61100000D03*
D22*
X110280000Y-60300000D03*
D24*
X107740000Y-61100000D03*
D23*
X107740000Y-60300000D03*
D18*
X105200000Y-61100000D03*
D22*
X105200000Y-60300000D03*
D18*
X102660000Y-61100000D03*
D22*
X102660000Y-60300000D03*
D18*
X100120000Y-61100000D03*
D22*
X100120000Y-60300000D03*
D18*
X97580000Y-61100000D03*
D22*
X97580000Y-60300000D03*
D24*
X95040000Y-61100000D03*
D23*
X95040000Y-60300000D03*
D18*
X92500000Y-61100000D03*
D22*
X92500000Y-60300000D03*
D18*
X89960000Y-61100000D03*
D22*
X89960000Y-60300000D03*
D25*
X119790000Y-69405800D03*
D26*
X119790000Y-66865800D03*
X119790000Y-64325800D03*
D27*
X93090000Y-69990000D03*
X89790000Y-68990000D03*
X89790000Y-70990000D03*
%TD*%
D18*
%TO.C,R7*%
X79400000Y-104765000D03*
D19*
X79400000Y-112385000D03*
%TD*%
D18*
%TO.C,R5*%
X87300000Y-95325000D03*
D19*
X87300000Y-85165000D03*
%TD*%
D16*
%TO.C,J4*%
X72900000Y-80385000D03*
D17*
X72900000Y-78385000D03*
X72900000Y-76385000D03*
X72900000Y-74385000D03*
%TD*%
D28*
%TO.C,J9*%
X143650000Y-58250000D03*
D29*
X143650000Y-60790000D03*
X143650000Y-63330000D03*
X143650000Y-65870000D03*
%TD*%
D18*
%TO.C,R1*%
X80075000Y-68555000D03*
D19*
X80075000Y-58395000D03*
%TD*%
D30*
%TO.C,U2*%
X96650000Y-94825000D03*
D18*
X99190000Y-94825000D03*
X101730000Y-94825000D03*
X104270000Y-94825000D03*
X106810000Y-94825000D03*
X109350000Y-94825000D03*
X111890000Y-94825000D03*
X114430000Y-94825000D03*
X116970000Y-94825000D03*
X119510000Y-94825000D03*
X119510000Y-87205000D03*
X116970000Y-87205000D03*
X114430000Y-87205000D03*
X111890000Y-87205000D03*
X109350000Y-87205000D03*
X106810000Y-87205000D03*
X104270000Y-87205000D03*
X101730000Y-87205000D03*
X99190000Y-87205000D03*
X96650000Y-87205000D03*
%TD*%
%TO.C,R8*%
X79275000Y-132825000D03*
D19*
X79275000Y-140445000D03*
%TD*%
D18*
%TO.C,R4*%
X83700000Y-95325000D03*
D19*
X83700000Y-85165000D03*
%TD*%
D18*
%TO.C,R3*%
X80200000Y-95325000D03*
D19*
X80200000Y-85165000D03*
%TD*%
D18*
%TO.C,R9*%
X141825000Y-94495000D03*
D19*
X141825000Y-86875000D03*
%TD*%
D31*
%TO.C,J1*%
X130685000Y-132385000D03*
D32*
X130685000Y-134925000D03*
X128145000Y-132385000D03*
X128145000Y-134925000D03*
X125605000Y-132385000D03*
X125605000Y-134925000D03*
X123065000Y-132385000D03*
X123065000Y-134925000D03*
X120525000Y-132385000D03*
X120525000Y-134925000D03*
X117985000Y-132385000D03*
X117985000Y-134925000D03*
X115445000Y-132385000D03*
X115445000Y-134925000D03*
X112905000Y-132385000D03*
X112905000Y-134925000D03*
X110365000Y-132385000D03*
X110365000Y-134925000D03*
X107825000Y-132385000D03*
X107825000Y-134925000D03*
X105285000Y-132385000D03*
X105285000Y-134925000D03*
X102745000Y-132385000D03*
X102745000Y-134925000D03*
X100205000Y-132385000D03*
X100205000Y-134925000D03*
X97665000Y-132385000D03*
X97665000Y-134925000D03*
X95125000Y-132385000D03*
X95125000Y-134925000D03*
X92585000Y-132385000D03*
X92585000Y-134925000D03*
X90045000Y-132385000D03*
X90045000Y-134925000D03*
%TD*%
D20*
%TO.C,RP1*%
X89960000Y-124480000D03*
D21*
X89960000Y-122880000D03*
D22*
X92500000Y-123680000D03*
D18*
X92500000Y-122880000D03*
D23*
X95040000Y-123680000D03*
D24*
X95040000Y-122880000D03*
D22*
X97580000Y-123680000D03*
D18*
X97580000Y-122880000D03*
D22*
X100120000Y-123680000D03*
D18*
X100120000Y-122880000D03*
D22*
X102660000Y-123680000D03*
D18*
X102660000Y-122880000D03*
D22*
X105200000Y-123680000D03*
D18*
X105200000Y-122880000D03*
D23*
X107740000Y-123680000D03*
D24*
X107740000Y-122880000D03*
D22*
X110280000Y-123680000D03*
D18*
X110280000Y-122880000D03*
D22*
X112820000Y-123680000D03*
D18*
X112820000Y-122880000D03*
D22*
X115360000Y-123680000D03*
D18*
X115360000Y-122880000D03*
D22*
X117900000Y-123680000D03*
D18*
X117900000Y-122880000D03*
D23*
X120440000Y-123680000D03*
D24*
X120440000Y-122880000D03*
D22*
X122980000Y-123680000D03*
D18*
X122980000Y-122880000D03*
D22*
X125520000Y-123680000D03*
D18*
X125520000Y-122880000D03*
D22*
X128060000Y-123680000D03*
D18*
X128060000Y-122880000D03*
D22*
X130600000Y-123680000D03*
D18*
X130600000Y-122880000D03*
D23*
X133140000Y-123680000D03*
D24*
X133140000Y-122880000D03*
D22*
X135680000Y-123680000D03*
D18*
X135680000Y-122880000D03*
D22*
X138220000Y-123680000D03*
D18*
X138220000Y-122880000D03*
X138220000Y-105100000D03*
D22*
X138220000Y-104300000D03*
D18*
X135680000Y-105100000D03*
D22*
X135680000Y-104300000D03*
D24*
X133140000Y-105100000D03*
D23*
X133140000Y-104300000D03*
D18*
X130600000Y-105100000D03*
D22*
X130600000Y-104300000D03*
D18*
X128060000Y-105100000D03*
D22*
X128060000Y-104300000D03*
D18*
X125520000Y-105100000D03*
D22*
X125520000Y-104300000D03*
D18*
X122980000Y-105100000D03*
D22*
X122980000Y-104300000D03*
D24*
X120440000Y-105100000D03*
D23*
X120440000Y-104300000D03*
D18*
X117900000Y-105100000D03*
D22*
X117900000Y-104300000D03*
D18*
X115360000Y-105100000D03*
D22*
X115360000Y-104300000D03*
D18*
X112820000Y-105100000D03*
D22*
X112820000Y-104300000D03*
D18*
X110280000Y-105100000D03*
D22*
X110280000Y-104300000D03*
D24*
X107740000Y-105100000D03*
D23*
X107740000Y-104300000D03*
D18*
X105200000Y-105100000D03*
D22*
X105200000Y-104300000D03*
D18*
X102660000Y-105100000D03*
D22*
X102660000Y-104300000D03*
D18*
X100120000Y-105100000D03*
D22*
X100120000Y-104300000D03*
D18*
X97580000Y-105100000D03*
D22*
X97580000Y-104300000D03*
D24*
X95040000Y-105100000D03*
D23*
X95040000Y-104300000D03*
D18*
X92500000Y-105100000D03*
D22*
X92500000Y-104300000D03*
D18*
X89960000Y-105100000D03*
D22*
X89960000Y-104300000D03*
D25*
X119790000Y-113405800D03*
D26*
X119790000Y-110865800D03*
X119790000Y-108325800D03*
D27*
X93090000Y-113990000D03*
X89790000Y-112990000D03*
X89790000Y-114990000D03*
%TD*%
D18*
%TO.C,R10*%
X146450000Y-94320000D03*
D19*
X146450000Y-86700000D03*
%TD*%
D18*
%TO.C,R11*%
X150900000Y-94495000D03*
D19*
X150900000Y-86875000D03*
%TD*%
D28*
%TO.C,J13*%
X80375000Y-46770000D03*
D29*
X80375000Y-49310000D03*
X80375000Y-51850000D03*
%TD*%
D33*
%TO.C,D3*%
X77785000Y-128750000D03*
D34*
X80325000Y-128750000D03*
%TD*%
D35*
%TO.C,D1*%
X147300000Y-118200000D03*
D36*
X147300000Y-105500000D03*
%TD*%
D37*
%TO.C,J2*%
X92220000Y-53715000D03*
D32*
X92220000Y-51175000D03*
X94760000Y-53715000D03*
X94760000Y-51175000D03*
X97300000Y-53715000D03*
X97300000Y-51175000D03*
X99840000Y-53715000D03*
X99840000Y-51175000D03*
X102380000Y-53715000D03*
X102380000Y-51175000D03*
X104920000Y-53715000D03*
X104920000Y-51175000D03*
X107460000Y-53715000D03*
X107460000Y-51175000D03*
X110000000Y-53715000D03*
X110000000Y-51175000D03*
X112540000Y-53715000D03*
X112540000Y-51175000D03*
X115080000Y-53715000D03*
X115080000Y-51175000D03*
X117620000Y-53715000D03*
X117620000Y-51175000D03*
X120160000Y-53715000D03*
X120160000Y-51175000D03*
X122700000Y-53715000D03*
X122700000Y-51175000D03*
X125240000Y-53715000D03*
X125240000Y-51175000D03*
X127780000Y-53715000D03*
X127780000Y-51175000D03*
X130320000Y-53715000D03*
X130320000Y-51175000D03*
X132860000Y-53715000D03*
X132860000Y-51175000D03*
%TD*%
D38*
%TO.C,SW1*%
X74175000Y-121250000D03*
X74175000Y-114240000D03*
D39*
X71685000Y-120000000D03*
X71685000Y-115500000D03*
%TD*%
D16*
%TO.C,J8*%
X72900000Y-105110000D03*
D17*
X72900000Y-103110000D03*
X72900000Y-101110000D03*
%TD*%
D40*
%TO.C,BZ1*%
X126275000Y-93975000D03*
D41*
X133875000Y-93975000D03*
%TD*%
D42*
%TO.C,J11*%
X148450032Y-141700045D03*
X140450032Y-141700045D03*
D43*
X147650032Y-131200045D03*
X146550032Y-131200045D03*
X145450032Y-131200045D03*
X144350032Y-131200045D03*
X143250032Y-131200045D03*
X142150032Y-131200045D03*
X141050032Y-131200045D03*
X139950032Y-131200045D03*
X138850032Y-131200045D03*
D44*
X153150032Y-141300045D03*
D45*
X152250032Y-131700045D03*
D44*
X137650032Y-141300045D03*
D46*
X137650032Y-131700045D03*
%TD*%
D38*
%TO.C,SW2*%
X74175000Y-133135000D03*
X74175000Y-126125000D03*
D39*
X71685000Y-131885000D03*
X71685000Y-127385000D03*
%TD*%
D16*
%TO.C,J3*%
X72900000Y-67110000D03*
D17*
X72900000Y-65110000D03*
X72900000Y-63110000D03*
X72900000Y-61110000D03*
%TD*%
D33*
%TO.C,D2*%
X77860000Y-118150000D03*
D34*
X80400000Y-118150000D03*
%TD*%
D18*
%TO.C,R6*%
X90875000Y-95325000D03*
D19*
X90875000Y-85165000D03*
%TD*%
%LPD*%
M02*
