M48
; DRILL file {KiCad 9.0.0} date 2025-03-10T21:28:12+0100
; FORMAT={-:-/ absolute / inch / decimal}
; #@! TF.CreationDate,2025-03-10T21:28:12+01:00
; #@! TF.GenerationSoftware,Kicad,Pcbnew,9.0.0
; #@! TF.FileFunction,Plated,1,2,PTH
FMAT,2
INCH
; #@! TA.AperFunction,Plated,PTH,ViaDrill
T1C0.0157
; #@! TA.AperFunction,Plated,PTH,ComponentDrill
T2C0.0295
; #@! TA.AperFunction,Plated,PTH,ComponentDrill
T3C0.0315
; #@! TA.AperFunction,Plated,PTH,ComponentDrill
T4C0.0354
; #@! TA.AperFunction,Plated,PTH,ComponentDrill
T5C0.0390
; #@! TA.AperFunction,Plated,PTH,ComponentDrill
T6C0.0394
; #@! TA.AperFunction,Plated,PTH,ComponentDrill
T7C0.0472
; #@! TA.AperFunction,Plated,PTH,ComponentDrill
T8C0.0512
%
G90
G05
T1
X3.0632Y-5.2261
X3.126Y-3.9807
X3.2018Y-4.5486
X3.204Y-3.5199
X3.2219Y-1.8413
X3.2399Y-2.0335
X3.2864Y-1.9758
X3.3162Y-1.9487
X3.3403Y-2.8092
X3.3659Y-4.6008
X3.3659Y-5.3779
X3.3785Y-2.068
X3.4142Y-3.047
X3.4995Y-2.2922
X3.5731Y-2.1514
X3.593Y-5.4159
X3.6951Y-5.262
X3.7387Y-2.2817
X3.7417Y-3.3082
X3.8583Y-3.5664
X3.9417Y-4.762
X4.1129Y-5.0089
X4.1417Y-4.6008
X4.1865Y-4.9363
X4.1883Y-2.893
X4.1992Y-3.5417
X4.2417Y-2.2817
X4.2417Y-3.3038
X4.2972Y-5.3596
X4.3494Y-3.3958
X4.4177Y-2.248
X4.4536Y-4.7246
X4.4734Y-5.3872
X4.5172Y-2.9956
X4.5908Y-3.2187
X4.5959Y-3.9257
X4.5959Y-4.9659
X4.6304Y-2.8629
X4.6917Y-3.8698
X4.7902Y-5.3807
X4.8327Y-2.5991
X4.8952Y-2.1683
X4.8963Y-4.9341
X4.9335Y-4.3284
X4.9636Y-2.1974
X4.9862Y-3.5316
X4.9917Y-3.9547
X5.0047Y-2.8677
X5.1242Y-2.8343
X5.1417Y-4.3653
X5.1451Y-4.9679
X5.1883Y-3.3889
X5.2417Y-4.9679
X5.2884Y-2.0684
X5.2884Y-3.5204
X5.3917Y-3.549
X5.4071Y-2.2158
X5.4417Y-4.4529
X5.4877Y-3.9257
X5.4937Y-2.2325
X5.5053Y-5.2207
X5.5454Y-4.3187
X5.5999Y-4.5273
X5.7894Y-1.9667
X5.9044Y-4.7879
X5.9055Y-3.2211
X6.0267Y-2.8916
T2
X2.8701Y-3.5526
X2.8701Y-3.6313
X2.8701Y-3.71
X2.8701Y-3.9807
X2.8701Y-4.0594
X2.8701Y-4.1382
X5.9055Y-2.0817
X5.9055Y-2.1604
X5.9055Y-2.2392
X5.9055Y-2.3179
X5.9055Y-2.6043
X5.9055Y-2.6831
X5.9055Y-2.7618
X5.9055Y-2.8406
T3
X3.1211Y-5.2293
X3.1211Y-5.5293
X3.126Y-4.1246
X3.126Y-4.4246
X3.1526Y-2.299
X3.1526Y-2.699
X3.1545Y-2.8195
X3.1545Y-3.2195
X3.1575Y-3.353
X3.1575Y-3.753
X3.2953Y-3.353
X3.2953Y-3.753
X3.437Y-3.353
X3.437Y-3.753
X3.5778Y-3.353
X3.5778Y-3.753
X3.8051Y-3.4333
X3.8051Y-3.7333
X3.9051Y-3.4333
X3.9051Y-3.7333
X4.0051Y-3.4333
X4.0051Y-3.7333
X4.1051Y-3.4333
X4.1051Y-3.7333
X4.2051Y-3.4333
X4.2051Y-3.7333
X4.3051Y-3.4333
X4.3051Y-3.7333
X4.4051Y-3.4333
X4.4051Y-3.7333
X4.5051Y-3.4333
X4.5051Y-3.7333
X4.6051Y-3.4333
X4.6051Y-3.7333
X4.7051Y-3.4333
X4.7051Y-3.7333
X5.6073Y-3.6118
X5.6073Y-3.9118
X5.7894Y-3.6049
X5.7894Y-3.9049
X5.9646Y-3.6118
X5.9646Y-3.9118
T4
X3.0624Y-5.0689
X3.0654Y-4.6516
X3.1624Y-5.0689
X3.1654Y-4.6516
T5
X2.8222Y-4.5472
X2.8222Y-4.7244
X2.8222Y-5.0152
X2.8222Y-5.1923
T6
X3.1644Y-1.8413
X3.1644Y-1.9413
X3.1644Y-2.0413
X3.5417Y-2.4055
X3.5417Y-3.1055
X3.5417Y-4.1378
X3.5417Y-4.8378
X3.5451Y-5.212
X3.5451Y-5.312
X3.6307Y-2.0148
X3.6307Y-2.1148
X3.6417Y-2.4055
X3.6417Y-3.1055
X3.6417Y-4.1378
X3.6417Y-4.8378
X3.6451Y-5.212
X3.6451Y-5.312
X3.7307Y-2.0148
X3.7307Y-2.1148
X3.7417Y-2.4055
X3.7417Y-3.1055
X3.7417Y-4.1378
X3.7417Y-4.8378
X3.7451Y-5.212
X3.7451Y-5.312
X3.8307Y-2.0148
X3.8307Y-2.1148
X3.8417Y-2.4055
X3.8417Y-3.1055
X3.8417Y-4.1378
X3.8417Y-4.8378
X3.8451Y-5.212
X3.8451Y-5.312
X3.9307Y-2.0148
X3.9307Y-2.1148
X3.9417Y-2.4055
X3.9417Y-3.1055
X3.9417Y-4.1378
X3.9417Y-4.8378
X3.9451Y-5.212
X3.9451Y-5.312
X4.0307Y-2.0148
X4.0307Y-2.1148
X4.0417Y-2.4055
X4.0417Y-3.1055
X4.0417Y-4.1378
X4.0417Y-4.8378
X4.0451Y-5.212
X4.0451Y-5.312
X4.1307Y-2.0148
X4.1307Y-2.1148
X4.1417Y-2.4055
X4.1417Y-3.1055
X4.1417Y-4.1378
X4.1417Y-4.8378
X4.1451Y-5.212
X4.1451Y-5.312
X4.2307Y-2.0148
X4.2307Y-2.1148
X4.2417Y-2.4055
X4.2417Y-3.1055
X4.2417Y-4.1378
X4.2417Y-4.8378
X4.2451Y-5.212
X4.2451Y-5.312
X4.3307Y-2.0148
X4.3307Y-2.1148
X4.3417Y-2.4055
X4.3417Y-3.1055
X4.3417Y-4.1378
X4.3417Y-4.8378
X4.3451Y-5.212
X4.3451Y-5.312
X4.4307Y-2.0148
X4.4307Y-2.1148
X4.4417Y-2.4055
X4.4417Y-3.1055
X4.4417Y-4.1378
X4.4417Y-4.8378
X4.4451Y-5.212
X4.4451Y-5.312
X4.5307Y-2.0148
X4.5307Y-2.1148
X4.5417Y-2.4055
X4.5417Y-3.1055
X4.5417Y-4.1378
X4.5417Y-4.8378
X4.5451Y-5.212
X4.5451Y-5.312
X4.6307Y-2.0148
X4.6307Y-2.1148
X4.6417Y-2.4055
X4.6417Y-3.1055
X4.6417Y-4.1378
X4.6417Y-4.8378
X4.6451Y-5.212
X4.6451Y-5.312
X4.7161Y-2.5325
X4.7161Y-2.6325
X4.7161Y-2.7325
X4.7161Y-4.2648
X4.7161Y-4.3648
X4.7161Y-4.4648
X4.7307Y-2.0148
X4.7307Y-2.1148
X4.7417Y-2.4055
X4.7417Y-3.1055
X4.7417Y-4.1378
X4.7417Y-4.8378
X4.7451Y-5.212
X4.7451Y-5.312
X4.8307Y-2.0148
X4.8307Y-2.1148
X4.8417Y-2.4055
X4.8417Y-3.1055
X4.8417Y-4.1378
X4.8417Y-4.8378
X4.8451Y-5.212
X4.8451Y-5.312
X4.9307Y-2.0148
X4.9307Y-2.1148
X4.9417Y-2.4055
X4.9417Y-3.1055
X4.9417Y-4.1378
X4.9417Y-4.8378
X4.9451Y-5.212
X4.9451Y-5.312
X4.9715Y-3.6998
X5.0307Y-2.0148
X5.0307Y-2.1148
X5.0417Y-2.4055
X5.0417Y-3.1055
X5.0417Y-4.1378
X5.0417Y-4.8378
X5.0451Y-5.212
X5.0451Y-5.312
X5.1307Y-2.0148
X5.1307Y-2.1148
X5.1417Y-2.4055
X5.1417Y-3.1055
X5.1417Y-4.1378
X5.1417Y-4.8378
X5.1451Y-5.212
X5.1451Y-5.312
X5.2307Y-2.0148
X5.2307Y-2.1148
X5.2417Y-2.4055
X5.2417Y-3.1055
X5.2417Y-4.1378
X5.2417Y-4.8378
X5.2707Y-3.6998
X5.3417Y-2.4055
X5.3417Y-3.1055
X5.3417Y-4.1378
X5.3417Y-4.8378
X5.4417Y-2.4055
X5.4417Y-3.1055
X5.4417Y-4.1378
X5.4417Y-4.8378
X5.6722Y-3.1211
X5.6722Y-3.2211
X5.6722Y-3.3211
X5.6722Y-3.4211
T7
X5.7992Y-4.1535
X5.7992Y-4.6535
T8
X2.9203Y-4.4976
X2.9203Y-4.7736
X2.9203Y-4.9656
X2.9203Y-5.2415
M30
